G04 Layer: TopLayer*
G04 EasyEDA v6.5.34, 2023-09-07 17:04:59*
G04 d285b86b6a45415abe36a98a1c013e6f,0b3e81c085af431c91bff7fd5324728f,10*
G04 Gerber Generator version 0.2*
G04 Scale: 100 percent, Rotated: No, Reflected: No *
G04 Dimensions in millimeters *
G04 leading zeros omitted , absolute positions ,4 integer and 5 decimal *
%FSLAX45Y45*%
%MOMM*%

%AMMACRO1*4,1,5,0.6,0.65,0.6,-0.65,-0.2,-0.65,-0.6,-0.25,-0.5999,0.65,0.6,0.65,0*%
%ADD10C,0.7000*%
%ADD11C,0.5080*%
%ADD12R,1.1999X1.3000*%
%ADD13MACRO1*%
%ADD14C,1.5748*%
%ADD15C,1.6000*%

%LPD*%
D10*
X1574800Y4845050D02*
G01*
X1574800Y4813300D01*
X1803400Y4584700D01*
D11*
X2057400Y4584700D02*
G01*
X2057400Y4597400D01*
X1943100Y4711700D01*
X2286000Y4845050D02*
G01*
X2286000Y4775200D01*
X2222500Y4711700D01*
X1943100Y4711700D01*
X1809750Y4845050D01*
X1765300Y4845050D01*
D10*
X1765300Y5314950D02*
G01*
X1822450Y5314950D01*
X1981200Y5156200D01*
X2304795Y5156200D01*
X2616200Y4845050D01*
X1244600Y5314950D02*
G01*
X1416304Y5143500D01*
X1752600Y5143500D01*
X2051050Y4845050D01*
X2095500Y4845050D01*
X2311400Y4584700D02*
G01*
X2616200Y4584700D01*
X1244699Y4844999D02*
G01*
X1403504Y5003800D01*
X1689100Y5003800D01*
X1765401Y4927498D01*
X1765401Y4844999D01*
X2095500Y5314950D02*
G01*
X2095500Y5461000D01*
X2132075Y5461000D01*
X1549400Y4584700D02*
G01*
X1155700Y4584700D01*
X1104900Y4635500D01*
X1104900Y5422900D01*
X1143000Y5461000D01*
X1663700Y5461000D01*
X1574800Y5314950D02*
G01*
X1574800Y5461000D01*
X2578100Y5461000D01*
X2616200Y5422900D01*
X2616200Y5314950D01*
D12*
G01*
X2616098Y5315000D03*
G01*
X2286101Y5315000D03*
G01*
X2616098Y4844999D03*
G01*
X2286101Y4844999D03*
G01*
X2095398Y5315000D03*
G01*
X1765401Y5315000D03*
G01*
X2095398Y4844999D03*
D13*
G01*
X1765399Y4844999D03*
D12*
G01*
X1574698Y5315000D03*
G01*
X1244701Y5315000D03*
G01*
X1574698Y4844999D03*
G01*
X1244701Y4844999D03*
D14*
G01*
X1549400Y4584700D03*
G01*
X1803400Y4584700D03*
G01*
X2057400Y4584700D03*
G01*
X2311400Y4584700D03*
D15*
G01*
X2616200Y4584700D03*
M02*
