<?xml version='1.0' encoding='UTF-8' standalone='no'?>
<!-- Created with Fritzing (http://www.fritzing.org/) -->
<svg xmlns="http://www.w3.org/2000/svg" viewBox="0 0 36.8977 27.9097" xmlns:svg="http://www.w3.org/2000/svg" height="0.387635in" x="0in"  y="0in" width="0.512469in" version="1.2" baseProfile="tiny">
 <g partID="57470">
  <g id="board" >
   <rect id="boardoutline" stroke-width="0.5" fill-opacity="0.5" stroke="black" height="27.3337" x="0.288"  width="36.3217" y="0.288" fill="none"/>
  </g>
 </g>
 <g partID="635950">
  <g transform="translate(8.824,10.1608)">
   <g transform="matrix(0,-1,1,0,0,0)">
    <g id="copper0" >
     <circle id="connector0pin" cx="5.04" stroke-width="1.13386" stroke="black" r="0.850392"  cy="5.04" fill="none"/>
     <circle id="connector1pin" cx="5.04" stroke-width="1.13386" stroke="black" r="0.850392"  cy="8.64" fill="none"/>
     <circle id="connector2pin" cx="5.04" stroke-width="1.13386" stroke="black" r="0.850392"  cy="12.24" fill="none"/>
    </g>
   </g>
  </g>
 </g>
 <g partID="635930">
  <g transform="translate(18.724,5.4808)">
   <g id="copper0" >
    <circle id="connector0pin" cx="5.04" stroke-width="1.13386" stroke="black" r="0.850392"  cy="5.04" fill="none"/>
    <circle id="connector1pin" cx="5.04" stroke-width="1.13386" stroke="black" r="0.850392"  cy="8.64" fill="none"/>
    <circle id="connector2pin" cx="5.04" stroke-width="1.13386" stroke="black" r="0.850392"  cy="12.24" fill="none"/>
   </g>
  </g>
 </g>
 <g partID="635910">
  <g transform="translate(7.024,5.4808)">
   <g id="copper0" >
    <circle id="connector0pin" cx="5.04" stroke-width="1.13386" stroke="black" r="0.850392"  cy="5.04" fill="none"/>
    <circle id="connector1pin" cx="5.04" stroke-width="1.13386" stroke="black" r="0.850392"  cy="8.64" fill="none"/>
    <circle id="connector2pin" cx="5.04" stroke-width="1.13386" stroke="black" r="0.850392"  cy="12.24" fill="none"/>
   </g>
  </g>
 </g>
 <g partID="637270">
  <g transform="translate(-1.076,29.0608)">
   <g transform="matrix(0,-1,1,0,0,0)">
    <g id="copper0" >
     <circle id="connector0pin" cx="5.04" stroke-width="1.44" stroke="black" r="2.088"  cy="5.04" fill="none"/>
     <circle id="connector1pin" cx="5.04" stroke-width="1.44" stroke="black" r="2.088"  cy="12.24" fill="none"/>
     <circle id="connector2pin" cx="5.04" stroke-width="1.44" stroke="black" r="2.088"  cy="19.44" fill="none"/>
     <circle id="connector3pin" cx="5.04" stroke-width="1.44" stroke="black" r="2.088"  cy="26.64" fill="none"/>
     <circle id="connector4pin" cx="5.04" stroke-width="1.44" stroke="black" r="2.088"  cy="33.84" fill="none"/>
    </g>
   </g>
  </g>
 </g>
 <g partID="660450">
  <g transform="translate(-1.61742,11.7337)">
   <g id="copper0" >
    <circle id="connector0pin" cx="5.04" stroke-width="1.44" stroke="black" r="2.27905"  cy="5.04" fill="none"/>
   </g>
  </g>
 </g>
 <g partID="660910">
  <g transform="translate(27.724,11.7808)">
   <g id="copper0" >
    <circle id="connector0pin" cx="5.04" stroke-width="1.44" stroke="black" r="2.088"  cy="5.04" fill="none"/>
   </g>
  </g>
 </g>
 <g partID="660930">
  <g transform="translate(23.5746,1.387)">
   <g id="copper0" >
    <circle id="connector0pin" cx="5.04" stroke-width="1.44" stroke="black" r="2.088"  cy="5.04" fill="none"/>
   </g>
  </g>
 </g>
 <g partID="661200">
  <g transform="translate(2.43131,1.387)">
   <g id="copper0" >
    <circle id="connector0pin" cx="5.04" stroke-width="1.44" stroke="black" r="2.088"  cy="5.04" fill="none"/>
   </g>
  </g>
 </g>
 <g partID="657370">
  <line stroke-width="1.728" stroke="black" x2="18.3642" y2="21.8528" stroke-linecap="round" y1="14.1396" x1="18.3648"/>
 </g>
 <g partID="657440">
  <line stroke-width="1.728" stroke="black" x2="13.1475" y2="14.124" stroke-linecap="round" y1="14.1396" x1="18.3648"/>
 </g>
 <g partID="658300">
  <line stroke-width="1.728" stroke="black" x2="24.0617" y2="18.7626" stroke-linecap="round" y1="21.9362" x1="24.9684"/>
 </g>
 <g partID="658530">
  <line stroke-width="1.728" stroke="black" x2="22.6805" y2="14.1246" stroke-linecap="round" y1="14.1396" x1="18.3648"/>
 </g>
 <g partID="659240">
  <line stroke-width="1.728" stroke="black" x2="35.4228" y2="5.08556" stroke-linecap="round" y1="1.51525" x1="32.7658"/>
 </g>
 <g partID="659020">
  <line stroke-width="1.728" stroke="black" x2="20.1592" y2="1.51923" stroke-linecap="round" y1="4.25334" x1="18.1132"/>
 </g>
 <g partID="659350">
  <line stroke-width="1.728" stroke="black" x2="35.4228" y2="9.65225" stroke-linecap="round" y1="5.08556" x1="35.4228"/>
 </g>
 <g partID="659130">
  <line stroke-width="1.728" stroke="black" x2="32.7658" y2="1.51525" stroke-linecap="round" y1="1.51923" x1="20.1592"/>
 </g>
 <g partID="659460">
  <line stroke-width="1.728" stroke="black" x2="32.7658" y2="11.3959" stroke-linecap="round" y1="9.65225" x1="35.4228"/>
 </g>
 <g partID="659570">
  <line stroke-width="1.728" stroke="black" x2="27.3688" y2="11.3959" stroke-linecap="round" y1="11.3959" x1="32.7658"/>
 </g>
 <g partID="660950">
  <line stroke-width="1.728" stroke="black" x2="24.6283" y2="13.4675" stroke-linecap="round" y1="11.3959" x1="27.3688"/>
 </g>
 <g partID="659710">
  <line stroke-width="1.728" stroke="black" x2="14.56" y2="5.95119" stroke-linecap="round" y1="10.491" x1="18.3648"/>
 </g>
 <g partID="659680">
  <line stroke-width="1.728" stroke="black" x2="18.3648" y2="10.491" stroke-linecap="round" y1="10.5148" x1="22.6806"/>
 </g>
 <g partID="660580">
  <line stroke-width="1.728" stroke="black" x2="8.35481" y2="16.2947" stroke-linecap="round" y1="13.1395" x1="8.35481"/>
 </g>
 <g partID="660720">
  <line stroke-width="1.728" stroke="black" x2="6.61117" y2="11.3959" stroke-linecap="round" y1="11.3959" x1="3.04086"/>
 </g>
 <g partID="660110">
  <line stroke-width="1.728" stroke="black" x2="11.0527" y2="17.332" stroke-linecap="round" y1="16.2947" x1="8.35481"/>
 </g>
 <g partID="660650">
  <line stroke-width="1.728" stroke="black" x2="8.35481" y2="13.1395" stroke-linecap="round" y1="11.3959" x1="6.61117"/>
 </g>
 <g partID="660040">
  <line stroke-width="1.728" stroke="black" x2="1.29721" y2="9.65225" stroke-linecap="round" y1="3.34192" x1="1.29721"/>
 </g>
 <g partID="659760">
  <line stroke-width="1.728" stroke="black" x2="10.2902" y2="1.51923" stroke-linecap="round" y1="4.35171" x1="13.1008"/>
 </g>
 <g partID="659830">
  <line stroke-width="1.728" stroke="black" x2="1.29721" y2="3.34192" stroke-linecap="round" y1="1.51525" x1="3.95419"/>
 </g>
 <g partID="659970">
  <line stroke-width="1.728" stroke="black" x2="3.95419" y2="1.51525" stroke-linecap="round" y1="1.51923" x1="10.2902"/>
 </g>
 <g partID="659900">
  <line stroke-width="1.728" stroke="black" x2="3.04086" y2="11.3959" stroke-linecap="round" y1="9.65225" x1="1.29721"/>
 </g>
 <g partID="660810">
  <line stroke-width="1.728" stroke="black" x2="3.80248" y2="21.8588" stroke-linecap="round" y1="19.1262" x1="3.59833"/>
 </g>
 <g partID="661060">
  <line stroke-width="1.728" stroke="black" x2="32.764" y2="21.8528" stroke-linecap="round" y1="18.9888" x1="32.764"/>
 </g>
 <g partID="661130">
  <line stroke-width="1.728" stroke="black" x2="22.1316" y2="5.30549" stroke-linecap="round" y1="6.05745" x1="26.4784"/>
 </g>
 <g partID="661220">
  <line stroke-width="1.728" stroke="black" x2="9.08969" y2="7.86959" stroke-linecap="round" y1="9.79986" x1="11.2552"/>
 </g>
</svg>
