G04 Layer: BottomLayer*
G04 EasyEDA v6.5.34, 2023-09-07 22:51:50*
G04 1c4de64a70be403faa317df9fd9dba8d,0b3e81c085af431c91bff7fd5324728f,10*
G04 Gerber Generator version 0.2*
G04 Scale: 100 percent, Rotated: No, Reflected: No *
G04 Dimensions in millimeters *
G04 leading zeros omitted , absolute positions ,4 integer and 5 decimal *
%FSLAX45Y45*%
%MOMM*%

%AMMACRO1*21,1,$1,$2,0,0,$3*%
%ADD10C,0.5080*%
%ADD11MACRO1,1.701X1.2075X-90.0000*%
%ADD12R,1.7010X1.2075*%
%ADD13MACRO1,1.701X1.2075X0.0000*%
%ADD14MACRO1,1.092X0.61X-90.0000*%
%ADD15R,1.9000X2.0000*%
%ADD16R,1.9000X1.9000*%
%ADD17R,2.0000X2.0000*%
%ADD18R,2.0000X1.6000*%
%ADD19R,2.0000X1.7000*%
%ADD20C,2.0000*%

%LPD*%
D10*
X1809750Y661923D02*
G01*
X1950974Y520700D01*
X2324100Y520700D01*
X2508504Y705104D01*
X2508504Y800100D01*
X2508504Y520700D02*
G01*
X2419604Y431800D01*
X2273300Y431800D01*
X2133600Y292100D01*
X2133600Y241300D01*
X2952750Y915923D02*
G01*
X2427224Y915923D01*
X2374900Y863600D01*
X2374900Y774700D01*
X2262124Y661923D01*
X2190750Y661923D01*
X2603500Y800100D02*
G01*
X2603245Y915923D01*
X2952750Y661923D02*
G01*
X2894075Y661923D01*
X2755900Y800100D01*
X2698495Y800100D01*
X2190750Y915926D02*
G01*
X2328923Y1054100D01*
X3124200Y1054100D01*
X3187700Y990600D01*
X3187700Y935278D01*
X800100Y935278D02*
G01*
X819378Y916000D01*
X1047699Y916000D01*
X2190750Y661923D02*
G01*
X2144775Y661923D01*
X1890776Y915923D01*
X1809750Y915923D01*
X1809750Y915923D02*
G01*
X1385823Y915923D01*
X1131823Y661923D01*
X1047750Y661923D01*
X2603500Y520700D02*
G01*
X2603500Y596900D01*
X2667000Y660400D01*
X2730500Y660400D01*
X2794000Y596900D01*
X2794000Y279400D01*
X2933700Y139700D01*
X2387600Y241300D02*
G01*
X2501900Y241300D01*
X2603500Y342900D01*
X2603500Y520700D01*
X2698495Y520700D02*
G01*
X2698495Y247395D01*
X2552700Y101600D01*
X1968500Y101600D01*
X1879600Y190500D01*
X1879600Y241300D01*
X825500Y127000D02*
G01*
X830021Y131521D01*
X830021Y342900D01*
X2933700Y139700D02*
G01*
X2959100Y114300D01*
X3251200Y114300D01*
X3429000Y292100D01*
X3449873Y292100D01*
X3154172Y292100D02*
G01*
X3073400Y292100D01*
X2952750Y412750D01*
X2952750Y661923D01*
X1047750Y661923D02*
G01*
X977900Y592073D01*
X977900Y241300D01*
X1041400Y177800D01*
X1562100Y177800D01*
X1625600Y241300D01*
X830021Y342900D02*
G01*
X800100Y372821D01*
X800100Y639521D01*
X3449873Y292100D02*
G01*
X3187700Y554273D01*
X3187700Y639521D01*
X1125730Y342900D02*
G01*
X1125730Y401830D01*
X1385826Y661926D01*
X1809750Y661926D01*
D11*
G01*
X1125776Y342900D03*
G01*
X830023Y342900D03*
G01*
X3449876Y292100D03*
G01*
X3154123Y292100D03*
D12*
G01*
X800100Y935278D03*
D13*
G01*
X800100Y639523D03*
D12*
G01*
X3200400Y935278D03*
D13*
G01*
X3200400Y639523D03*
D14*
G01*
X2508498Y800100D03*
G01*
X2603498Y800100D03*
G01*
X2698498Y800100D03*
G01*
X2698498Y520700D03*
G01*
X2603500Y520700D03*
G01*
X2508498Y520700D03*
D15*
G01*
X2387600Y266700D03*
G01*
X2133600Y266700D03*
D16*
G01*
X1879600Y266700D03*
G01*
X1625600Y266700D03*
D17*
G01*
X1809699Y916000D03*
G01*
X1809699Y662000D03*
G01*
X1047699Y662000D03*
G01*
X1047699Y916000D03*
D18*
G01*
X2952699Y916000D03*
D17*
G01*
X2952699Y662000D03*
D19*
G01*
X2190699Y662000D03*
D17*
G01*
X2190699Y916000D03*
D20*
G01*
X2933700Y133350D03*
G01*
X825500Y133350D03*
M02*
