M48
METRIC,LZ,000.000
;FILE_FORMAT=3:3
;TYPE=NON_PLATED
;Layer: NPTH_Through
;EasyEDA v6.5.34, 2023-09-07 22:36:22
;6936e88fb932453b8581c8861ee1522a,0b3e81c085af431c91bff7fd5324728f,10
;Gerber Generator version 0.2
;Holesize 1 = 0.901 mm
T01C0.901
;Holesize 2 = 2.000 mm
T02C2.000
%
G05
G90
T01
X186387Y032050
X186387Y036450
X186387Y047800
X186387Y052200
X186387Y063550
X186387Y067950
T02
X056000Y040500
X126500Y055500
X038000Y041000
X047000Y040500
X047000Y059500
X096498Y074000
X073699Y073500
X038000Y059000
X056000Y059500
X141500Y059500
X141500Y040500
X126500Y072500
X126480Y050074
X077498Y054000
M30
