M48
METRIC,LZ,000.000
;FILE_FORMAT=3:3
;TYPE=PLATED
;Layer: PTH_Through
;EasyEDA v6.5.34, 2023-09-07 22:36:22
;6936e88fb932453b8581c8861ee1522a,0b3e81c085af431c91bff7fd5324728f,10
;Gerber Generator version 0.2
;Holesize 1 = 0.800 mm
T01C0.800
;Holesize 2 = 0.801 mm
T02C0.801
;Holesize 3 = 0.889 mm
T03C0.889
;Holesize 4 = 0.915 mm
T04C0.915
;Holesize 5 = 1.000 mm
T05C1.000
;Holesize 6 = 1.101 mm
T06C1.101
;Holesize 7 = 1.200 mm
T07C1.200
;Holesize 8 = 2.000 mm
T08C2.000
%
G05
G90
T01
X148250Y064000
X146250Y062500
X150750Y060250
X157750Y039750
X159250Y054500
X175500Y051000
X176000Y047250
X137000Y038250
X155500Y044500
X157250Y043500
X137250Y057500
X102500Y063750
X095500Y065250
X097750Y066000
X091750Y043250
X066000Y059250
X059500Y060750
X060750Y062750
X030750Y047000
X058250Y044250
X057250Y055250
X087500Y058250
X094750Y043250
X118500Y060000
X135500Y049250
X135750Y059250
X070250Y042000
X163249Y063500
X049250Y050000
X129500Y040750
X049500Y052750
X131000Y043000
X178500Y014500
X175500Y027750
X135000Y039500
X115000Y065000
X121750Y060000
X113000Y042500
X120000Y058250
X110500Y043750
X109750Y084750
X089000Y084000
X092750Y057250
X087250Y051750
X073000Y063250
X116250Y014500
X181000Y042000
X175000Y030750
X100750Y036500
X178750Y031000
X102500Y038250
X120500Y031000
X066250Y042000
X066250Y033250
X108250Y070250
X070750Y063250
X123750Y070000
X128750Y064000
X158750Y058500
X105750Y071000
X068500Y063250
X129750Y070000
X133750Y061000
X156250Y058250
X086250Y050000
X094500Y056000
X054500Y049500
X052250Y032250
X025750Y043750
X007250Y048000
X087750Y036750
X086000Y039000
X114250Y078250
X111750Y079250
X005500Y057250
X011000Y064000
X005750Y043250
X002500Y064000
X045750Y054000
X047250Y047000
X073000Y033250
X091500Y033750
X053750Y037500
X091500Y036000
X073250Y035750
X069000Y040000
X043250Y048250
X017250Y037250
X092000Y046250
X089750Y045750
X090000Y048500
X106000Y043000
X108500Y042250
X093750Y033750
X095750Y033250
X098750Y035250
X149750Y039750
X154250Y040750
X152000Y039750
X053750Y047500
X057750Y037500
X062250Y040250
X064000Y041500
X052749Y063749
X070500Y056000
X017000Y034500
X005500Y072750
X144499Y063856
X052750Y042250
X181750Y014500
X007500Y086750
X010000Y086750
X005000Y086750
X010000Y013250
X012500Y013250
X015000Y013250
X120750Y026250
X114250Y017250
X107500Y036750
X111750Y035750
T02
X100984Y027663G85X100984Y027668
X103524Y027663G85X103524Y027668
X098444Y027663G85X098444Y027668
X095904Y027663G85X095904Y027668
X093364Y027663G85X093364Y027668
X106064Y027663G85X106064Y027668
X108604Y027663G85X108604Y027668
X111144Y027663G85X111144Y027668
T03
X132939Y066251
X135479Y066251
X138019Y066251
X140559Y066251
X173000Y046190
X173000Y048730
X173000Y051270
X173000Y053810
X003501Y024559
X003501Y022019
X003501Y019479
X003501Y016939
X003501Y083060
X003501Y080520
X003501Y077980
X003501Y075440
X017961Y040249
X020501Y040249
X085789Y081750
X083249Y081750
X025980Y040377
X028520Y040377
X175980Y012000
X178520Y012000
X111690Y081750
X114230Y081750
X116770Y081750
X119310Y081750
X126270Y018000
X123730Y018000
X189000Y004960
X189000Y007500
X189000Y089960
X189000Y092500
X002381Y010000
X017621Y010000
X004921Y010000
X007461Y010000
X010001Y010000
X012541Y010000
X015081Y010000
X017621Y090000
X002381Y090000
X015081Y090000
X012541Y090000
X010001Y090000
X007461Y090000
X004921Y090000
T04
X023041Y040249
X080709Y081750
X093250Y018000
X090710Y018000
X088170Y018000
X085630Y018000
X083090Y018000
X080550Y018000
X189000Y010040
X189000Y095040
T05
X098000Y018000G85X098000Y018000
X100540Y018000G85X100540Y018000
X103080Y018000G85X103080Y018000
X105620Y018000G85X105620Y018000
X018000Y053620G85X018000Y053620
X018000Y051080G85X018000Y051080
X018000Y048540G85X018000Y048540
X018000Y046000G85X018000Y046000
X105620Y082000G85X105620Y082000
X103080Y082000G85X103080Y082000
X100540Y082000G85X100540Y082000
X098000Y082000G85X098000Y082000
T06
X189250Y080751
X184749Y080751
X189250Y074249
X184749Y074249
T07
X104290Y006250
X099210Y006250
X187750Y015750
X187750Y020830
X187750Y025910
T08
X075851Y044841
X075851Y022616
X122841Y022616
X122841Y044841
M30
