M48
METRIC,LZ,000.000
;FILE_FORMAT=3:3
;TYPE=PLATED
;Layer: PTH_Through_Via
;EasyEDA v6.5.34, 2023-09-07 22:36:22
;6936e88fb932453b8581c8861ee1522a,0b3e81c085af431c91bff7fd5324728f,10
;Gerber Generator version 0.2
;Holesize 1 = 0.800 mm
T01C0.800
%
G05
G90
T01
X148250Y064000
X146250Y062500
X150750Y060250
X157750Y039750
X159250Y054500
X175500Y051000
X176000Y047250
X137000Y038250
X155500Y044500
X157250Y043500
X137250Y057500
X102500Y063750
X095500Y065250
X097750Y066000
X091750Y043250
X066000Y059250
X059500Y060750
X060750Y062750
X030750Y047000
X058250Y044250
X057250Y055250
X087500Y058250
X094750Y043250
X118500Y060000
X135500Y049250
X135750Y059250
X070250Y042000
X163249Y063500
X049250Y050000
X129500Y040750
X049500Y052750
X131000Y043000
X178500Y014500
X175500Y027750
X135000Y039500
X115000Y065000
X121750Y060000
X113000Y042500
X120000Y058250
X110500Y043750
X109750Y084750
X089000Y084000
X092750Y057250
X087250Y051750
X073000Y063250
X116250Y014500
X181000Y042000
X175000Y030750
X100750Y036500
X178750Y031000
X102500Y038250
X120500Y031000
X066250Y042000
X066250Y033250
X108250Y070250
X070750Y063250
X123750Y070000
X128750Y064000
X158750Y058500
X105750Y071000
X068500Y063250
X129750Y070000
X133750Y061000
X156250Y058250
X086250Y050000
X094500Y056000
X054500Y049500
X052250Y032250
X025750Y043750
X007250Y048000
X087750Y036750
X086000Y039000
X114250Y078250
X111750Y079250
X005500Y057250
X011000Y064000
X005750Y043250
X002500Y064000
X045750Y054000
X047250Y047000
X073000Y033250
X091500Y033750
X053750Y037500
X091500Y036000
X073250Y035750
X069000Y040000
X043250Y048250
X017250Y037250
X092000Y046250
X089750Y045750
X090000Y048500
X106000Y043000
X108500Y042250
X093750Y033750
X095750Y033250
X098750Y035250
X149750Y039750
X154250Y040750
X152000Y039750
X053750Y047500
X057750Y037500
X062250Y040250
X064000Y041500
X052749Y063749
X070500Y056000
X017000Y034500
X005500Y072750
X144499Y063856
X052750Y042250
X181750Y014500
X007500Y086750
X010000Y086750
X005000Y086750
X010000Y013250
X012500Y013250
X015000Y013250
X120750Y026250
X114250Y017250
X107500Y036750
X111750Y035750
M30
