G04 Layer: BoardOutlineLayer*
G04 EasyEDA v6.5.34, 2023-09-07 22:36:22*
G04 6936e88fb932453b8581c8861ee1522a,0b3e81c085af431c91bff7fd5324728f,10*
G04 Gerber Generator version 0.2*
G04 Scale: 100 percent, Rotated: No, Reflected: No *
G04 Dimensions in millimeters *
G04 leading zeros omitted , absolute positions ,4 integer and 5 decimal *
%FSLAX45Y45*%
%MOMM*%

%ADD10C,0.2499*%
D10*
X0Y8974980D02*
G01*
X0Y1024996D01*
X4829332Y3099993D02*
G01*
X6793956Y3099993D01*
X19249961Y299999D02*
G01*
X19249961Y9699980D01*
X12647030Y330540D02*
G01*
X13091647Y2852089D01*
X8161723Y0D02*
G01*
X12253109Y0D01*
X13387090Y3099993D02*
G01*
X16949966Y3099993D01*
X3702987Y6249987D02*
G01*
X2299995Y6249987D01*
X1999995Y6549986D02*
G01*
X1999995Y8974980D01*
X2299995Y3749992D02*
G01*
X3702987Y3749992D01*
X7083732Y2877639D02*
G01*
X7775354Y296471D01*
X7775354Y9703508D02*
G01*
X7083732Y7122340D01*
X13091647Y7147890D02*
G01*
X12647030Y9669439D01*
X16949966Y6899986D02*
G01*
X13387090Y6899986D01*
X12646032Y5014701D02*
G01*
X12649974Y4999989D01*
X17249965Y9699980D02*
G01*
X17249965Y7199985D01*
X18949962Y9999979D02*
G01*
X17549964Y9999979D01*
X17549964Y0D02*
G01*
X18949962Y0D01*
X17249965Y2799994D02*
G01*
X17249965Y299999D01*
X3878633Y3693195D02*
G01*
X4595136Y3175721D01*
X1999995Y1024996D02*
G01*
X1999995Y3449993D01*
X299999Y724997D02*
G01*
X1699996Y724997D01*
X1699996Y9274980D02*
G01*
X299999Y9274980D01*
X4595136Y6824258D02*
G01*
X3878633Y6306784D01*
X6793956Y6899986D02*
G01*
X4829332Y6899986D01*
X12253109Y9999979D02*
G01*
X8161723Y9999979D01*
G75*
G01*
X13387090Y6899986D02*
G02*
X13091648Y7147890I-1J300000D01*
G75*
G01*
X12647031Y9669440D02*
G03*
X12253110Y9999980I-393923J-69459D01*
G75*
G01*
X8161724Y9999980D02*
G03*
X7775354Y9703509I-1J-399999D01*
G75*
G01*
X4829332Y6899986D02*
G03*
X4595137Y6824259I0J-399999D01*
G75*
G01*
X3878633Y6306784D02*
G02*
X3702987Y6249988I-175648J243203D01*
G75*
G01*
X2299995Y6249988D02*
G02*
X1999996Y6549987I0J299999D01*
G75*
G01*
X1999996Y8974981D02*
G03*
X1699997Y9274980I-299999J0D01*
G75*
G01*
X299999Y9274980D02*
G03*
X0Y8974981I0J-299999D01*
G75*
G01*
X0Y1024997D02*
G03*
X299999Y724997I299999J0D01*
G75*
G01*
X1699997Y724997D02*
G03*
X1999996Y1024997I0J300000D01*
G75*
G01*
X1999996Y3449993D02*
G02*
X2299995Y3749992I299999J0D01*
G75*
G01*
X3702987Y3749992D02*
G02*
X3878633Y3693196I-2J-299999D01*
G75*
G01*
X4595137Y3175721D02*
G03*
X4829332Y3099994I234195J324272D01*
G75*
G01*
X7775354Y296471D02*
G03*
X8161724Y0I386369J103528D01*
G75*
G01*
X12253110Y0D02*
G03*
X12647031Y330540I-2J399999D01*
G75*
G01*
X16949966Y3099994D02*
G02*
X17249965Y2799994I0J-300000D01*
G75*
G01*
X17249965Y299999D02*
G03*
X17549965Y0I300000J0D01*
G75*
G01*
X18949962Y0D02*
G03*
X19249962Y299999I0J299999D01*
G75*
G01*
X19249962Y9699981D02*
G03*
X18949962Y9999980I-300000J0D01*
G75*
G01*
X17549965Y9999980D02*
G03*
X17249965Y9699981I0J-299999D01*
G75*
G01*
X17249965Y7199986D02*
G02*
X16949966Y6899986I-299999J0D01*
G75*
G01*
X13091648Y2852090D02*
G02*
X13387090Y3099994I295441J-52096D01*
G75*
G01*
X7083732Y7122340D02*
G02*
X6793956Y6899986I-289777J77646D01*
G75*
G01*
X6793956Y3099994D02*
G02*
X7083732Y2877640I-1J-300000D01*

%LPD*%
M02*
