G04 Layer: BottomSolderMaskLayer*
G04 EasyEDA v6.5.34, 2023-09-07 22:36:22*
G04 6936e88fb932453b8581c8861ee1522a,0b3e81c085af431c91bff7fd5324728f,10*
G04 Gerber Generator version 0.2*
G04 Scale: 100 percent, Rotated: No, Reflected: No *
G04 Dimensions in millimeters *
G04 leading zeros omitted , absolute positions ,4 integer and 5 decimal *
%FSLAX45Y45*%
%MOMM*%

%AMMACRO1*1,1,$1,$2,$3*1,1,$1,$4,$5*1,1,$1,0-$2,0-$3*1,1,$1,0-$4,0-$5*20,1,$1,$2,$3,$4,$5,0*20,1,$1,$4,$5,0-$2,0-$3,0*20,1,$1,0-$2,0-$3,0-$4,0-$5,0*20,1,$1,0-$4,0-$5,$2,$3,0*4,1,4,$2,$3,$4,$5,0-$2,0-$3,0-$4,0-$5,$2,$3,0*%
%AMMACRO2*4,1,4,-0.9512,-0.7252,-0.9512,0.7252,0.9512,0.7252,0.9512,-0.7252,-0.9512,-0.7252,0*%
%AMMACRO3*4,1,4,-2.2504,-2.601,-2.2504,2.601,2.2504,2.601,2.2504,-2.601,-2.2504,-2.601,0*%
%ADD10C,0.7000*%
%ADD11MACRO1,0.1016X-1X1X1X1*%
%ADD12MACRO1,0.1016X-0.7425X0.864X-0.7425X-0.864*%
%ADD13MACRO1,0.1016X0.7425X0.864X0.7425X-0.864*%
%ADD14MACRO1,0.1016X0.864X0.7425X-0.864X0.7425*%
%ADD15MACRO1,0.1016X0.864X-0.7425X-0.864X-0.7425*%
%ADD16MACRO1,0.1016X0.6038X-0.8505X0.6038X0.8505*%
%ADD17MACRO1,0.1016X-0.6038X-0.8505X-0.6038X0.8505*%
%ADD18MACRO1,0.1016X-0.6038X0.8505X-0.6038X-0.8505*%
%ADD19MACRO1,0.1016X0.6038X0.8505X0.6038X-0.8505*%
%ADD20MACRO1,0.1016X-0.8505X-0.6038X0.8505X-0.6038*%
%ADD21MACRO1,0.1016X-0.8505X0.6038X0.8505X0.6038*%
%ADD22MACRO1,0.1016X0.8505X0.6038X-0.8505X0.6038*%
%ADD23MACRO1,0.1016X0.8505X-0.6038X-0.8505X-0.6038*%
%ADD24MACRO1,0.1016X0.65X0.5999X-0.65X0.5999*%
%ADD25MACRO1,0.1016X-0.35X0.625X-0.35X-0.625*%
%ADD26MACRO2*%
%ADD27MACRO1,0.1016X0.675X0.325X-0.675X0.325*%
%ADD28MACRO3*%
%ADD29MACRO1,0.1016X-0.675X-0.325X0.675X-0.325*%
%ADD30O,0.542544X1.9968718000000003*%
%ADD31O,1.9968718000000003X0.542544*%
%ADD32C,2.4032*%
%ADD33MACRO1,0.1016X-0.7874X0.7874X0.7874X0.7874*%
%ADD34C,1.6764*%
%ADD35R,1.6764X1.6764*%
%ADD36MACRO1,0.1016X0.7874X0.7874X0.7874X-0.7874*%
%ADD37MACRO1,0.1016X0.7874X-0.7874X-0.7874X-0.7874*%
%ADD38O,1.6764000000000001X3.101594*%
%ADD39O,4.101592X1.9015964*%
%ADD40O,1.6256000000000002X3.101594*%
%ADD41C,1.9016*%
%ADD42O,1.609598X3.101594*%
%ADD43O,3.101594X1.609598*%
%ADD44O,1.8796000000000002X3.6576*%
%ADD45C,3.5016*%
%ADD46MACRO1,0.1016X1.7X-1.7X-1.7X-1.7*%
%ADD47O,3.101594X1.6764000000000001*%
%ADD48O,1.778X3.2031940000000003*%
%ADD49O,0.015X3.2031940000000003*%

%LPD*%
D10*
X11974977Y9728616D02*
G01*
X11974977Y9346798D01*
X11974977Y9728616D02*
G01*
X11829524Y9346798D01*
X11684068Y9728616D02*
G01*
X11829524Y9346798D01*
X11684068Y9728616D02*
G01*
X11684068Y9346798D01*
X11345887Y9601342D02*
G01*
X11345887Y9346798D01*
X11345887Y9546798D02*
G01*
X11382250Y9583160D01*
X11418615Y9601342D01*
X11473159Y9601342D01*
X11509524Y9583160D01*
X11545887Y9546798D01*
X11564068Y9492251D01*
X11564068Y9455889D01*
X11545887Y9401342D01*
X11509524Y9364979D01*
X11473159Y9346798D01*
X11418615Y9346798D01*
X11382250Y9364979D01*
X11345887Y9401342D01*
X11007707Y9728616D02*
G01*
X11007707Y9346798D01*
X11007707Y9546798D02*
G01*
X11044069Y9583160D01*
X11080432Y9601342D01*
X11134979Y9601342D01*
X11171341Y9583160D01*
X11207706Y9546798D01*
X11225888Y9492251D01*
X11225888Y9455889D01*
X11207706Y9401342D01*
X11171341Y9364979D01*
X11134979Y9346798D01*
X11080432Y9346798D01*
X11044069Y9364979D01*
X11007707Y9401342D01*
X10887707Y9492251D02*
G01*
X10669526Y9492251D01*
X10669526Y9528616D01*
X10687707Y9564979D01*
X10705889Y9583160D01*
X10742251Y9601342D01*
X10796798Y9601342D01*
X10833160Y9583160D01*
X10869526Y9546798D01*
X10887707Y9492251D01*
X10887707Y9455889D01*
X10869526Y9401342D01*
X10833160Y9364979D01*
X10796798Y9346798D01*
X10742251Y9346798D01*
X10705889Y9364979D01*
X10669526Y9401342D01*
X10269527Y9728616D02*
G01*
X10251343Y9710432D01*
X10233162Y9728616D01*
X10251343Y9746797D01*
X10269527Y9728616D01*
X10251343Y9601342D02*
G01*
X10251343Y9346798D01*
X10113162Y9601342D02*
G01*
X10113162Y9346798D01*
X10113162Y9528616D02*
G01*
X10058618Y9583160D01*
X10022253Y9601342D01*
X9967709Y9601342D01*
X9931344Y9583160D01*
X9913162Y9528616D01*
X9913162Y9346798D01*
X9513163Y9728616D02*
G01*
X9513163Y9346798D01*
X9393163Y9728616D02*
G01*
X9393163Y9346798D01*
X9393163Y9546798D02*
G01*
X9356801Y9583160D01*
X9320436Y9601342D01*
X9265892Y9601342D01*
X9229529Y9583160D01*
X9193164Y9546798D01*
X9174982Y9492251D01*
X9174982Y9455889D01*
X9193164Y9401342D01*
X9229529Y9364979D01*
X9265892Y9346798D01*
X9320436Y9346798D01*
X9356801Y9364979D01*
X9393163Y9401342D01*
X9054983Y9728616D02*
G01*
X9036801Y9710432D01*
X9018620Y9728616D01*
X9036801Y9746797D01*
X9054983Y9728616D01*
X9036801Y9601342D02*
G01*
X9036801Y9346798D01*
X8698621Y9601342D02*
G01*
X8898620Y9346798D01*
X8898620Y9601342D02*
G01*
X8698621Y9601342D01*
X8898620Y9346798D02*
G01*
X8698621Y9346798D01*
X8360437Y9601342D02*
G01*
X8360437Y9346798D01*
X8360437Y9546798D02*
G01*
X8396803Y9583160D01*
X8433165Y9601342D01*
X8487712Y9601342D01*
X8524074Y9583160D01*
X8560437Y9546798D01*
X8578621Y9492251D01*
X8578621Y9455889D01*
X8560437Y9401342D01*
X8524074Y9364979D01*
X8487712Y9346798D01*
X8433165Y9346798D01*
X8396803Y9364979D01*
X8360437Y9401342D01*
D11*
G01*
X8174984Y6099987D03*
G01*
X8174984Y6399987D03*
G01*
X11374958Y6150096D03*
G01*
X11124979Y5274988D03*
G01*
X16599966Y6174986D03*
G01*
X17028119Y5424977D03*
D12*
G01*
X11959150Y1800092D03*
D13*
G01*
X11640649Y1800092D03*
D12*
G01*
X9084124Y5424926D03*
D13*
G01*
X8765623Y5424926D03*
D14*
G01*
X10000056Y6115814D03*
D15*
G01*
X10000056Y6434315D03*
D12*
G01*
X11709214Y5424926D03*
D13*
G01*
X11390713Y5424926D03*
D12*
G01*
X11709214Y4525004D03*
D13*
G01*
X11390713Y4525004D03*
D16*
G01*
X652045Y2199888D03*
D17*
G01*
X947798Y2199888D03*
D16*
G01*
X652045Y8050016D03*
D17*
G01*
X947798Y8050016D03*
D18*
G01*
X18597750Y750056D03*
D19*
G01*
X18301997Y750056D03*
D18*
G01*
X18597750Y9249912D03*
D19*
G01*
X18301997Y9249912D03*
D20*
G01*
X10499928Y6422941D03*
D21*
G01*
X10499928Y6127188D03*
D22*
G01*
X15749854Y6127188D03*
D23*
G01*
X15749854Y6422941D03*
D18*
G01*
X18322841Y1849996D03*
D19*
G01*
X18027088Y1849996D03*
D22*
G01*
X6274892Y3452060D03*
D23*
G01*
X6274892Y3747813D03*
D24*
G01*
X8384992Y4915001D03*
G01*
X8164977Y4915001D03*
G01*
X8164977Y5084978D03*
G01*
X8384992Y5084978D03*
G01*
X11609984Y4915001D03*
G01*
X11389969Y4915001D03*
G01*
X11389969Y5084978D03*
G01*
X11609984Y5084978D03*
D25*
G01*
X5644984Y3274992D03*
G01*
X5454994Y3274992D03*
G01*
X5549990Y3474991D03*
D24*
G01*
X16684975Y4915001D03*
G01*
X16464960Y4915001D03*
G01*
X16464960Y5084978D03*
G01*
X16684975Y5084978D03*
D26*
G01*
X11649913Y502533D03*
D27*
G01*
X12147486Y1074983D03*
D28*
G01*
X11650040Y824986D03*
D26*
G01*
X11649913Y1147439D03*
D27*
G01*
X12147486Y975009D03*
G01*
X12147486Y875009D03*
G01*
X12147486Y774984D03*
G01*
X12147486Y674984D03*
G01*
X12147486Y575010D03*
D29*
G01*
X11152466Y575010D03*
G01*
X11152466Y674984D03*
G01*
X11152466Y774984D03*
G01*
X11152466Y875009D03*
G01*
X11152466Y975009D03*
G01*
X11152466Y1074983D03*
D12*
G01*
X5509239Y5399989D03*
D13*
G01*
X5190738Y5399989D03*
D14*
G01*
X6449987Y6115735D03*
D15*
G01*
X6449987Y6434236D03*
D12*
G01*
X8484235Y5424987D03*
D13*
G01*
X8165734Y5424987D03*
D12*
G01*
X8484235Y4524989D03*
D13*
G01*
X8165734Y4524989D03*
D18*
G01*
X8472860Y5824987D03*
D19*
G01*
X8177108Y5824987D03*
D22*
G01*
X6024989Y3452116D03*
D23*
G01*
X6024989Y3747869D03*
D30*
G01*
X6031306Y5585124D03*
G01*
X6110046Y5585124D03*
G01*
X6188786Y5585124D03*
G01*
X6267526Y5585124D03*
G01*
X6346266Y5585124D03*
G01*
X6425006Y5585124D03*
G01*
X6503746Y5585124D03*
G01*
X6582486Y5585124D03*
G01*
X6661226Y5585124D03*
G01*
X6739966Y5585124D03*
G01*
X6818706Y5585124D03*
D31*
G01*
X7010145Y5393684D03*
G01*
X7010145Y5314944D03*
G01*
X7010145Y5236204D03*
G01*
X7010145Y5157464D03*
G01*
X7010145Y5078724D03*
G01*
X7010145Y4999984D03*
G01*
X7010145Y4921244D03*
G01*
X7010145Y4842504D03*
G01*
X7010145Y4763764D03*
G01*
X7010145Y4685024D03*
G01*
X7010145Y4606284D03*
D30*
G01*
X6818706Y4414845D03*
G01*
X6739966Y4414845D03*
G01*
X6661226Y4414845D03*
G01*
X6582486Y4414845D03*
G01*
X6503746Y4414845D03*
G01*
X6425006Y4414845D03*
G01*
X6346266Y4414845D03*
G01*
X6267526Y4414845D03*
G01*
X6188786Y4414845D03*
G01*
X6110046Y4414845D03*
G01*
X6031306Y4414845D03*
D31*
G01*
X5839866Y4606284D03*
G01*
X5839866Y4685024D03*
G01*
X5839866Y4763764D03*
G01*
X5839866Y4842504D03*
G01*
X5839866Y4921244D03*
G01*
X5839866Y4999984D03*
G01*
X5839866Y5078724D03*
G01*
X5839866Y5157464D03*
G01*
X5839866Y5236204D03*
G01*
X5839866Y5314944D03*
G01*
X5839866Y5393684D03*
D12*
G01*
X13959222Y5424987D03*
D13*
G01*
X13640722Y5424987D03*
D14*
G01*
X15399969Y6115735D03*
D15*
G01*
X15399969Y6434236D03*
D12*
G01*
X16784218Y5424987D03*
D13*
G01*
X16465717Y5424987D03*
D12*
G01*
X16784218Y4549990D03*
D13*
G01*
X16465717Y4549990D03*
D18*
G01*
X16597843Y5824987D03*
D19*
G01*
X16302090Y5824987D03*
D22*
G01*
X14599970Y3827114D03*
D23*
G01*
X14599970Y4122867D03*
D20*
G01*
X15999968Y6422862D03*
D21*
G01*
X15999968Y6127109D03*
D30*
G01*
X14531289Y5585124D03*
G01*
X14610029Y5585124D03*
G01*
X14688769Y5585124D03*
G01*
X14767509Y5585124D03*
G01*
X14846249Y5585124D03*
G01*
X14924989Y5585124D03*
G01*
X15003729Y5585124D03*
G01*
X15082469Y5585124D03*
G01*
X15161209Y5585124D03*
G01*
X15239949Y5585124D03*
G01*
X15318689Y5585124D03*
D31*
G01*
X15510129Y5393684D03*
G01*
X15510129Y5314944D03*
G01*
X15510129Y5236204D03*
G01*
X15510129Y5157464D03*
G01*
X15510129Y5078724D03*
G01*
X15510129Y4999984D03*
G01*
X15510129Y4921244D03*
G01*
X15510129Y4842504D03*
G01*
X15510129Y4763764D03*
G01*
X15510129Y4685024D03*
G01*
X15510129Y4606284D03*
D30*
G01*
X15318689Y4414845D03*
G01*
X15239949Y4414845D03*
G01*
X15161209Y4414845D03*
G01*
X15082469Y4414845D03*
G01*
X15003729Y4414845D03*
G01*
X14924989Y4414845D03*
G01*
X14846249Y4414845D03*
G01*
X14767509Y4414845D03*
G01*
X14688769Y4414845D03*
G01*
X14610029Y4414845D03*
G01*
X14531289Y4414845D03*
D31*
G01*
X14339849Y4606284D03*
G01*
X14339849Y4685024D03*
G01*
X14339849Y4763764D03*
G01*
X14339849Y4842504D03*
G01*
X14339849Y4921244D03*
G01*
X14339849Y4999984D03*
G01*
X14339849Y5078724D03*
G01*
X14339849Y5157464D03*
G01*
X14339849Y5236204D03*
G01*
X14339849Y5314944D03*
G01*
X14339849Y5393684D03*
D18*
G01*
X11672851Y5824987D03*
D19*
G01*
X11377099Y5824987D03*
D16*
G01*
X9277106Y4074990D03*
D17*
G01*
X9572858Y4074990D03*
D20*
G01*
X11049977Y6422862D03*
D21*
G01*
X11049977Y6127109D03*
D30*
G01*
X9631299Y5585124D03*
G01*
X9710038Y5585124D03*
G01*
X9788779Y5585124D03*
G01*
X9867518Y5585124D03*
G01*
X9946259Y5585124D03*
G01*
X10024999Y5585124D03*
G01*
X10103738Y5585124D03*
G01*
X10182479Y5585124D03*
G01*
X10261218Y5585124D03*
G01*
X10339959Y5585124D03*
G01*
X10418699Y5585124D03*
D31*
G01*
X10610138Y5393684D03*
G01*
X10610138Y5314944D03*
G01*
X10610138Y5236204D03*
G01*
X10610138Y5157464D03*
G01*
X10610138Y5078724D03*
G01*
X10610138Y4999984D03*
G01*
X10610138Y4921244D03*
G01*
X10610138Y4842504D03*
G01*
X10610138Y4763764D03*
G01*
X10610138Y4685024D03*
G01*
X10610138Y4606284D03*
D30*
G01*
X10418699Y4414845D03*
G01*
X10339959Y4414845D03*
G01*
X10261218Y4414845D03*
G01*
X10182479Y4414845D03*
G01*
X10103738Y4414845D03*
G01*
X10024999Y4414845D03*
G01*
X9946259Y4414845D03*
G01*
X9867518Y4414845D03*
G01*
X9788779Y4414845D03*
G01*
X9710038Y4414845D03*
G01*
X9631299Y4414845D03*
D31*
G01*
X9439859Y4606284D03*
G01*
X9439859Y4685024D03*
G01*
X9439859Y4763764D03*
G01*
X9439859Y4842504D03*
G01*
X9439859Y4921244D03*
G01*
X9439859Y4999984D03*
G01*
X9439859Y5078724D03*
G01*
X9439859Y5157464D03*
G01*
X9439859Y5236204D03*
G01*
X9439859Y5314944D03*
G01*
X9439859Y5393684D03*
D32*
G01*
X10428965Y624961D03*
G01*
X9920965Y624961D03*
D33*
G01*
X13293928Y6625076D03*
D34*
G01*
X13547928Y6625076D03*
G01*
X13801928Y6625076D03*
G01*
X14055928Y6625076D03*
D35*
G01*
X17300016Y4618984D03*
D34*
G01*
X17300016Y4872984D03*
G01*
X17300016Y5126984D03*
G01*
X17300016Y5380984D03*
D36*
G01*
X350088Y2455920D03*
D34*
G01*
X350088Y2201920D03*
G01*
X350088Y1947920D03*
G01*
X350088Y1693920D03*
D36*
G01*
X350088Y8306048D03*
D34*
G01*
X350088Y8052048D03*
G01*
X350088Y7798048D03*
G01*
X350088Y7544048D03*
D33*
G01*
X1796110Y4024878D03*
D34*
G01*
X2050110Y4024878D03*
G01*
X2304110Y4024878D03*
D37*
G01*
X8578926Y8174984D03*
D34*
G01*
X8324926Y8174984D03*
G01*
X8070926Y8174984D03*
D38*
G01*
X2598013Y4037680D03*
G01*
X2852013Y4037680D03*
G01*
X17597958Y1200017D03*
G01*
X17851958Y1200017D03*
D39*
G01*
X18774968Y1574998D03*
G01*
X18774968Y2082998D03*
G01*
X18774968Y2590998D03*
D40*
G01*
X9324975Y1799991D03*
G01*
X9070975Y1799991D03*
G01*
X8816975Y1799991D03*
G01*
X8562975Y1799991D03*
G01*
X8308975Y1799991D03*
G01*
X8054975Y1799991D03*
D41*
G01*
X18925006Y8075112D03*
G01*
X18474918Y8075112D03*
G01*
X18925006Y7424872D03*
G01*
X18474918Y7424872D03*
D38*
G01*
X11168989Y8174984D03*
G01*
X11423015Y8174959D03*
G01*
X11677015Y8174959D03*
G01*
X11931015Y8174959D03*
D42*
G01*
X9799954Y1799991D03*
G01*
X10053954Y1799991D03*
G01*
X10307954Y1799991D03*
G01*
X10561954Y1799991D03*
D43*
G01*
X1799996Y5361985D03*
G01*
X1799996Y5107985D03*
G01*
X1799996Y4853985D03*
G01*
X1799996Y4599985D03*
D42*
G01*
X10561980Y8199978D03*
G01*
X10307980Y8199978D03*
G01*
X10053980Y8199978D03*
G01*
X9799980Y8199978D03*
D38*
G01*
X12626975Y1800016D03*
G01*
X12372975Y1799991D03*
D44*
G01*
X10098379Y2766588D03*
G01*
X10352379Y2766588D03*
G01*
X9844379Y2766588D03*
G01*
X9590379Y2766588D03*
G01*
X9336379Y2766588D03*
G01*
X10606379Y2766588D03*
G01*
X10860379Y2766588D03*
G01*
X11114379Y2766588D03*
D45*
G01*
X7585075Y4484085D03*
D46*
G01*
X7585075Y2261590D03*
G01*
X12284075Y2261590D03*
G01*
X12284075Y4484090D03*
D47*
G01*
X18899962Y496006D03*
G01*
X18899962Y750006D03*
G01*
X18899962Y1004006D03*
G01*
X18899962Y8995989D03*
G01*
X18899962Y9249989D03*
G01*
X18899962Y9503989D03*
D48*
G01*
X238074Y999992D03*
D38*
G01*
X1762074Y999992D03*
G01*
X492074Y999992D03*
G01*
X746074Y999992D03*
G01*
X1000074Y999992D03*
G01*
X1254074Y999992D03*
G01*
X1508074Y999992D03*
D48*
G01*
X1762074Y8999976D03*
D38*
G01*
X238074Y8999976D03*
G01*
X1508074Y8999976D03*
G01*
X1254074Y8999976D03*
G01*
X1000074Y8999976D03*
G01*
X746074Y8999976D03*
G01*
X492074Y8999976D03*
M02*
