G04 Layer: TopSilkscreenLayer*
G04 EasyEDA v6.5.34, 2023-09-07 22:36:22*
G04 6936e88fb932453b8581c8861ee1522a,0b3e81c085af431c91bff7fd5324728f,10*
G04 Gerber Generator version 0.2*
G04 Scale: 100 percent, Rotated: No, Reflected: No *
G04 Dimensions in millimeters *
G04 leading zeros omitted , absolute positions ,4 integer and 5 decimal *
%FSLAX45Y45*%
%MOMM*%

%ADD10C,0.1524*%
%ADD11C,0.1016*%
%ADD12C,0.2032*%
%ADD13C,0.5080*%
%ADD14C,0.2540*%
%ADD15C,0.2030*%
%ADD16C,0.2000*%
%ADD17C,0.1270*%
%ADD18C,0.0107*%

%LPD*%
D10*
X10119537Y-89667D02*
G01*
X10124617Y-100081D01*
X10135031Y-110495D01*
X10145445Y-115829D01*
X10166273Y-115829D01*
X10176687Y-110495D01*
X10187101Y-100081D01*
X10192181Y-89667D01*
X10197515Y-74173D01*
X10197515Y-48265D01*
X10192181Y-32517D01*
X10187101Y-22103D01*
X10176687Y-11689D01*
X10166273Y-6609D01*
X10145445Y-6609D01*
X10135031Y-11689D01*
X10124617Y-22103D01*
X10119537Y-32517D01*
X10017683Y-79253D02*
G01*
X10023017Y-63759D01*
X10033177Y-53345D01*
X10048925Y-48265D01*
X10054005Y-48265D01*
X10069753Y-53345D01*
X10080167Y-63759D01*
X10085247Y-79253D01*
X10085247Y-84587D01*
X10080167Y-100081D01*
X10069753Y-110495D01*
X10054005Y-115829D01*
X10048925Y-115829D01*
X10033177Y-110495D01*
X10023017Y-100081D01*
X10017683Y-79253D01*
X10017683Y-53345D01*
X10023017Y-27437D01*
X10033177Y-11689D01*
X10048925Y-6609D01*
X10059339Y-6609D01*
X10074833Y-11689D01*
X10080167Y-22103D01*
X13649528Y6892792D02*
G01*
X13649528Y6783572D01*
X13722172Y6892792D02*
G01*
X13722172Y6783572D01*
X13649528Y6840722D02*
G01*
X13722172Y6840722D01*
X13756462Y6871964D02*
G01*
X13766876Y6877044D01*
X13782624Y6892792D01*
X13782624Y6783572D01*
X17032249Y4974534D02*
G01*
X17141469Y4974534D01*
X17032249Y5047178D02*
G01*
X17141469Y5047178D01*
X17084319Y4974534D02*
G01*
X17084319Y5047178D01*
X17058157Y5086802D02*
G01*
X17053077Y5086802D01*
X17042663Y5091882D01*
X17037583Y5097216D01*
X17032249Y5107630D01*
X17032249Y5128204D01*
X17037583Y5138618D01*
X17042663Y5143952D01*
X17053077Y5149032D01*
X17063491Y5149032D01*
X17073905Y5143952D01*
X17089399Y5133538D01*
X17141469Y5081468D01*
X17141469Y5154366D01*
X617651Y2100320D02*
G01*
X508685Y2100320D01*
X617651Y2027676D02*
G01*
X508685Y2027676D01*
X565835Y2100320D02*
G01*
X565835Y2027676D01*
X617651Y1941316D02*
G01*
X545007Y1993386D01*
X545007Y1915408D01*
X617651Y1941316D02*
G01*
X508685Y1941316D01*
X617804Y7950296D02*
G01*
X508584Y7950296D01*
X617804Y7877652D02*
G01*
X508584Y7877652D01*
X565734Y7950296D02*
G01*
X565734Y7877652D01*
X617804Y7780878D02*
G01*
X617804Y7832948D01*
X571068Y7838028D01*
X576148Y7832948D01*
X581482Y7817454D01*
X581482Y7801706D01*
X576148Y7786212D01*
X565734Y7775798D01*
X550240Y7770718D01*
X539826Y7770718D01*
X524332Y7775798D01*
X513918Y7786212D01*
X508584Y7801706D01*
X508584Y7817454D01*
X513918Y7832948D01*
X518998Y7838028D01*
X529412Y7843362D01*
X2024710Y4292594D02*
G01*
X2024710Y4183628D01*
X2024710Y4292594D02*
G01*
X2066112Y4183628D01*
X2107768Y4292594D02*
G01*
X2066112Y4183628D01*
X2107768Y4292594D02*
G01*
X2107768Y4183628D01*
X2142058Y4272020D02*
G01*
X2152472Y4277100D01*
X2167966Y4292594D01*
X2167966Y4183628D01*
X8350326Y7907319D02*
G01*
X8350326Y8016285D01*
X8350326Y7907319D02*
G01*
X8308924Y8016285D01*
X8267268Y7907319D02*
G01*
X8308924Y8016285D01*
X8267268Y7907319D02*
G01*
X8267268Y8016285D01*
X8227898Y7933227D02*
G01*
X8227898Y7928147D01*
X8222564Y7917733D01*
X8217484Y7912399D01*
X8207070Y7907319D01*
X8186242Y7907319D01*
X8175828Y7912399D01*
X8170748Y7917733D01*
X8165414Y7928147D01*
X8165414Y7938561D01*
X8170748Y7948721D01*
X8181162Y7964469D01*
X8232978Y8016285D01*
X8160334Y8016285D01*
X6914972Y3734556D02*
G01*
X6914972Y3625336D01*
X6914972Y3625336D02*
G01*
X6977456Y3625336D01*
X7011746Y3734556D02*
G01*
X7011746Y3625336D01*
X7011746Y3734556D02*
G01*
X7079310Y3734556D01*
X7011746Y3682486D02*
G01*
X7053148Y3682486D01*
X7011746Y3625336D02*
G01*
X7079310Y3625336D01*
X7113600Y3734556D02*
G01*
X7113600Y3625336D01*
X7113600Y3734556D02*
G01*
X7149922Y3734556D01*
X7165416Y3729222D01*
X7175830Y3719062D01*
X7180910Y3708648D01*
X7186244Y3692900D01*
X7186244Y3666992D01*
X7180910Y3651498D01*
X7175830Y3641084D01*
X7165416Y3630670D01*
X7149922Y3625336D01*
X7113600Y3625336D01*
X7220534Y3713728D02*
G01*
X7230948Y3719062D01*
X7246442Y3734556D01*
X7246442Y3625336D01*
X2714962Y4984559D02*
G01*
X2714962Y4875339D01*
X2714962Y4875339D02*
G01*
X2777446Y4875339D01*
X2811736Y4984559D02*
G01*
X2811736Y4875339D01*
X2811736Y4984559D02*
G01*
X2879300Y4984559D01*
X2811736Y4932489D02*
G01*
X2853138Y4932489D01*
X2811736Y4875339D02*
G01*
X2879300Y4875339D01*
X2913590Y4984559D02*
G01*
X2913590Y4875339D01*
X2913590Y4984559D02*
G01*
X2949912Y4984559D01*
X2965406Y4979225D01*
X2975820Y4968811D01*
X2981154Y4958397D01*
X2986234Y4942903D01*
X2986234Y4916995D01*
X2981154Y4901247D01*
X2975820Y4891087D01*
X2965406Y4880673D01*
X2949912Y4875339D01*
X2913590Y4875339D01*
X3025604Y4958397D02*
G01*
X3025604Y4963731D01*
X3030938Y4974145D01*
X3036018Y4979225D01*
X3046432Y4984559D01*
X3067260Y4984559D01*
X3077674Y4979225D01*
X3082754Y4974145D01*
X3088088Y4963731D01*
X3088088Y4953317D01*
X3082754Y4942903D01*
X3072594Y4927409D01*
X3020524Y4875339D01*
X3093168Y4875339D01*
X13015252Y3790213D02*
G01*
X13124472Y3790213D01*
X13124472Y3790213D02*
G01*
X13124472Y3852443D01*
X13015252Y3886733D02*
G01*
X13124472Y3886733D01*
X13015252Y3886733D02*
G01*
X13015252Y3954297D01*
X13067322Y3886733D02*
G01*
X13067322Y3928389D01*
X13124472Y3886733D02*
G01*
X13124472Y3954297D01*
X13015252Y3988587D02*
G01*
X13124472Y3988587D01*
X13015252Y3988587D02*
G01*
X13015252Y4024909D01*
X13020586Y4040657D01*
X13031000Y4051071D01*
X13041160Y4056151D01*
X13056908Y4061231D01*
X13082816Y4061231D01*
X13098310Y4056151D01*
X13108724Y4051071D01*
X13119138Y4040657D01*
X13124472Y4024909D01*
X13124472Y3988587D01*
X13015252Y4105935D02*
G01*
X13015252Y4163085D01*
X13056908Y4132097D01*
X13056908Y4147591D01*
X13061988Y4158005D01*
X13067322Y4163085D01*
X13082816Y4168419D01*
X13093230Y4168419D01*
X13108724Y4163085D01*
X13119138Y4152671D01*
X13124472Y4137177D01*
X13124472Y4121683D01*
X13119138Y4105935D01*
X13114058Y4100855D01*
X13103644Y4095521D01*
X17865427Y2289995D02*
G01*
X17974647Y2289995D01*
X17974647Y2289995D02*
G01*
X17974647Y2352479D01*
X17865427Y2386769D02*
G01*
X17974647Y2386769D01*
X17865427Y2386769D02*
G01*
X17865427Y2454333D01*
X17917497Y2386769D02*
G01*
X17917497Y2428171D01*
X17974647Y2386769D02*
G01*
X17974647Y2454333D01*
X17865427Y2488623D02*
G01*
X17974647Y2488623D01*
X17865427Y2488623D02*
G01*
X17865427Y2524945D01*
X17870507Y2540439D01*
X17880921Y2550853D01*
X17891335Y2555933D01*
X17907083Y2561267D01*
X17932991Y2561267D01*
X17948485Y2555933D01*
X17958899Y2550853D01*
X17969313Y2540439D01*
X17974647Y2524945D01*
X17974647Y2488623D01*
X17865427Y2657787D02*
G01*
X17865427Y2605971D01*
X17912163Y2600637D01*
X17907083Y2605971D01*
X17901749Y2621465D01*
X17901749Y2637213D01*
X17907083Y2652707D01*
X17917497Y2663121D01*
X17932991Y2668201D01*
X17943405Y2668201D01*
X17958899Y2663121D01*
X17969313Y2652707D01*
X17974647Y2637213D01*
X17974647Y2621465D01*
X17969313Y2605971D01*
X17964233Y2600637D01*
X17953819Y2595557D01*
X8540351Y4765055D02*
G01*
X8649571Y4765055D01*
X8649571Y4765055D02*
G01*
X8649571Y4827539D01*
X8540351Y4861829D02*
G01*
X8649571Y4861829D01*
X8540351Y4861829D02*
G01*
X8540351Y4929393D01*
X8592421Y4861829D02*
G01*
X8592421Y4903231D01*
X8649571Y4861829D02*
G01*
X8649571Y4929393D01*
X8540351Y4963683D02*
G01*
X8649571Y4963683D01*
X8540351Y4963683D02*
G01*
X8540351Y5000005D01*
X8545685Y5015499D01*
X8556099Y5025913D01*
X8566513Y5030993D01*
X8582007Y5036327D01*
X8607915Y5036327D01*
X8623663Y5030993D01*
X8634077Y5025913D01*
X8644237Y5015499D01*
X8649571Y5000005D01*
X8649571Y4963683D01*
X8540351Y5122433D02*
G01*
X8613249Y5070617D01*
X8613249Y5148595D01*
X8540351Y5122433D02*
G01*
X8649571Y5122433D01*
X2825071Y3759814D02*
G01*
X2825071Y3837538D01*
X2819737Y3853286D01*
X2809323Y3863700D01*
X2793829Y3868780D01*
X2783415Y3868780D01*
X2767921Y3863700D01*
X2757507Y3853286D01*
X2752173Y3837538D01*
X2752173Y3759814D01*
X2712803Y3785722D02*
G01*
X2712803Y3780388D01*
X2707469Y3769974D01*
X2702389Y3764894D01*
X2691975Y3759814D01*
X2671147Y3759814D01*
X2660733Y3764894D01*
X2655653Y3769974D01*
X2650319Y3780388D01*
X2650319Y3790802D01*
X2655653Y3801216D01*
X2666067Y3816964D01*
X2717883Y3868780D01*
X2645239Y3868780D01*
X17824963Y3307275D02*
G01*
X17824963Y3416495D01*
X17824963Y3307275D02*
G01*
X17778227Y3307275D01*
X17762733Y3312355D01*
X17757399Y3317689D01*
X17752319Y3328103D01*
X17752319Y3338517D01*
X17757399Y3348931D01*
X17762733Y3354011D01*
X17778227Y3359345D01*
X17824963Y3359345D01*
X17788641Y3359345D02*
G01*
X17752319Y3416495D01*
X17665959Y3307275D02*
G01*
X17718029Y3379919D01*
X17640051Y3379919D01*
X17665959Y3307275D02*
G01*
X17665959Y3416495D01*
X17824963Y3557275D02*
G01*
X17824963Y3666495D01*
X17824963Y3557275D02*
G01*
X17778227Y3557275D01*
X17762733Y3562355D01*
X17757399Y3567689D01*
X17752319Y3578103D01*
X17752319Y3588517D01*
X17757399Y3598931D01*
X17762733Y3604011D01*
X17778227Y3609345D01*
X17824963Y3609345D01*
X17788641Y3609345D02*
G01*
X17752319Y3666495D01*
X17692121Y3557275D02*
G01*
X17707615Y3562355D01*
X17712949Y3572769D01*
X17712949Y3583183D01*
X17707615Y3593597D01*
X17697201Y3598931D01*
X17676373Y3604011D01*
X17660879Y3609345D01*
X17650465Y3619505D01*
X17645385Y3629919D01*
X17645385Y3645667D01*
X17650465Y3656081D01*
X17655799Y3661161D01*
X17671293Y3666495D01*
X17692121Y3666495D01*
X17707615Y3661161D01*
X17712949Y3656081D01*
X17718029Y3645667D01*
X17718029Y3629919D01*
X17712949Y3619505D01*
X17702535Y3609345D01*
X17686787Y3604011D01*
X17665959Y3598931D01*
X17655799Y3593597D01*
X17650465Y3583183D01*
X17650465Y3572769D01*
X17655799Y3562355D01*
X17671293Y3557275D01*
X17692121Y3557275D01*
X17824963Y6332268D02*
G01*
X17824963Y6441488D01*
X17824963Y6332268D02*
G01*
X17778227Y6332268D01*
X17762733Y6337348D01*
X17757399Y6342682D01*
X17752319Y6353096D01*
X17752319Y6363510D01*
X17757399Y6373924D01*
X17762733Y6379004D01*
X17778227Y6384338D01*
X17824963Y6384338D01*
X17788641Y6384338D02*
G01*
X17752319Y6441488D01*
X17718029Y6353096D02*
G01*
X17707615Y6347762D01*
X17692121Y6332268D01*
X17692121Y6441488D01*
X17595347Y6332268D02*
G01*
X17647417Y6332268D01*
X17652497Y6379004D01*
X17647417Y6373924D01*
X17631669Y6368590D01*
X17616175Y6368590D01*
X17600681Y6373924D01*
X17590267Y6384338D01*
X17584933Y6399832D01*
X17584933Y6410246D01*
X17590267Y6425740D01*
X17600681Y6436154D01*
X17616175Y6441488D01*
X17631669Y6441488D01*
X17647417Y6436154D01*
X17652497Y6431074D01*
X17657831Y6420660D01*
X17824963Y6582267D02*
G01*
X17824963Y6691487D01*
X17824963Y6582267D02*
G01*
X17778227Y6582267D01*
X17762733Y6587347D01*
X17757399Y6592681D01*
X17752319Y6603095D01*
X17752319Y6613509D01*
X17757399Y6623923D01*
X17762733Y6629003D01*
X17778227Y6634337D01*
X17824963Y6634337D01*
X17788641Y6634337D02*
G01*
X17752319Y6691487D01*
X17718029Y6603095D02*
G01*
X17707615Y6597761D01*
X17692121Y6582267D01*
X17692121Y6691487D01*
X17595347Y6597761D02*
G01*
X17600681Y6587347D01*
X17616175Y6582267D01*
X17626589Y6582267D01*
X17642083Y6587347D01*
X17652497Y6603095D01*
X17657831Y6629003D01*
X17657831Y6654911D01*
X17652497Y6675739D01*
X17642083Y6686153D01*
X17626589Y6691487D01*
X17621255Y6691487D01*
X17605761Y6686153D01*
X17595347Y6675739D01*
X17590267Y6660245D01*
X17590267Y6654911D01*
X17595347Y6639417D01*
X17605761Y6629003D01*
X17621255Y6623923D01*
X17626589Y6623923D01*
X17642083Y6629003D01*
X17652497Y6639417D01*
X17657831Y6654911D01*
X2309652Y5275077D02*
G01*
X2418872Y5275077D01*
X2309652Y5275077D02*
G01*
X2309652Y5321813D01*
X2314732Y5337307D01*
X2320066Y5342641D01*
X2330480Y5347721D01*
X2340894Y5347721D01*
X2351308Y5342641D01*
X2356388Y5337307D01*
X2361722Y5321813D01*
X2361722Y5275077D01*
X2361722Y5311399D02*
G01*
X2418872Y5347721D01*
X2330480Y5382011D02*
G01*
X2325146Y5392425D01*
X2309652Y5407919D01*
X2418872Y5407919D01*
X17699736Y1467698D02*
G01*
X17699736Y1358478D01*
X17699736Y1467698D02*
G01*
X17746472Y1467698D01*
X17761966Y1462364D01*
X17767300Y1457284D01*
X17772379Y1446870D01*
X17772379Y1436456D01*
X17767300Y1426042D01*
X17761966Y1420962D01*
X17746472Y1415628D01*
X17699736Y1415628D02*
G01*
X17746472Y1415628D01*
X17761966Y1410548D01*
X17767300Y1405214D01*
X17772379Y1394800D01*
X17772379Y1379306D01*
X17767300Y1368892D01*
X17761966Y1363812D01*
X17746472Y1358478D01*
X17699736Y1358478D01*
X17848326Y1467698D02*
G01*
X17806670Y1358478D01*
X17848326Y1467698D02*
G01*
X17889727Y1358478D01*
X17822163Y1394800D02*
G01*
X17874234Y1394800D01*
X17960340Y1467698D02*
G01*
X17960340Y1358478D01*
X17924018Y1467698D02*
G01*
X17996916Y1467698D01*
X18031206Y1446870D02*
G01*
X18041620Y1451950D01*
X18057113Y1467698D01*
X18057113Y1358478D01*
X18319465Y1622216D02*
G01*
X18309305Y1611802D01*
X18303971Y1596308D01*
X18303971Y1575480D01*
X18309305Y1559986D01*
X18319465Y1549572D01*
X18329879Y1549572D01*
X18340293Y1554652D01*
X18345627Y1559986D01*
X18350707Y1570400D01*
X18361121Y1601388D01*
X18366455Y1611802D01*
X18371535Y1617136D01*
X18381949Y1622216D01*
X18397443Y1622216D01*
X18407857Y1611802D01*
X18413191Y1596308D01*
X18413191Y1575480D01*
X18407857Y1559986D01*
X18397443Y1549572D01*
X18303971Y1656506D02*
G01*
X18413191Y1682668D01*
X18303971Y1708576D02*
G01*
X18413191Y1682668D01*
X18303971Y1708576D02*
G01*
X18413191Y1734484D01*
X18303971Y1760392D02*
G01*
X18413191Y1734484D01*
X18324799Y1794682D02*
G01*
X18319465Y1805096D01*
X18303971Y1820844D01*
X18413191Y1820844D01*
X17824963Y5232272D02*
G01*
X17824963Y5341493D01*
X17824963Y5232272D02*
G01*
X17778227Y5232272D01*
X17762733Y5237353D01*
X17757399Y5242687D01*
X17752319Y5253101D01*
X17752319Y5263514D01*
X17757399Y5273929D01*
X17762733Y5279009D01*
X17778227Y5284343D01*
X17824963Y5284343D01*
X17788641Y5284343D02*
G01*
X17752319Y5341493D01*
X17655545Y5247767D02*
G01*
X17660879Y5237353D01*
X17676373Y5232272D01*
X17686787Y5232272D01*
X17702535Y5237353D01*
X17712695Y5253101D01*
X17718029Y5279009D01*
X17718029Y5304917D01*
X17712695Y5325745D01*
X17702535Y5336159D01*
X17686787Y5341493D01*
X17681707Y5341493D01*
X17665959Y5336159D01*
X17655545Y5325745D01*
X17650465Y5310251D01*
X17650465Y5304917D01*
X17655545Y5289422D01*
X17665959Y5279009D01*
X17681707Y5273929D01*
X17686787Y5273929D01*
X17702535Y5279009D01*
X17712695Y5289422D01*
X17718029Y5304917D01*
X17824963Y5482272D02*
G01*
X17824963Y5591492D01*
X17824963Y5482272D02*
G01*
X17778227Y5482272D01*
X17762733Y5487352D01*
X17757399Y5492686D01*
X17752319Y5503100D01*
X17752319Y5513514D01*
X17757399Y5523928D01*
X17762733Y5529008D01*
X17778227Y5534342D01*
X17824963Y5534342D01*
X17788641Y5534342D02*
G01*
X17752319Y5591492D01*
X17718029Y5503100D02*
G01*
X17707615Y5497766D01*
X17692121Y5482272D01*
X17692121Y5591492D01*
X17626589Y5482272D02*
G01*
X17642083Y5487352D01*
X17652497Y5503100D01*
X17657831Y5529008D01*
X17657831Y5544502D01*
X17652497Y5570664D01*
X17642083Y5586158D01*
X17626589Y5591492D01*
X17616175Y5591492D01*
X17600681Y5586158D01*
X17590267Y5570664D01*
X17584933Y5544502D01*
X17584933Y5529008D01*
X17590267Y5503100D01*
X17600681Y5487352D01*
X17616175Y5482272D01*
X17626589Y5482272D01*
X8689982Y1532280D02*
G01*
X8689982Y1641246D01*
X8689982Y1532280D02*
G01*
X8643246Y1532280D01*
X8627752Y1537360D01*
X8622418Y1542694D01*
X8617338Y1553108D01*
X8617338Y1563522D01*
X8622418Y1573936D01*
X8627752Y1579016D01*
X8643246Y1584096D01*
X8689982Y1584096D02*
G01*
X8643246Y1584096D01*
X8627752Y1589430D01*
X8622418Y1594510D01*
X8617338Y1604924D01*
X8617338Y1620672D01*
X8622418Y1631086D01*
X8627752Y1636166D01*
X8643246Y1641246D01*
X8689982Y1641246D01*
X8546472Y1532280D02*
G01*
X8546472Y1641246D01*
X8583048Y1532280D02*
G01*
X8510150Y1532280D01*
X8475860Y1553108D02*
G01*
X8465446Y1547774D01*
X8449952Y1532280D01*
X8449952Y1641246D01*
X18103494Y3417384D02*
G01*
X18181472Y3417384D01*
X18196966Y3422464D01*
X18207380Y3432878D01*
X18212460Y3448626D01*
X18212460Y3459040D01*
X18207380Y3474534D01*
X18196966Y3484948D01*
X18181472Y3490028D01*
X18103494Y3490028D01*
X18118988Y3597216D02*
G01*
X18108574Y3586802D01*
X18103494Y3571054D01*
X18103494Y3550480D01*
X18108574Y3534732D01*
X18118988Y3524318D01*
X18129402Y3524318D01*
X18139816Y3529652D01*
X18145150Y3534732D01*
X18150230Y3545146D01*
X18160644Y3576388D01*
X18165724Y3586802D01*
X18171058Y3591882D01*
X18181472Y3597216D01*
X18196966Y3597216D01*
X18207380Y3586802D01*
X18212460Y3571054D01*
X18212460Y3550480D01*
X18207380Y3534732D01*
X18196966Y3524318D01*
X18103494Y3631506D02*
G01*
X18212460Y3631506D01*
X18103494Y3631506D02*
G01*
X18103494Y3678242D01*
X18108574Y3693736D01*
X18113908Y3699070D01*
X18124322Y3704150D01*
X18134736Y3704150D01*
X18145150Y3699070D01*
X18150230Y3693736D01*
X18155310Y3678242D01*
X18155310Y3631506D02*
G01*
X18155310Y3678242D01*
X18160644Y3693736D01*
X18165724Y3699070D01*
X18176138Y3704150D01*
X18191886Y3704150D01*
X18202300Y3699070D01*
X18207380Y3693736D01*
X18212460Y3678242D01*
X18212460Y3631506D01*
X18124322Y3738440D02*
G01*
X18118988Y3748854D01*
X18103494Y3764348D01*
X18212460Y3764348D01*
X19170878Y7775384D02*
G01*
X19061658Y7775384D01*
X19170878Y7775384D02*
G01*
X19170878Y7728648D01*
X19165798Y7713154D01*
X19160464Y7707820D01*
X19150050Y7702740D01*
X19139636Y7702740D01*
X19129222Y7707820D01*
X19124142Y7713154D01*
X19118808Y7728648D01*
X19118808Y7775384D02*
G01*
X19118808Y7728648D01*
X19113728Y7713154D01*
X19108648Y7707820D01*
X19098234Y7702740D01*
X19082486Y7702740D01*
X19072072Y7707820D01*
X19066992Y7713154D01*
X19061658Y7728648D01*
X19061658Y7775384D01*
X19150050Y7668450D02*
G01*
X19155384Y7658036D01*
X19170878Y7642542D01*
X19061658Y7642542D01*
X11524576Y8442698D02*
G01*
X11524576Y8333478D01*
X11597220Y8442698D02*
G01*
X11597220Y8333478D01*
X11524576Y8390628D02*
G01*
X11597220Y8390628D01*
X11641924Y8442698D02*
G01*
X11699074Y8442698D01*
X11667832Y8401042D01*
X11683580Y8401042D01*
X11693994Y8395962D01*
X11699074Y8390628D01*
X11704154Y8375134D01*
X11704154Y8364720D01*
X11699074Y8349226D01*
X11688660Y8338812D01*
X11673166Y8333478D01*
X11657418Y8333478D01*
X11641924Y8338812D01*
X11636844Y8343892D01*
X11631510Y8354306D01*
X10161955Y2029713D02*
G01*
X10161955Y1951736D01*
X10167035Y1936242D01*
X10177449Y1925828D01*
X10192943Y1920494D01*
X10203357Y1920494D01*
X10219105Y1925828D01*
X10229519Y1936242D01*
X10234599Y1951736D01*
X10234599Y2029713D01*
X10268889Y2008886D02*
G01*
X10279303Y2014220D01*
X10294797Y2029713D01*
X10294797Y1920494D01*
X2029713Y4999989D02*
G01*
X1951736Y4999989D01*
X1936242Y4994910D01*
X1925827Y4984496D01*
X1920493Y4969002D01*
X1920493Y4958587D01*
X1925827Y4942839D01*
X1936242Y4932426D01*
X1951736Y4927346D01*
X2029713Y4927346D01*
X2029713Y4830826D02*
G01*
X2029713Y4882642D01*
X1982977Y4887976D01*
X1988058Y4882642D01*
X1993392Y4867147D01*
X1993392Y4851400D01*
X1988058Y4835905D01*
X1977643Y4825492D01*
X1962150Y4820412D01*
X1951736Y4820412D01*
X1936242Y4825492D01*
X1925827Y4835905D01*
X1920493Y4851400D01*
X1920493Y4867147D01*
X1925827Y4882642D01*
X1930908Y4887976D01*
X1941322Y4893055D01*
X10199979Y7970265D02*
G01*
X10199979Y8048244D01*
X10194899Y8063737D01*
X10184485Y8074152D01*
X10168991Y8079486D01*
X10158577Y8079486D01*
X10142829Y8074152D01*
X10132415Y8063737D01*
X10127335Y8048244D01*
X10127335Y7970265D01*
X10030815Y7985760D02*
G01*
X10035895Y7975346D01*
X10051389Y7970265D01*
X10061803Y7970265D01*
X10077551Y7975346D01*
X10087965Y7991094D01*
X10093045Y8017002D01*
X10093045Y8042910D01*
X10087965Y8063737D01*
X10077551Y8074152D01*
X10061803Y8079486D01*
X10056723Y8079486D01*
X10040975Y8074152D01*
X10030815Y8063737D01*
X10025481Y8048244D01*
X10025481Y8042910D01*
X10030815Y8027415D01*
X10040975Y8017002D01*
X10056723Y8011921D01*
X10061803Y8011921D01*
X10077551Y8017002D01*
X10087965Y8027415D01*
X10093045Y8042910D01*
X12525375Y1532280D02*
G01*
X12525375Y1610258D01*
X12520295Y1625752D01*
X12509881Y1636166D01*
X12494386Y1641500D01*
X12483972Y1641500D01*
X12468225Y1636166D01*
X12457811Y1625752D01*
X12452731Y1610258D01*
X12452731Y1532280D01*
X12392533Y1532280D02*
G01*
X12408027Y1537360D01*
X12413106Y1547774D01*
X12413106Y1558188D01*
X12408027Y1568602D01*
X12397613Y1573936D01*
X12376784Y1579016D01*
X12361290Y1584350D01*
X12350877Y1594510D01*
X12345797Y1604924D01*
X12345797Y1620672D01*
X12350877Y1631086D01*
X12355956Y1636166D01*
X12371704Y1641500D01*
X12392533Y1641500D01*
X12408027Y1636166D01*
X12413106Y1631086D01*
X12418440Y1620672D01*
X12418440Y1604924D01*
X12413106Y1594510D01*
X12402947Y1584350D01*
X12387199Y1579016D01*
X12366370Y1573936D01*
X12355956Y1568602D01*
X12350877Y1558188D01*
X12350877Y1547774D01*
X12355956Y1537360D01*
X12371704Y1532280D01*
X12392533Y1532280D01*
X8967063Y3299993D02*
G01*
X9045041Y3299993D01*
X9060535Y3305073D01*
X9070949Y3315487D01*
X9076283Y3330981D01*
X9076283Y3341395D01*
X9070949Y3357143D01*
X9060535Y3367557D01*
X9045041Y3372637D01*
X8967063Y3372637D01*
X9003385Y3474491D02*
G01*
X9019133Y3469411D01*
X9029293Y3458997D01*
X9034627Y3443249D01*
X9034627Y3438169D01*
X9029293Y3422421D01*
X9019133Y3412261D01*
X9003385Y3406927D01*
X8998305Y3406927D01*
X8982557Y3412261D01*
X8972143Y3422421D01*
X8967063Y3438169D01*
X8967063Y3443249D01*
X8972143Y3458997D01*
X8982557Y3469411D01*
X9003385Y3474491D01*
X9029293Y3474491D01*
X9055455Y3469411D01*
X9070949Y3458997D01*
X9076283Y3443249D01*
X9076283Y3432835D01*
X9070949Y3417341D01*
X9060535Y3412261D01*
D11*
X10899749Y3744493D02*
G01*
X10980521Y3807993D01*
X10899749Y3807993D02*
G01*
X10980521Y3744493D01*
X10518749Y3432835D02*
G01*
X10599521Y3467379D01*
X10518749Y3501923D02*
G01*
X10599521Y3467379D01*
X10622635Y3455949D01*
X10634065Y3444265D01*
X10639907Y3432835D01*
X10639907Y3426993D01*
X10574977Y3821727D02*
G01*
X10574977Y3943139D01*
X10496491Y3821727D02*
G01*
X10496491Y3943139D01*
X10536877Y3821727D02*
G01*
X10456105Y3821727D01*
X10331391Y3850683D02*
G01*
X10337233Y3839253D01*
X10348663Y3827569D01*
X10360347Y3821727D01*
X10383207Y3821727D01*
X10394891Y3827569D01*
X10406321Y3839253D01*
X10412163Y3850683D01*
X10418005Y3867955D01*
X10418005Y3896911D01*
X10412163Y3914183D01*
X10406321Y3925867D01*
X10394891Y3937297D01*
X10383207Y3943139D01*
X10360347Y3943139D01*
X10348663Y3937297D01*
X10337233Y3925867D01*
X10331391Y3914183D01*
X10331391Y3896911D01*
X10360347Y3896911D02*
G01*
X10331391Y3896911D01*
X10189405Y3798867D02*
G01*
X10293291Y3983525D01*
X10151305Y3821727D02*
G01*
X10151305Y3943139D01*
X10151305Y3821727D02*
G01*
X10105077Y3943139D01*
X10058849Y3821727D02*
G01*
X10105077Y3943139D01*
X10058849Y3821727D02*
G01*
X10058849Y3943139D01*
X10020749Y3821727D02*
G01*
X10020749Y3943139D01*
X10020749Y3821727D02*
G01*
X9968933Y3821727D01*
X9951407Y3827569D01*
X9945819Y3833411D01*
X9939977Y3844841D01*
X9939977Y3862367D01*
X9945819Y3873797D01*
X9951407Y3879639D01*
X9968933Y3885227D01*
X10020749Y3885227D01*
X9901877Y3821727D02*
G01*
X9901877Y3908341D01*
X9896035Y3925867D01*
X9884605Y3937297D01*
X9867333Y3943139D01*
X9855649Y3943139D01*
X9838377Y3937297D01*
X9826947Y3925867D01*
X9821105Y3908341D01*
X9821105Y3821727D01*
D10*
X9794875Y1580238D02*
G01*
X9794875Y1657962D01*
X9789795Y1673710D01*
X9779381Y1684124D01*
X9763886Y1689204D01*
X9753472Y1689204D01*
X9737725Y1684124D01*
X9727311Y1673710D01*
X9722231Y1657962D01*
X9722231Y1580238D01*
X9687940Y1600812D02*
G01*
X9677527Y1595732D01*
X9662033Y1580238D01*
X9662033Y1689204D01*
X9622409Y1606146D02*
G01*
X9622409Y1600812D01*
X9617329Y1590398D01*
X9611995Y1585318D01*
X9601581Y1580238D01*
X9581006Y1580238D01*
X9570593Y1585318D01*
X9565259Y1590398D01*
X9560179Y1600812D01*
X9560179Y1611226D01*
X9565259Y1621640D01*
X9575672Y1637388D01*
X9627743Y1689204D01*
X9554845Y1689204D01*
D12*
X11199977Y3195012D02*
G01*
X11199977Y3388814D01*
X11199977Y3195012D02*
G01*
X11135207Y3195012D01*
X11107521Y3204156D01*
X11089233Y3222698D01*
X11079835Y3241240D01*
X11070691Y3268926D01*
X11070691Y3314900D01*
X11079835Y3342840D01*
X11089233Y3361128D01*
X11107521Y3379670D01*
X11135207Y3388814D01*
X11199977Y3388814D01*
X10871047Y3241240D02*
G01*
X10880445Y3222698D01*
X10898987Y3204156D01*
X10917275Y3195012D01*
X10954359Y3195012D01*
X10972647Y3204156D01*
X10991189Y3222698D01*
X11000587Y3241240D01*
X11009731Y3268926D01*
X11009731Y3314900D01*
X11000587Y3342840D01*
X10991189Y3361128D01*
X10972647Y3379670D01*
X10954359Y3388814D01*
X10917275Y3388814D01*
X10898987Y3379670D01*
X10880445Y3361128D01*
X10871047Y3342840D01*
X10667847Y3305756D02*
G01*
X10501731Y3305756D01*
X10298531Y3195012D02*
G01*
X10298531Y3388814D01*
X10298531Y3195012D02*
G01*
X10233761Y3195012D01*
X10206075Y3204156D01*
X10187787Y3222698D01*
X10178389Y3241240D01*
X10169245Y3268926D01*
X10169245Y3314900D01*
X10178389Y3342840D01*
X10187787Y3361128D01*
X10206075Y3379670D01*
X10233761Y3388814D01*
X10298531Y3388814D01*
X9969601Y3241240D02*
G01*
X9978999Y3222698D01*
X9997287Y3204156D01*
X10015829Y3195012D01*
X10052913Y3195012D01*
X10071201Y3204156D01*
X10089743Y3222698D01*
X10098887Y3241240D01*
X10108285Y3268926D01*
X10108285Y3314900D01*
X10098887Y3342840D01*
X10089743Y3361128D01*
X10071201Y3379670D01*
X10052913Y3388814D01*
X10015829Y3388814D01*
X9997287Y3379670D01*
X9978999Y3361128D01*
X9969601Y3342840D01*
X9766401Y3195012D02*
G01*
X9637115Y3388814D01*
X9637115Y3195012D02*
G01*
X9766401Y3388814D01*
X9576155Y3195012D02*
G01*
X9576155Y3388814D01*
X9576155Y3388814D02*
G01*
X9465411Y3388814D01*
X9311995Y3195012D02*
G01*
X9404451Y3324298D01*
X9265767Y3324298D01*
X9311995Y3195012D02*
G01*
X9311995Y3388814D01*
X9149435Y3195012D02*
G01*
X9177121Y3204156D01*
X9195663Y3231842D01*
X9204807Y3278070D01*
X9204807Y3305756D01*
X9195663Y3351984D01*
X9177121Y3379670D01*
X9149435Y3388814D01*
X9131147Y3388814D01*
X9103207Y3379670D01*
X9084919Y3351984D01*
X9075521Y3305756D01*
X9075521Y3278070D01*
X9084919Y3231842D01*
X9103207Y3204156D01*
X9131147Y3195012D01*
X9149435Y3195012D01*
X9014561Y3231842D02*
G01*
X8996273Y3222698D01*
X8968587Y3195012D01*
X8968587Y3388814D01*
X8796629Y3195012D02*
G01*
X8889085Y3195012D01*
X8898229Y3278070D01*
X8889085Y3268926D01*
X8861399Y3259528D01*
X8833713Y3259528D01*
X8806027Y3268926D01*
X8787485Y3287214D01*
X8778087Y3314900D01*
X8778087Y3333442D01*
X8787485Y3361128D01*
X8806027Y3379670D01*
X8833713Y3388814D01*
X8861399Y3388814D01*
X8889085Y3379670D01*
X8898229Y3370526D01*
X8907627Y3351984D01*
X8717127Y3195012D02*
G01*
X8717127Y3388814D01*
X8717127Y3195012D02*
G01*
X8597239Y3195012D01*
X8717127Y3287214D02*
G01*
X8643467Y3287214D01*
X8717127Y3388814D02*
G01*
X8597239Y3388814D01*
X8536279Y3231842D02*
G01*
X8517737Y3222698D01*
X8490051Y3195012D01*
X8490051Y3388814D01*
X8544610Y2195014D02*
G01*
X8563152Y2204158D01*
X8581440Y2222700D01*
X8590838Y2241242D01*
X8599982Y2268928D01*
X8599982Y2314902D01*
X8590838Y2342842D01*
X8581440Y2361130D01*
X8563152Y2379672D01*
X8544610Y2388816D01*
X8507526Y2388816D01*
X8489238Y2379672D01*
X8470696Y2361130D01*
X8461552Y2342842D01*
X8452154Y2314902D01*
X8452154Y2268928D01*
X8461552Y2241242D01*
X8470696Y2222700D01*
X8489238Y2204158D01*
X8507526Y2195014D01*
X8544610Y2195014D01*
X8391194Y2195014D02*
G01*
X8391194Y2333444D01*
X8382050Y2361130D01*
X8363508Y2379672D01*
X8335822Y2388816D01*
X8317280Y2388816D01*
X8289594Y2379672D01*
X8271052Y2361130D01*
X8261908Y2333444D01*
X8261908Y2195014D01*
X8136432Y2195014D02*
G01*
X8136432Y2388816D01*
X8200948Y2195014D02*
G01*
X8071662Y2195014D01*
X7927644Y2222700D02*
G01*
X7927644Y2388816D01*
X8010702Y2305758D02*
G01*
X7844332Y2305758D01*
X11999976Y2195014D02*
G01*
X11999976Y2388816D01*
X11939015Y2195014D02*
G01*
X11939015Y2388816D01*
X11939015Y2195014D02*
G01*
X11809729Y2388816D01*
X11809729Y2195014D02*
G01*
X11809729Y2388816D01*
X11665711Y2222700D02*
G01*
X11665711Y2388816D01*
X11748770Y2305758D02*
G01*
X11582400Y2305758D01*
X8261553Y4441238D02*
G01*
X8270697Y4422696D01*
X8289239Y4404154D01*
X8307527Y4395010D01*
X8344611Y4395010D01*
X8363153Y4404154D01*
X8381441Y4422696D01*
X8390839Y4441238D01*
X8399983Y4468924D01*
X8399983Y4514898D01*
X8390839Y4542838D01*
X8381441Y4561126D01*
X8363153Y4579668D01*
X8344611Y4588812D01*
X8307527Y4588812D01*
X8289239Y4579668D01*
X8270697Y4561126D01*
X8261553Y4542838D01*
X8261553Y4514898D01*
X8307527Y4514898D02*
G01*
X8261553Y4514898D01*
X8200593Y4395010D02*
G01*
X8200593Y4588812D01*
X8200593Y4395010D02*
G01*
X8071053Y4588812D01*
X8071053Y4395010D02*
G01*
X8071053Y4588812D01*
X8010093Y4395010D02*
G01*
X8010093Y4588812D01*
X8010093Y4395010D02*
G01*
X7945577Y4395010D01*
X7917891Y4404154D01*
X7899349Y4422696D01*
X7890205Y4441238D01*
X7880807Y4468924D01*
X7880807Y4514898D01*
X7890205Y4542838D01*
X7899349Y4561126D01*
X7917891Y4579668D01*
X7945577Y4588812D01*
X8010093Y4588812D01*
X11861545Y4441238D02*
G01*
X11870690Y4422696D01*
X11889231Y4404154D01*
X11907520Y4395010D01*
X11944604Y4395010D01*
X11963145Y4404154D01*
X11981434Y4422696D01*
X11990831Y4441238D01*
X11999976Y4468924D01*
X11999976Y4514898D01*
X11990831Y4542838D01*
X11981434Y4561126D01*
X11963145Y4579668D01*
X11944604Y4588812D01*
X11907520Y4588812D01*
X11889231Y4579668D01*
X11870690Y4561126D01*
X11861545Y4542838D01*
X11861545Y4514898D01*
X11907520Y4514898D02*
G01*
X11861545Y4514898D01*
X11800586Y4395010D02*
G01*
X11800586Y4588812D01*
X11800586Y4395010D02*
G01*
X11671045Y4588812D01*
X11671045Y4395010D02*
G01*
X11671045Y4588812D01*
X11610086Y4395010D02*
G01*
X11610086Y4588812D01*
X11610086Y4395010D02*
G01*
X11545570Y4395010D01*
X11517884Y4404154D01*
X11499342Y4422696D01*
X11490197Y4441238D01*
X11480800Y4468924D01*
X11480800Y4514898D01*
X11490197Y4542838D01*
X11499342Y4561126D01*
X11517884Y4579668D01*
X11545570Y4588812D01*
X11610086Y4588812D01*
D10*
X18103494Y4992382D02*
G01*
X18181218Y4992382D01*
X18196966Y4997462D01*
X18207380Y5007876D01*
X18212460Y5023370D01*
X18212460Y5033784D01*
X18207380Y5049532D01*
X18196966Y5059946D01*
X18181218Y5065026D01*
X18103494Y5065026D01*
X18118988Y5171960D02*
G01*
X18108574Y5161800D01*
X18103494Y5146052D01*
X18103494Y5125224D01*
X18108574Y5109730D01*
X18118988Y5099316D01*
X18129402Y5099316D01*
X18139816Y5104650D01*
X18144896Y5109730D01*
X18150230Y5120144D01*
X18160644Y5151386D01*
X18165724Y5161800D01*
X18170804Y5166880D01*
X18181218Y5171960D01*
X18196966Y5171960D01*
X18207380Y5161800D01*
X18212460Y5146052D01*
X18212460Y5125224D01*
X18207380Y5109730D01*
X18196966Y5099316D01*
X18103494Y5206250D02*
G01*
X18212460Y5206250D01*
X18103494Y5206250D02*
G01*
X18103494Y5253240D01*
X18108574Y5268734D01*
X18113654Y5273814D01*
X18124068Y5279148D01*
X18134482Y5279148D01*
X18144896Y5273814D01*
X18150230Y5268734D01*
X18155310Y5253240D01*
X18155310Y5206250D02*
G01*
X18155310Y5253240D01*
X18160644Y5268734D01*
X18165724Y5273814D01*
X18176138Y5279148D01*
X18191632Y5279148D01*
X18202046Y5273814D01*
X18207380Y5268734D01*
X18212460Y5253240D01*
X18212460Y5206250D01*
X18129402Y5318518D02*
G01*
X18124068Y5318518D01*
X18113654Y5323852D01*
X18108574Y5328932D01*
X18103494Y5339346D01*
X18103494Y5360174D01*
X18108574Y5370588D01*
X18113654Y5375668D01*
X18124068Y5381002D01*
X18134482Y5381002D01*
X18144896Y5375668D01*
X18160644Y5365254D01*
X18212460Y5313438D01*
X18212460Y5386082D01*
X18134723Y6675053D02*
G01*
X18212447Y6675053D01*
X18228195Y6680133D01*
X18238609Y6690547D01*
X18243689Y6706041D01*
X18243689Y6716455D01*
X18238609Y6732203D01*
X18228195Y6742617D01*
X18212447Y6747697D01*
X18134723Y6747697D01*
X18150217Y6854631D02*
G01*
X18139803Y6844471D01*
X18134723Y6828723D01*
X18134723Y6807895D01*
X18139803Y6792401D01*
X18150217Y6781987D01*
X18160631Y6781987D01*
X18171045Y6787321D01*
X18176125Y6792401D01*
X18181459Y6802815D01*
X18191873Y6834057D01*
X18196953Y6844471D01*
X18202033Y6849551D01*
X18212447Y6854631D01*
X18228195Y6854631D01*
X18238609Y6844471D01*
X18243689Y6828723D01*
X18243689Y6807895D01*
X18238609Y6792401D01*
X18228195Y6781987D01*
X18134723Y6888921D02*
G01*
X18243689Y6888921D01*
X18134723Y6888921D02*
G01*
X18134723Y6935911D01*
X18139803Y6951405D01*
X18144883Y6956485D01*
X18155297Y6961819D01*
X18165711Y6961819D01*
X18176125Y6956485D01*
X18181459Y6951405D01*
X18186539Y6935911D01*
X18186539Y6888921D02*
G01*
X18186539Y6935911D01*
X18191873Y6951405D01*
X18196953Y6956485D01*
X18207367Y6961819D01*
X18222861Y6961819D01*
X18233275Y6956485D01*
X18238609Y6951405D01*
X18243689Y6935911D01*
X18243689Y6888921D01*
X18134723Y7006523D02*
G01*
X18134723Y7063673D01*
X18176125Y7032431D01*
X18176125Y7047925D01*
X18181459Y7058339D01*
X18186539Y7063673D01*
X18202033Y7068753D01*
X18212447Y7068753D01*
X18228195Y7063673D01*
X18238609Y7053259D01*
X18243689Y7037511D01*
X18243689Y7022017D01*
X18238609Y7006523D01*
X18233275Y7001189D01*
X18222861Y6996109D01*
X18632246Y724598D02*
G01*
X18741212Y724598D01*
X18632246Y797242D02*
G01*
X18741212Y797242D01*
X18684062Y724598D02*
G01*
X18684062Y797242D01*
X18647740Y894016D02*
G01*
X18637326Y888682D01*
X18632246Y873188D01*
X18632246Y862774D01*
X18637326Y847280D01*
X18653074Y836866D01*
X18678982Y831532D01*
X18704890Y831532D01*
X18725718Y836866D01*
X18736132Y847280D01*
X18741212Y862774D01*
X18741212Y868108D01*
X18736132Y883602D01*
X18725718Y894016D01*
X18710224Y899096D01*
X18704890Y899096D01*
X18689396Y894016D01*
X18678982Y883602D01*
X18673902Y868108D01*
X18673902Y862774D01*
X18678982Y847280D01*
X18689396Y836866D01*
X18704890Y831532D01*
X18632246Y9224581D02*
G01*
X18741212Y9224581D01*
X18632246Y9297225D02*
G01*
X18741212Y9297225D01*
X18684062Y9224581D02*
G01*
X18684062Y9297225D01*
X18632246Y9404413D02*
G01*
X18741212Y9352343D01*
X18632246Y9331515D02*
G01*
X18632246Y9404413D01*
X-42458Y1139667D02*
G01*
X35519Y1139667D01*
X51013Y1144747D01*
X61427Y1155161D01*
X66761Y1170909D01*
X66761Y1181069D01*
X61427Y1196817D01*
X51013Y1207231D01*
X35519Y1212311D01*
X-42458Y1212311D01*
X-21630Y1246601D02*
G01*
X-26710Y1257015D01*
X-42458Y1272509D01*
X66761Y1272509D01*
X-21630Y1306799D02*
G01*
X-26710Y1317213D01*
X-42458Y1332961D01*
X66761Y1332961D01*
D12*
X1762074Y1232402D02*
G01*
X1754708Y1228592D01*
X1747596Y1221480D01*
X1743786Y1214114D01*
X1743786Y1199636D01*
X1747596Y1192270D01*
X1754708Y1185158D01*
X1762074Y1181348D01*
X1772996Y1177792D01*
X1791030Y1177792D01*
X1801952Y1181348D01*
X1809318Y1185158D01*
X1816684Y1192270D01*
X1820240Y1199636D01*
X1820240Y1214114D01*
X1816684Y1221480D01*
X1809318Y1228592D01*
X1801952Y1232402D01*
X1791030Y1232402D01*
X1791030Y1214114D02*
G01*
X1791030Y1232402D01*
X1743786Y1256278D02*
G01*
X1820240Y1256278D01*
X1743786Y1256278D02*
G01*
X1743786Y1289044D01*
X1747596Y1299966D01*
X1751152Y1303522D01*
X1758264Y1307332D01*
X1769186Y1307332D01*
X1776552Y1303522D01*
X1780108Y1299966D01*
X1783918Y1289044D01*
X1783918Y1256278D01*
X1743786Y1331208D02*
G01*
X1820240Y1331208D01*
X1743786Y1377182D02*
G01*
X1747596Y1369816D01*
X1754708Y1362450D01*
X1762074Y1358894D01*
X1772996Y1355338D01*
X1791030Y1355338D01*
X1801952Y1358894D01*
X1809318Y1362450D01*
X1816684Y1369816D01*
X1820240Y1377182D01*
X1820240Y1391660D01*
X1816684Y1398772D01*
X1809318Y1406138D01*
X1801952Y1409694D01*
X1791030Y1413504D01*
X1772996Y1413504D01*
X1762074Y1409694D01*
X1754708Y1406138D01*
X1747596Y1398772D01*
X1743786Y1391660D01*
X1743786Y1377182D01*
X1489786Y1177792D02*
G01*
X1566240Y1228592D01*
X1489786Y1228592D02*
G01*
X1566240Y1177792D01*
X1500708Y1303522D02*
G01*
X1493596Y1296410D01*
X1489786Y1285488D01*
X1489786Y1270756D01*
X1493596Y1260088D01*
X1500708Y1252722D01*
X1508074Y1252722D01*
X1515186Y1256278D01*
X1518996Y1260088D01*
X1522552Y1267200D01*
X1529918Y1289044D01*
X1533474Y1296410D01*
X1537030Y1299966D01*
X1544396Y1303522D01*
X1555318Y1303522D01*
X1562684Y1296410D01*
X1566240Y1285488D01*
X1566240Y1270756D01*
X1562684Y1260088D01*
X1555318Y1252722D01*
X1489786Y1327652D02*
G01*
X1566240Y1327652D01*
X1489786Y1378452D02*
G01*
X1566240Y1378452D01*
X1526108Y1327652D02*
G01*
X1526108Y1378452D01*
X1246708Y1228592D02*
G01*
X1239596Y1221480D01*
X1235786Y1210558D01*
X1235786Y1196080D01*
X1239596Y1185158D01*
X1246708Y1177792D01*
X1254074Y1177792D01*
X1261186Y1181348D01*
X1264996Y1185158D01*
X1268552Y1192270D01*
X1275918Y1214114D01*
X1279474Y1221480D01*
X1283030Y1225036D01*
X1290396Y1228592D01*
X1301318Y1228592D01*
X1308684Y1221480D01*
X1312240Y1210558D01*
X1312240Y1196080D01*
X1308684Y1185158D01*
X1301318Y1177792D01*
X1254074Y1307332D02*
G01*
X1246708Y1303522D01*
X1239596Y1296410D01*
X1235786Y1289044D01*
X1235786Y1274566D01*
X1239596Y1267200D01*
X1246708Y1260088D01*
X1254074Y1256278D01*
X1264996Y1252722D01*
X1283030Y1252722D01*
X1293952Y1256278D01*
X1301318Y1260088D01*
X1308684Y1267200D01*
X1312240Y1274566D01*
X1312240Y1289044D01*
X1308684Y1296410D01*
X1301318Y1303522D01*
X1293952Y1307332D01*
X1235786Y1331208D02*
G01*
X1312240Y1331208D01*
X1312240Y1331208D02*
G01*
X1312240Y1374896D01*
X992708Y1228592D02*
G01*
X985596Y1221480D01*
X981786Y1210558D01*
X981786Y1196080D01*
X985596Y1185158D01*
X992708Y1177792D01*
X1000074Y1177792D01*
X1007186Y1181348D01*
X1010996Y1185158D01*
X1014552Y1192270D01*
X1021918Y1214114D01*
X1025474Y1221480D01*
X1029030Y1225036D01*
X1036396Y1228592D01*
X1047318Y1228592D01*
X1054684Y1221480D01*
X1058240Y1210558D01*
X1058240Y1196080D01*
X1054684Y1185158D01*
X1047318Y1177792D01*
X981786Y1252722D02*
G01*
X1058240Y1252722D01*
X981786Y1252722D02*
G01*
X981786Y1278122D01*
X985596Y1289044D01*
X992708Y1296410D01*
X1000074Y1299966D01*
X1010996Y1303522D01*
X1029030Y1303522D01*
X1039952Y1299966D01*
X1047318Y1296410D01*
X1054684Y1289044D01*
X1058240Y1278122D01*
X1058240Y1252722D01*
X981786Y1356608D02*
G01*
X1058240Y1327652D01*
X981786Y1356608D02*
G01*
X1058240Y1385818D01*
X1032840Y1338574D02*
G01*
X1032840Y1374896D01*
X746074Y1232402D02*
G01*
X738708Y1228592D01*
X731596Y1221480D01*
X727786Y1214114D01*
X727786Y1199636D01*
X731596Y1192270D01*
X738708Y1185158D01*
X746074Y1181348D01*
X756996Y1177792D01*
X775030Y1177792D01*
X785952Y1181348D01*
X793318Y1185158D01*
X800684Y1192270D01*
X804240Y1199636D01*
X804240Y1214114D01*
X800684Y1221480D01*
X793318Y1228592D01*
X785952Y1232402D01*
X775030Y1232402D01*
X775030Y1214114D02*
G01*
X775030Y1232402D01*
X727786Y1256278D02*
G01*
X804240Y1256278D01*
X727786Y1256278D02*
G01*
X804240Y1307332D01*
X727786Y1307332D02*
G01*
X804240Y1307332D01*
X727786Y1331208D02*
G01*
X804240Y1331208D01*
X727786Y1331208D02*
G01*
X727786Y1356608D01*
X731596Y1367530D01*
X738708Y1374896D01*
X746074Y1378452D01*
X756996Y1382262D01*
X775030Y1382262D01*
X785952Y1378452D01*
X793318Y1374896D01*
X800684Y1367530D01*
X804240Y1356608D01*
X804240Y1331208D01*
X441274Y1177792D02*
G01*
X517728Y1207002D01*
X441274Y1235958D02*
G01*
X517728Y1207002D01*
X459562Y1314444D02*
G01*
X452196Y1310888D01*
X445084Y1303522D01*
X441274Y1296410D01*
X441274Y1281678D01*
X445084Y1274566D01*
X452196Y1267200D01*
X459562Y1263644D01*
X470484Y1260088D01*
X488518Y1260088D01*
X499440Y1263644D01*
X506806Y1267200D01*
X514172Y1274566D01*
X517728Y1281678D01*
X517728Y1296410D01*
X514172Y1303522D01*
X506806Y1310888D01*
X499440Y1314444D01*
X459562Y1393184D02*
G01*
X452196Y1389374D01*
X445084Y1382262D01*
X441274Y1374896D01*
X441274Y1360418D01*
X445084Y1353052D01*
X452196Y1345686D01*
X459562Y1342130D01*
X470484Y1338574D01*
X488518Y1338574D01*
X499440Y1342130D01*
X506806Y1345686D01*
X514172Y1353052D01*
X517728Y1360418D01*
X517728Y1374896D01*
X514172Y1382262D01*
X506806Y1389374D01*
X499440Y1393184D01*
D10*
X2042314Y8860264D02*
G01*
X1964590Y8860264D01*
X1948842Y8855184D01*
X1938428Y8844770D01*
X1933348Y8829276D01*
X1933348Y8818862D01*
X1938428Y8803114D01*
X1948842Y8792700D01*
X1964590Y8787620D01*
X2042314Y8787620D01*
X2021740Y8753330D02*
G01*
X2026820Y8742916D01*
X2042314Y8727422D01*
X1933348Y8727422D01*
X2042314Y8682718D02*
G01*
X2042314Y8625568D01*
X2000912Y8656810D01*
X2000912Y8641062D01*
X1995578Y8630648D01*
X1990498Y8625568D01*
X1975004Y8620234D01*
X1964590Y8620234D01*
X1948842Y8625568D01*
X1938428Y8635982D01*
X1933348Y8651476D01*
X1933348Y8666970D01*
X1938428Y8682718D01*
X1943762Y8687798D01*
X1954176Y8693132D01*
D12*
X238074Y8767566D02*
G01*
X245440Y8771376D01*
X252552Y8778488D01*
X256362Y8785854D01*
X256362Y8800332D01*
X252552Y8807698D01*
X245440Y8814810D01*
X238074Y8818620D01*
X227152Y8822176D01*
X209118Y8822176D01*
X198196Y8818620D01*
X190830Y8814810D01*
X183464Y8807698D01*
X179908Y8800332D01*
X179908Y8785854D01*
X183464Y8778488D01*
X190830Y8771376D01*
X198196Y8767566D01*
X209118Y8767566D01*
X209118Y8785854D02*
G01*
X209118Y8767566D01*
X256362Y8743690D02*
G01*
X179908Y8743690D01*
X256362Y8743690D02*
G01*
X256362Y8710924D01*
X252552Y8700002D01*
X248996Y8696446D01*
X241884Y8692636D01*
X230962Y8692636D01*
X223596Y8696446D01*
X220040Y8700002D01*
X216230Y8710924D01*
X216230Y8743690D01*
X256362Y8668760D02*
G01*
X179908Y8668760D01*
X256362Y8622786D02*
G01*
X252552Y8630152D01*
X245440Y8637518D01*
X238074Y8641074D01*
X227152Y8644630D01*
X209118Y8644630D01*
X198196Y8641074D01*
X190830Y8637518D01*
X183464Y8630152D01*
X179908Y8622786D01*
X179908Y8608308D01*
X183464Y8601196D01*
X190830Y8593830D01*
X198196Y8590274D01*
X209118Y8586464D01*
X227152Y8586464D01*
X238074Y8590274D01*
X245440Y8593830D01*
X252552Y8601196D01*
X256362Y8608308D01*
X256362Y8622786D01*
X510362Y8822176D02*
G01*
X433908Y8771376D01*
X510362Y8771376D02*
G01*
X433908Y8822176D01*
X499440Y8696446D02*
G01*
X506552Y8703558D01*
X510362Y8714480D01*
X510362Y8729212D01*
X506552Y8739880D01*
X499440Y8747246D01*
X492074Y8747246D01*
X484962Y8743690D01*
X481152Y8739880D01*
X477596Y8732768D01*
X470230Y8710924D01*
X466674Y8703558D01*
X463118Y8700002D01*
X455752Y8696446D01*
X444830Y8696446D01*
X437464Y8703558D01*
X433908Y8714480D01*
X433908Y8729212D01*
X437464Y8739880D01*
X444830Y8747246D01*
X510362Y8672316D02*
G01*
X433908Y8672316D01*
X510362Y8621516D02*
G01*
X433908Y8621516D01*
X474040Y8672316D02*
G01*
X474040Y8621516D01*
X753440Y8771376D02*
G01*
X760552Y8778488D01*
X764362Y8789410D01*
X764362Y8803888D01*
X760552Y8814810D01*
X753440Y8822176D01*
X746074Y8822176D01*
X738962Y8818620D01*
X735152Y8814810D01*
X731596Y8807698D01*
X724230Y8785854D01*
X720674Y8778488D01*
X717118Y8774932D01*
X709752Y8771376D01*
X698830Y8771376D01*
X691464Y8778488D01*
X687908Y8789410D01*
X687908Y8803888D01*
X691464Y8814810D01*
X698830Y8822176D01*
X746074Y8692636D02*
G01*
X753440Y8696446D01*
X760552Y8703558D01*
X764362Y8710924D01*
X764362Y8725402D01*
X760552Y8732768D01*
X753440Y8739880D01*
X746074Y8743690D01*
X735152Y8747246D01*
X717118Y8747246D01*
X706196Y8743690D01*
X698830Y8739880D01*
X691464Y8732768D01*
X687908Y8725402D01*
X687908Y8710924D01*
X691464Y8703558D01*
X698830Y8696446D01*
X706196Y8692636D01*
X764362Y8668760D02*
G01*
X687908Y8668760D01*
X687908Y8668760D02*
G01*
X687908Y8625072D01*
X1007440Y8771376D02*
G01*
X1014552Y8778488D01*
X1018362Y8789410D01*
X1018362Y8803888D01*
X1014552Y8814810D01*
X1007440Y8822176D01*
X1000074Y8822176D01*
X992962Y8818620D01*
X989152Y8814810D01*
X985596Y8807698D01*
X978230Y8785854D01*
X974674Y8778488D01*
X971118Y8774932D01*
X963752Y8771376D01*
X952830Y8771376D01*
X945464Y8778488D01*
X941908Y8789410D01*
X941908Y8803888D01*
X945464Y8814810D01*
X952830Y8822176D01*
X1018362Y8747246D02*
G01*
X941908Y8747246D01*
X1018362Y8747246D02*
G01*
X1018362Y8721846D01*
X1014552Y8710924D01*
X1007440Y8703558D01*
X1000074Y8700002D01*
X989152Y8696446D01*
X971118Y8696446D01*
X960196Y8700002D01*
X952830Y8703558D01*
X945464Y8710924D01*
X941908Y8721846D01*
X941908Y8747246D01*
X1018362Y8643360D02*
G01*
X941908Y8672316D01*
X1018362Y8643360D02*
G01*
X941908Y8614150D01*
X967308Y8661394D02*
G01*
X967308Y8625072D01*
X1254074Y8767566D02*
G01*
X1261440Y8771376D01*
X1268552Y8778488D01*
X1272362Y8785854D01*
X1272362Y8800332D01*
X1268552Y8807698D01*
X1261440Y8814810D01*
X1254074Y8818620D01*
X1243152Y8822176D01*
X1225118Y8822176D01*
X1214196Y8818620D01*
X1206830Y8814810D01*
X1199464Y8807698D01*
X1195908Y8800332D01*
X1195908Y8785854D01*
X1199464Y8778488D01*
X1206830Y8771376D01*
X1214196Y8767566D01*
X1225118Y8767566D01*
X1225118Y8785854D02*
G01*
X1225118Y8767566D01*
X1272362Y8743690D02*
G01*
X1195908Y8743690D01*
X1272362Y8743690D02*
G01*
X1195908Y8692636D01*
X1272362Y8692636D02*
G01*
X1195908Y8692636D01*
X1272362Y8668760D02*
G01*
X1195908Y8668760D01*
X1272362Y8668760D02*
G01*
X1272362Y8643360D01*
X1268552Y8632438D01*
X1261440Y8625072D01*
X1254074Y8621516D01*
X1243152Y8617706D01*
X1225118Y8617706D01*
X1214196Y8621516D01*
X1206830Y8625072D01*
X1199464Y8632438D01*
X1195908Y8643360D01*
X1195908Y8668760D01*
X1558874Y8822176D02*
G01*
X1482420Y8792966D01*
X1558874Y8764010D02*
G01*
X1482420Y8792966D01*
X1540586Y8685524D02*
G01*
X1547952Y8689080D01*
X1555064Y8696446D01*
X1558874Y8703558D01*
X1558874Y8718290D01*
X1555064Y8725402D01*
X1547952Y8732768D01*
X1540586Y8736324D01*
X1529664Y8739880D01*
X1511630Y8739880D01*
X1500708Y8736324D01*
X1493342Y8732768D01*
X1485976Y8725402D01*
X1482420Y8718290D01*
X1482420Y8703558D01*
X1485976Y8696446D01*
X1493342Y8689080D01*
X1500708Y8685524D01*
X1540586Y8606784D02*
G01*
X1547952Y8610594D01*
X1555064Y8617706D01*
X1558874Y8625072D01*
X1558874Y8639550D01*
X1555064Y8646916D01*
X1547952Y8654282D01*
X1540586Y8657838D01*
X1529664Y8661394D01*
X1511630Y8661394D01*
X1500708Y8657838D01*
X1493342Y8654282D01*
X1485976Y8646916D01*
X1482420Y8639550D01*
X1482420Y8625072D01*
X1485976Y8617706D01*
X1493342Y8610594D01*
X1500708Y8606784D01*
G36*
X9801606Y1122781D02*
G01*
X9694926Y998321D01*
X9684766Y993241D01*
X9649206Y934821D01*
X9631426Y896721D01*
X9603486Y856081D01*
X9593326Y795121D01*
X9575546Y777341D01*
X9575546Y696061D01*
X9560153Y680669D01*
X9560153Y581609D01*
X9557766Y579221D01*
X9567926Y569061D01*
X9575546Y482701D01*
X9590786Y462381D01*
X9603486Y388721D01*
X9636506Y343001D01*
X9646666Y302361D01*
X9689846Y249021D01*
X9689846Y246481D01*
X9806686Y124561D01*
X9806686Y1117701D01*
G37*
G36*
X6914997Y3539998D02*
G01*
X6914997Y3459987D01*
X6945020Y3499967D01*
G37*
G36*
X2715006Y4789982D02*
G01*
X2715006Y4709972D01*
X2744978Y4750003D01*
G37*
G36*
X13249960Y3820007D02*
G01*
X13209981Y3789984D01*
X13289991Y3789984D01*
G37*
G36*
X18099989Y2320086D02*
G01*
X18060009Y2290114D01*
X18139968Y2290064D01*
G37*
G36*
X8774988Y4794961D02*
G01*
X8734958Y4764989D01*
X8814968Y4764989D01*
G37*
D13*
X549986Y7275062D02*
G01*
X2199970Y5625078D01*
X4775022Y5625078D01*
X5274894Y5124952D01*
X6099886Y5124952D01*
X6400114Y4824978D01*
X6400114Y4174992D01*
X1724990Y3450076D02*
G01*
X1674952Y3450076D01*
X1549984Y3575044D01*
X1549984Y4199884D01*
X1950034Y4599934D01*
X5950026Y4599934D01*
X6225108Y4324852D01*
X6225108Y4024878D01*
X14449882Y6374886D02*
G01*
X13210362Y6369044D01*
X10715066Y3849872D01*
X5599760Y3849872D01*
X5499938Y3750050D01*
X5374970Y3750050D01*
D14*
X10426095Y380486D02*
G01*
X10426095Y207766D01*
X10339735Y296666D02*
G01*
X10507375Y296666D01*
D12*
X14182928Y6752076D02*
G01*
X14182928Y6498076D01*
X13166928Y6498076D01*
X13166928Y6752076D01*
X13357428Y6752076D01*
D15*
X14182928Y6752076D02*
G01*
X13357428Y6752076D01*
D12*
X17173016Y5507984D02*
G01*
X17427016Y5507984D01*
X17427016Y4491984D01*
X17173016Y4491984D01*
X17173016Y4682484D01*
D15*
X17173016Y5507984D02*
G01*
X17173016Y4682484D01*
D12*
X477088Y1566920D02*
G01*
X223088Y1566920D01*
X223088Y2582920D01*
X477088Y2582920D01*
X477088Y2392420D01*
D15*
X477088Y1566920D02*
G01*
X477088Y2392420D01*
D12*
X477088Y7417048D02*
G01*
X223088Y7417048D01*
X223088Y8433048D01*
X477088Y8433048D01*
X477088Y8242548D01*
D15*
X477088Y7417048D02*
G01*
X477088Y8242548D01*
D12*
X2177110Y4151878D02*
G01*
X2431110Y4151878D01*
X2431110Y3900418D01*
X1669110Y3900418D01*
X1669110Y4151878D01*
X2177110Y4151878D01*
X8197926Y8047984D02*
G01*
X7943926Y8047984D01*
X7943926Y8299444D01*
X8705926Y8299444D01*
X8705926Y8047984D01*
X8197926Y8047984D01*
D16*
X6965005Y3599987D02*
G01*
X7125004Y3599987D01*
X7125004Y3399988D01*
X6965005Y3399988D01*
X6885005Y3399988D02*
G01*
X6725005Y3399988D01*
X6725005Y3599987D01*
X6885005Y3599987D01*
X7125004Y3599987D02*
G01*
X7125004Y3599987D01*
X7155004Y3569987D01*
X7155004Y3429988D01*
X7155004Y3429988D01*
X7125004Y3399988D01*
X2764995Y4849990D02*
G01*
X2924995Y4849990D01*
X2924995Y4649990D01*
X2764995Y4649990D01*
X2684995Y4649990D02*
G01*
X2524996Y4649990D01*
X2524996Y4849990D01*
X2684995Y4849990D01*
X2924995Y4849990D02*
G01*
X2924995Y4849990D01*
X2954995Y4819990D01*
X2954995Y4679990D01*
X2954995Y4679990D01*
X2924995Y4649990D01*
X13149973Y3839992D02*
G01*
X13149973Y3999992D01*
X13349973Y3999992D01*
X13349973Y3839992D01*
X13349973Y3759992D02*
G01*
X13349973Y3599992D01*
X13149973Y3599992D01*
X13149973Y3759992D01*
X13149973Y3999992D02*
G01*
X13149973Y3999992D01*
X13179973Y4029991D01*
X13319973Y4029991D01*
X13319973Y4029991D01*
X13349973Y3999992D01*
X17999989Y2340091D02*
G01*
X17999989Y2500091D01*
X18199988Y2500091D01*
X18199988Y2340091D01*
X18199988Y2260092D02*
G01*
X18199988Y2100092D01*
X17999989Y2100092D01*
X17999989Y2260092D01*
X17999989Y2500091D02*
G01*
X17999989Y2500091D01*
X18029989Y2530091D01*
X18169989Y2530091D01*
X18169989Y2530091D01*
X18199988Y2500091D01*
X8674983Y4814989D02*
G01*
X8674983Y4974988D01*
X8874983Y4974988D01*
X8874983Y4814989D01*
X8874983Y4734989D02*
G01*
X8874983Y4574989D01*
X8674983Y4574989D01*
X8674983Y4734989D01*
X8674983Y4974988D02*
G01*
X8674983Y4974988D01*
X8704983Y5004988D01*
X8844983Y5004988D01*
X8844983Y5004988D01*
X8874983Y4974988D01*
D14*
X2369395Y3958315D02*
G01*
X2369395Y4091665D01*
X2432895Y4024990D02*
G01*
X2305895Y4024990D01*
D12*
X2470995Y3910690D02*
G01*
X2470995Y4162150D01*
X2978995Y4162150D01*
X2978995Y3910690D01*
X2470995Y3910690D01*
D10*
X17729842Y3682900D02*
G01*
X17593851Y3682900D01*
X17593851Y3467082D01*
X17729842Y3467082D01*
X17920083Y3682900D02*
G01*
X18056075Y3682900D01*
X18056075Y3467082D01*
X17920083Y3467082D01*
X17729842Y3932900D02*
G01*
X17593851Y3932900D01*
X17593851Y3717081D01*
X17729842Y3717081D01*
X17920083Y3932900D02*
G01*
X18056075Y3932900D01*
X18056075Y3717081D01*
X17920083Y3717081D01*
X17729842Y6707893D02*
G01*
X17593851Y6707893D01*
X17593851Y6492074D01*
X17729842Y6492074D01*
X17920083Y6707893D02*
G01*
X18056075Y6707893D01*
X18056075Y6492074D01*
X17920083Y6492074D01*
X17729842Y6957893D02*
G01*
X17593851Y6957893D01*
X17593851Y6742074D01*
X17729842Y6742074D01*
X17920083Y6957893D02*
G01*
X18056075Y6957893D01*
X18056075Y6742074D01*
X17920083Y6742074D01*
X2732902Y5270108D02*
G01*
X2732902Y5406100D01*
X2517084Y5406100D01*
X2517084Y5270108D01*
X2732902Y5079867D02*
G01*
X2732902Y4943876D01*
X2517084Y4943876D01*
X2517084Y5079867D01*
D12*
X17978963Y1326997D02*
G01*
X17978963Y1075537D01*
X17470963Y1075537D01*
X17470963Y1326997D01*
X17978963Y1326997D01*
D14*
X18474964Y1458005D02*
G01*
X18474964Y2708015D01*
X19074963Y2708015D01*
X19074963Y1458005D01*
X18474964Y1458005D01*
D10*
X17729842Y5607898D02*
G01*
X17593851Y5607898D01*
X17593851Y5392079D01*
X17729842Y5392079D01*
X17920083Y5607898D02*
G01*
X18056075Y5607898D01*
X18056075Y5392079D01*
X17920083Y5392079D01*
X17729842Y5857897D02*
G01*
X17593851Y5857897D01*
X17593851Y5642079D01*
X17729842Y5642079D01*
X17920083Y5857897D02*
G01*
X18056075Y5857897D01*
X18056075Y5642079D01*
X17920083Y5642079D01*
D14*
X9439282Y1685696D02*
G01*
X7940682Y1685696D01*
X7940682Y2168296D01*
X9439282Y2168296D01*
X9439282Y1685696D01*
X18281660Y3216869D02*
G01*
X18281660Y3103097D01*
X18281660Y3746868D02*
G01*
X18281660Y3633099D01*
X18780594Y3809984D02*
G01*
X18531822Y3809984D01*
X19223705Y3809984D02*
G01*
X19076824Y3809984D01*
X18780594Y3039983D02*
G01*
X18531824Y3039983D01*
X19223705Y3039983D02*
G01*
X19076824Y3039983D01*
X19223705Y3809984D02*
G01*
X19223705Y3039983D01*
X18812007Y7419784D02*
G01*
X18587918Y7419784D01*
X19004762Y7994997D02*
G01*
X19004762Y7504971D01*
X18812007Y8080184D02*
G01*
X18587918Y8080184D01*
X18395162Y7994997D02*
G01*
X18395162Y7504971D01*
D12*
X12057976Y8301982D02*
G01*
X12057976Y8047982D01*
X11041976Y8047982D01*
X11041976Y8301982D01*
X11232476Y8301982D01*
D15*
X12057976Y8301982D02*
G01*
X11232476Y8301982D01*
D17*
X7930972Y1393596D02*
G01*
X12430963Y1393596D01*
X12430963Y1229995D01*
X12280950Y1229995D01*
X10680954Y1229995D01*
X9680956Y1229995D01*
X8080959Y1229995D01*
X7930972Y1229995D01*
X7930972Y1393596D01*
X10688954Y1393596D02*
G01*
X10688954Y1647596D01*
X10600054Y1647596D01*
X10523854Y1647596D01*
X10346054Y1647596D01*
X10269854Y1647596D01*
X10092054Y1647596D01*
X10015854Y1647596D01*
X9838054Y1647596D01*
X9761854Y1647596D01*
X9672954Y1647596D01*
X9672954Y1393596D01*
X10688954Y1393596D01*
X10600054Y1647596D02*
G01*
X10600054Y1711096D01*
X10523854Y1647596D02*
G01*
X10523854Y1711096D01*
X10346054Y1647596D02*
G01*
X10346054Y1711096D01*
X10092054Y1647596D02*
G01*
X10092054Y1711096D01*
X9838054Y1647596D02*
G01*
X9838054Y1711096D01*
X10269854Y1647596D02*
G01*
X10269854Y1711096D01*
X10015854Y1647596D02*
G01*
X10015854Y1711096D01*
X9761854Y1647596D02*
G01*
X9761854Y1711096D01*
X8080959Y1229995D02*
G01*
X8080959Y29997D01*
X9680956Y29997D01*
X9680956Y1229995D01*
X10680954Y1229995D02*
G01*
X10680954Y29997D01*
X12280950Y29997D01*
X12280950Y1229995D01*
X1393596Y7230973D02*
G01*
X1393596Y2730982D01*
X1229995Y2730982D01*
X1229995Y2880995D01*
X1229995Y4480991D01*
X1229995Y5480989D01*
X1229995Y7080986D01*
X1229995Y7230973D01*
X1393596Y7230973D01*
X1393596Y4472990D02*
G01*
X1647596Y4472990D01*
X1647596Y4561890D01*
X1647596Y4638090D01*
X1647596Y4815890D01*
X1647596Y4892090D01*
X1647596Y5069890D01*
X1647596Y5146090D01*
X1647596Y5323890D01*
X1647596Y5400090D01*
X1647596Y5488990D01*
X1393596Y5488990D01*
X1393596Y4472990D01*
X1647596Y4561890D02*
G01*
X1711096Y4561890D01*
X1647596Y4638090D02*
G01*
X1711096Y4638090D01*
X1647596Y4815890D02*
G01*
X1711096Y4815890D01*
X1647596Y5069890D02*
G01*
X1711096Y5069890D01*
X1647596Y5323890D02*
G01*
X1711096Y5323890D01*
X1647596Y4892090D02*
G01*
X1711096Y4892090D01*
X1647596Y5146090D02*
G01*
X1711096Y5146090D01*
X1647596Y5400090D02*
G01*
X1711096Y5400090D01*
X1229995Y7080986D02*
G01*
X29997Y7080986D01*
X29997Y5480989D01*
X1229995Y5480989D01*
X1229995Y4480991D02*
G01*
X29997Y4480991D01*
X29997Y2880995D01*
X1229995Y2880995D01*
X12430963Y8606383D02*
G01*
X7930972Y8606383D01*
X7930972Y8769985D01*
X8080984Y8769985D01*
X9680981Y8769985D01*
X10680979Y8769985D01*
X12280976Y8769985D01*
X12430963Y8769985D01*
X12430963Y8606383D01*
X9672980Y8606383D02*
G01*
X9672980Y8352383D01*
X9761880Y8352383D01*
X9838080Y8352383D01*
X10015880Y8352383D01*
X10092080Y8352383D01*
X10269880Y8352383D01*
X10346080Y8352383D01*
X10523880Y8352383D01*
X10600080Y8352383D01*
X10688980Y8352383D01*
X10688980Y8606383D01*
X9672980Y8606383D01*
X9761880Y8352383D02*
G01*
X9761880Y8288883D01*
X9838080Y8352383D02*
G01*
X9838080Y8288883D01*
X10015880Y8352383D02*
G01*
X10015880Y8288883D01*
X10269880Y8352383D02*
G01*
X10269880Y8288883D01*
X10523880Y8352383D02*
G01*
X10523880Y8288883D01*
X10092080Y8352383D02*
G01*
X10092080Y8288883D01*
X10346080Y8352383D02*
G01*
X10346080Y8288883D01*
X10600080Y8352383D02*
G01*
X10600080Y8288883D01*
X12280976Y8769985D02*
G01*
X12280976Y9969982D01*
X10680979Y9969982D01*
X10680979Y8769985D01*
X9680981Y8769985D02*
G01*
X9680981Y9969982D01*
X8080984Y9969982D01*
X8080984Y8769985D01*
D12*
X12245975Y1672996D02*
G01*
X12245975Y1924456D01*
X12753975Y1924456D01*
X12753975Y1672996D01*
X12245975Y1672996D01*
D17*
X10733379Y3363493D02*
G01*
X10669879Y3299993D01*
X11050879Y3299993D01*
X11050879Y3680993D01*
X10987379Y3617493D01*
X11050879Y3680993D02*
G01*
X11114379Y3617493D01*
X10669879Y3299993D02*
G01*
X10733379Y3236493D01*
X9145879Y2512593D02*
G01*
X9145879Y4100093D01*
X11241379Y4100093D01*
X11241379Y2512593D01*
X9145879Y2512593D01*
D14*
X7369980Y4699990D02*
G01*
X7369980Y2050006D01*
X12499975Y4699990D02*
G01*
X7369980Y4699990D01*
X12499975Y2049988D02*
G01*
X7369980Y2049988D01*
X12499975Y4699990D02*
G01*
X12499975Y2049988D01*
X18281660Y4791867D02*
G01*
X18281660Y4678095D01*
X18281660Y5321866D02*
G01*
X18281660Y5208097D01*
X18780594Y5384982D02*
G01*
X18531822Y5384982D01*
X19223705Y5384982D02*
G01*
X19076824Y5384982D01*
X18780594Y4614981D02*
G01*
X18531824Y4614981D01*
X19223705Y4614981D02*
G01*
X19076824Y4614981D01*
X19223705Y5384982D02*
G01*
X19223705Y4614981D01*
X18281660Y6366863D02*
G01*
X18281660Y6253091D01*
X18281660Y6896862D02*
G01*
X18281660Y6783092D01*
X18780594Y6959978D02*
G01*
X18531822Y6959978D01*
X19223705Y6959978D02*
G01*
X19076824Y6959978D01*
X18780594Y6189977D02*
G01*
X18531824Y6189977D01*
X19223705Y6189977D02*
G01*
X19076824Y6189977D01*
X19223705Y6959978D02*
G01*
X19223705Y6189977D01*
D12*
X18772962Y876998D02*
G01*
X18772962Y1130998D01*
X19024422Y1130998D01*
X19024422Y368998D01*
X18772962Y368998D01*
X18772962Y876998D01*
X18772962Y9376981D02*
G01*
X18772962Y9630981D01*
X19024422Y9630981D01*
X19024422Y8868981D01*
X18772962Y8868981D01*
X18772962Y9376981D01*
D14*
X263474Y1228592D02*
G01*
X161874Y1228592D01*
X212674Y1177792D01*
X263474Y1228592D01*
D12*
X555574Y1126992D02*
G01*
X111074Y1126992D01*
X111074Y872992D01*
X1889074Y872992D01*
X1889074Y1126992D01*
D15*
X1889074Y1126992D02*
G01*
X555574Y1126992D01*
D14*
X1736674Y8771376D02*
G01*
X1838274Y8771376D01*
X1787474Y8822176D01*
X1736674Y8771376D01*
D12*
X1444574Y8872976D02*
G01*
X1889074Y8872976D01*
X1889074Y9126976D01*
X111074Y9126976D01*
X111074Y8872976D01*
D15*
X111074Y8872976D02*
G01*
X1444574Y8872976D01*
D14*
G75*
G01*
X10177516Y-132D02*
G03*
X10166594Y122I9069J624934D01*
G75*
G01
X18928563Y7940492D02*
G03X18928563Y7940492I-50800J0D01*
G75*
G01
X18572963Y7953192D02*
G03X18572963Y7953192I-50800J0D01*
G75*
G01
X18928563Y7559492D02*
G03X18928563Y7559492I-50800J0D01*
G75*
G01
X18572963Y7572192D02*
G03X18572963Y7572192I-50800J0D01*
G75*
G01
X18814263Y7749992D02*
G03X18814263Y7749992I-114300J0D01*
G75*
G01
X18850077Y7749992D02*
G03X18850077Y7749992I-150114J0D01*
M02*
