G04 Layer: TopPasteMaskLayer*
G04 EasyEDA v6.5.34, 2023-09-07 22:36:22*
G04 6936e88fb932453b8581c8861ee1522a,0b3e81c085af431c91bff7fd5324728f,10*
G04 Gerber Generator version 0.2*
G04 Scale: 100 percent, Rotated: No, Reflected: No *
G04 Dimensions in millimeters *
G04 leading zeros omitted , absolute positions ,4 integer and 5 decimal *
%FSLAX45Y45*%
%MOMM*%

%ADD10R,1.3005X1.3995*%
%ADD11R,1.3995X1.3005*%
%ADD12R,2.2500X0.5000*%
%ADD13R,2.5000X2.0000*%

%LPD*%
G36*
X17626736Y3660038D02*
G01*
X17616728Y3650030D01*
X17616728Y3499967D01*
X17626736Y3489960D01*
X17727472Y3489960D01*
X17737480Y3499967D01*
X17737480Y3536086D01*
X17727472Y3546094D01*
X17706390Y3546094D01*
X17696383Y3556050D01*
X17696383Y3593896D01*
X17706390Y3603904D01*
X17727472Y3603904D01*
X17737480Y3613912D01*
X17737480Y3650030D01*
X17727472Y3660038D01*
G37*
G36*
X17922443Y3660038D02*
G01*
X17912486Y3650030D01*
X17912486Y3613912D01*
X17922443Y3603904D01*
X17943525Y3603904D01*
X17953532Y3593896D01*
X17953532Y3556050D01*
X17943525Y3546094D01*
X17922443Y3546094D01*
X17912486Y3536086D01*
X17912486Y3499967D01*
X17922443Y3489960D01*
X18023230Y3489960D01*
X18033238Y3499967D01*
X18033238Y3650030D01*
X18023230Y3660038D01*
G37*
G36*
X17626736Y3910025D02*
G01*
X17616728Y3900017D01*
X17616728Y3749954D01*
X17626736Y3739946D01*
X17727472Y3739946D01*
X17737480Y3749954D01*
X17737480Y3786073D01*
X17727472Y3796080D01*
X17706390Y3796080D01*
X17696383Y3806088D01*
X17696383Y3843934D01*
X17706390Y3853891D01*
X17727472Y3853891D01*
X17737480Y3863898D01*
X17737480Y3900017D01*
X17727472Y3910025D01*
G37*
G36*
X17922443Y3910025D02*
G01*
X17912486Y3900017D01*
X17912486Y3863898D01*
X17922443Y3853891D01*
X17943525Y3853891D01*
X17953532Y3843934D01*
X17953532Y3806088D01*
X17943525Y3796080D01*
X17922443Y3796080D01*
X17912486Y3786073D01*
X17912486Y3749954D01*
X17922443Y3739946D01*
X18023230Y3739946D01*
X18033238Y3749954D01*
X18033238Y3900017D01*
X18023230Y3910025D01*
G37*
G36*
X17626736Y6685025D02*
G01*
X17616728Y6675018D01*
X17616728Y6524955D01*
X17626736Y6514947D01*
X17727472Y6514947D01*
X17737480Y6524955D01*
X17737480Y6561074D01*
X17727472Y6571081D01*
X17706390Y6571081D01*
X17696383Y6581089D01*
X17696383Y6618884D01*
X17706390Y6628892D01*
X17727472Y6628892D01*
X17737480Y6638899D01*
X17737480Y6675018D01*
X17727472Y6685025D01*
G37*
G36*
X17922443Y6685025D02*
G01*
X17912486Y6675018D01*
X17912486Y6638899D01*
X17922443Y6628892D01*
X17943525Y6628892D01*
X17953532Y6618884D01*
X17953532Y6581089D01*
X17943525Y6571081D01*
X17922443Y6571081D01*
X17912486Y6561074D01*
X17912486Y6524955D01*
X17922443Y6514947D01*
X18023230Y6514947D01*
X18033238Y6524955D01*
X18033238Y6675018D01*
X18023230Y6685025D01*
G37*
G36*
X17626736Y6935012D02*
G01*
X17616728Y6925056D01*
X17616728Y6774942D01*
X17626736Y6764934D01*
X17727472Y6764934D01*
X17737480Y6774942D01*
X17737480Y6811060D01*
X17727472Y6821068D01*
X17706390Y6821068D01*
X17696383Y6831075D01*
X17696383Y6868922D01*
X17706390Y6878878D01*
X17727472Y6878878D01*
X17737480Y6888886D01*
X17737480Y6925056D01*
X17727472Y6935012D01*
G37*
G36*
X17922443Y6935012D02*
G01*
X17912486Y6925056D01*
X17912486Y6888886D01*
X17922443Y6878878D01*
X17943525Y6878878D01*
X17953532Y6868922D01*
X17953532Y6831075D01*
X17943525Y6821068D01*
X17922443Y6821068D01*
X17912486Y6811060D01*
X17912486Y6774942D01*
X17922443Y6764934D01*
X18023230Y6764934D01*
X18033238Y6774942D01*
X18033238Y6925056D01*
X18023230Y6935012D01*
G37*
G36*
X2549956Y5383225D02*
G01*
X2539949Y5373217D01*
X2539949Y5272481D01*
X2549956Y5262473D01*
X2586075Y5262473D01*
X2596083Y5272481D01*
X2596083Y5293563D01*
X2606090Y5303520D01*
X2643936Y5303520D01*
X2653893Y5293563D01*
X2653893Y5272481D01*
X2663901Y5262473D01*
X2700020Y5262473D01*
X2710027Y5272481D01*
X2710027Y5373217D01*
X2700020Y5383225D01*
G37*
G36*
X2549956Y5087467D02*
G01*
X2539949Y5077510D01*
X2539949Y4976723D01*
X2549956Y4966716D01*
X2700020Y4966716D01*
X2710027Y4976723D01*
X2710027Y5077510D01*
X2700020Y5087467D01*
X2663901Y5087467D01*
X2653893Y5077510D01*
X2653893Y5056428D01*
X2643936Y5046421D01*
X2606090Y5046421D01*
X2596083Y5056428D01*
X2596083Y5077510D01*
X2586075Y5087467D01*
G37*
G36*
X17626736Y5585053D02*
G01*
X17616728Y5575046D01*
X17616728Y5424932D01*
X17626736Y5414924D01*
X17727472Y5414924D01*
X17737480Y5424932D01*
X17737480Y5461050D01*
X17727472Y5471058D01*
X17706390Y5471058D01*
X17696383Y5481066D01*
X17696383Y5518912D01*
X17706390Y5528919D01*
X17727472Y5528919D01*
X17737480Y5538927D01*
X17737480Y5575046D01*
X17727472Y5585053D01*
G37*
G36*
X17922443Y5585053D02*
G01*
X17912486Y5575046D01*
X17912486Y5538927D01*
X17922443Y5528919D01*
X17943525Y5528919D01*
X17953532Y5518912D01*
X17953532Y5481066D01*
X17943525Y5471058D01*
X17922443Y5471058D01*
X17912486Y5461050D01*
X17912486Y5424932D01*
X17922443Y5414924D01*
X18023230Y5414924D01*
X18033238Y5424932D01*
X18033238Y5575046D01*
X18023230Y5585053D01*
G37*
G36*
X17626736Y5835040D02*
G01*
X17616728Y5825032D01*
X17616728Y5674918D01*
X17626736Y5664962D01*
X17727472Y5664962D01*
X17737480Y5674918D01*
X17737480Y5711088D01*
X17727472Y5721096D01*
X17706390Y5721096D01*
X17696383Y5731052D01*
X17696383Y5768898D01*
X17706390Y5778906D01*
X17727472Y5778906D01*
X17737480Y5788914D01*
X17737480Y5825032D01*
X17727472Y5835040D01*
G37*
G36*
X17922443Y5835040D02*
G01*
X17912486Y5825032D01*
X17912486Y5788914D01*
X17922443Y5778906D01*
X17943525Y5778906D01*
X17953532Y5768898D01*
X17953532Y5731052D01*
X17943525Y5721096D01*
X17922443Y5721096D01*
X17912486Y5711088D01*
X17912486Y5674918D01*
X17922443Y5664962D01*
X18023230Y5664962D01*
X18033238Y5674918D01*
X18033238Y5825032D01*
X18023230Y5835040D01*
G37*
D10*
G01*
X6819976Y3499987D03*
G01*
X7030034Y3499987D03*
G01*
X2619959Y4749998D03*
G01*
X2830017Y4749998D03*
D11*
G01*
X13249986Y3694958D03*
G01*
X13249986Y3905016D03*
G01*
X18099989Y2195062D03*
G01*
X18099989Y2405120D03*
G01*
X8774988Y4669962D03*
G01*
X8774988Y4880020D03*
D12*
G01*
X18371210Y3264987D03*
G01*
X18371210Y3344971D03*
G01*
X18371210Y3424981D03*
G01*
X18371210Y3504991D03*
G01*
X18371210Y3584976D03*
D13*
G01*
X18383707Y2979973D03*
G01*
X18383707Y3869989D03*
G01*
X18928715Y2979973D03*
G01*
X18928715Y3869989D03*
D12*
G01*
X18371210Y4839990D03*
G01*
X18371210Y4919974D03*
G01*
X18371210Y4999984D03*
G01*
X18371210Y5079969D03*
G01*
X18371210Y5159979D03*
D13*
G01*
X18383707Y4554976D03*
G01*
X18383707Y5444967D03*
G01*
X18928715Y4554976D03*
G01*
X18928715Y5444992D03*
D12*
G01*
X18371210Y6414968D03*
G01*
X18371210Y6494978D03*
G01*
X18371210Y6574988D03*
G01*
X18371210Y6654972D03*
G01*
X18371210Y6734982D03*
D13*
G01*
X18383707Y6129980D03*
G01*
X18383707Y7019970D03*
G01*
X18928715Y6129980D03*
G01*
X18928715Y7019970D03*
M02*
