G04 Layer: TopLayer*
G04 EasyEDA v6.5.34, 2023-09-07 22:36:22*
G04 6936e88fb932453b8581c8861ee1522a,0b3e81c085af431c91bff7fd5324728f,10*
G04 Gerber Generator version 0.2*
G04 Scale: 100 percent, Rotated: No, Reflected: No *
G04 Dimensions in millimeters *
G04 leading zeros omitted , absolute positions ,4 integer and 5 decimal *
%FSLAX45Y45*%
%MOMM*%

%AMMACRO1*21,1,$1,$2,0,0,$3*%
%ADD10C,0.5080*%
%ADD11C,0.7000*%
%ADD12C,1.2700*%
%ADD13C,1.0000*%
%ADD14R,1.3005X1.3995*%
%ADD15R,1.3995X1.3005*%
%ADD16MACRO1,1.701X1.2075X-90.0000*%
%ADD17MACRO1,1.701X1.2075X0.0000*%
%ADD18R,1.7010X1.2075*%
%ADD19R,2.2500X0.5000*%
%ADD20R,2.5000X2.0000*%
%ADD21C,2.2000*%
%ADD22R,1.5748X1.5748*%
%ADD23C,1.5748*%
%ADD24O,1.5748X2.999994*%
%ADD25O,3.9999919999999998X1.7999964*%
%ADD26O,1.524X2.999994*%
%ADD27C,1.8000*%
%ADD28O,1.5079980000000002X2.999994*%
%ADD29O,2.999994X1.5079980000000002*%
%ADD30O,1.778X3.556*%
%ADD31C,3.4000*%
%ADD32R,3.4000X3.4000*%
%ADD33O,2.999994X1.5748*%
%ADD34C,1.6000*%
%ADD35C,0.0149*%

%LPD*%
D10*
X10749978Y3674993D02*
G01*
X11074984Y3674993D01*
X11174984Y3574994D01*
D11*
X749881Y6225026D02*
G01*
X749993Y6225138D01*
X749993Y8674983D01*
X750011Y8674983D01*
X10974908Y7824972D02*
G01*
X11124976Y7824985D01*
X11174984Y7874993D01*
X11174984Y7924972D01*
X1000074Y6274810D02*
G01*
X1099896Y6174988D01*
X2875102Y6174988D01*
X3525088Y5525002D01*
X4074998Y5525002D01*
X4175074Y5625078D01*
X4175074Y6249918D01*
X4749876Y6824974D01*
X8849944Y6824974D01*
X9000058Y6975088D01*
X9000058Y7625074D01*
X9199956Y7824972D01*
X10974908Y7824972D01*
X11300028Y4249922D02*
G01*
X12175058Y5124952D01*
X12175058Y5999982D01*
D10*
X18371134Y3264910D02*
G01*
X17685080Y3264910D01*
X17424984Y3525006D01*
X14724964Y3525006D01*
X14499920Y3750050D01*
X14499920Y4150100D01*
X14324914Y4325106D01*
X13624890Y4325106D01*
X13175056Y4774940D01*
X13175056Y5599932D01*
X12624892Y6150096D01*
X11374958Y6150096D01*
X16324910Y6349994D02*
G01*
X16125012Y6549892D01*
X14399844Y6549892D01*
X14199946Y6349994D01*
X13125018Y6349994D01*
X12924866Y6549892D01*
X11549964Y6549892D01*
X11499926Y6499854D01*
X17972862Y5500110D02*
G01*
X17972862Y5052054D01*
X18104942Y4919974D01*
X18371134Y4919974D01*
X18371134Y4840980D02*
G01*
X18035092Y4840980D01*
X17525060Y5349996D01*
X17525060Y5500110D01*
X17350054Y5674100D01*
X16449624Y5674100D01*
X16048812Y6074912D01*
X15074976Y6074912D01*
X15074976Y6024874D01*
X18371134Y4999984D02*
G01*
X18225084Y4999984D01*
X18149900Y5074914D01*
X18149900Y5675116D01*
X18074970Y5750046D01*
X17972862Y5750046D01*
X18371134Y6494774D02*
G01*
X18155234Y6494774D01*
X18050078Y6599930D01*
X17972862Y6599930D01*
X18371134Y6574784D02*
G01*
X18225084Y6574784D01*
X18149900Y6649968D01*
X18149900Y6774936D01*
X18074970Y6849866D01*
X17972862Y6849866D01*
X11849938Y5999982D02*
G01*
X11825046Y5999982D01*
X11775008Y6050020D01*
X11424996Y6050020D01*
X10974908Y5599932D01*
X10024948Y5599932D01*
X9749866Y5875014D01*
X8799906Y5875014D01*
X8749868Y5824976D01*
X10825048Y7024872D02*
G01*
X10749864Y6949942D01*
X9574860Y6949942D01*
X9000058Y6374886D01*
X7499934Y6374886D01*
X7399858Y6474962D01*
X7199960Y6474962D01*
X7074992Y6349994D01*
X7074992Y6325102D01*
X11374958Y6150096D02*
G01*
X11374958Y6150096D01*
X10924870Y5700008D01*
X10074986Y5700008D01*
X9799904Y5975090D01*
X7697721Y5975090D01*
X5450001Y4949997D02*
G01*
X5450001Y5050119D01*
X6024958Y5625076D01*
X6724985Y5625076D01*
X6875089Y5774941D01*
X7247475Y5774941D01*
X7247475Y5774941D02*
G01*
X7974916Y5774941D01*
X8125023Y5625076D01*
X8125023Y5074914D01*
X9024950Y4174987D01*
X9249989Y4174987D01*
X9324987Y4249991D01*
X9324987Y4374989D01*
X9449889Y4499899D01*
X9449889Y4800084D01*
X17677206Y3575044D02*
G01*
X17549952Y3575044D01*
X17499914Y3625082D01*
X14774748Y3625082D01*
X14599996Y3800088D01*
X14599996Y4199884D01*
X14374952Y4424928D01*
X13674928Y4424928D01*
X13274878Y4824978D01*
X13274878Y5649970D01*
X12674930Y6249918D01*
X11324920Y6249918D01*
X10875086Y5800084D01*
X10125024Y5800084D01*
X9850196Y6074912D01*
X5950026Y6074912D01*
X7697721Y5975090D02*
G01*
X6650050Y5975090D01*
X6600012Y5925052D01*
X5724982Y5524977D02*
G01*
X5924908Y5724903D01*
X6674939Y5724903D01*
X6825058Y5875014D01*
X8700081Y5875014D01*
X8749865Y5824976D01*
X11099876Y7050018D02*
G01*
X12125020Y7050018D01*
X12225096Y7150094D01*
X12225096Y7450068D01*
X12324918Y7549890D01*
X12875082Y7549890D01*
X12974904Y7450068D01*
X12974904Y6999980D01*
D11*
X9799904Y8199876D02*
G01*
X9799904Y8024870D01*
X9875088Y7949940D01*
X10724972Y7949940D01*
X10974908Y8199876D01*
X10974908Y8474958D01*
D10*
X2624912Y5322818D02*
G01*
X2776550Y5323326D01*
X2825064Y5275066D01*
X4175074Y5275066D01*
X4474992Y5574987D01*
X4999812Y5575040D01*
X5724982Y5525002D02*
G01*
X5724982Y5575040D01*
X4999812Y5575040D01*
X4724984Y5300212D01*
X4724984Y4949946D01*
X4899990Y4774940D01*
X4899990Y4525004D01*
X5050104Y4374890D01*
X5775020Y4374890D01*
X5825058Y4424928D01*
D12*
X10428960Y624987D02*
G01*
X11450043Y624987D01*
X11950016Y1124960D01*
X11950016Y1927603D01*
X12284024Y2261610D01*
X12074982Y2625084D02*
G01*
X12000052Y2625084D01*
X11175060Y1800092D01*
X10561904Y1800092D01*
X11270518Y1870539D02*
G01*
X11416073Y1724985D01*
X11424970Y1724985D01*
D10*
X17499914Y3074918D02*
G01*
X17249724Y3325108D01*
X10499928Y3325108D01*
X10175062Y3649974D01*
X10074986Y3649974D01*
X6624909Y4199887D02*
G01*
X7349815Y4924803D01*
X7825059Y4924803D01*
X9000058Y3750053D01*
X9374967Y3750053D01*
X9900231Y3225540D01*
X11824431Y3225540D01*
X11949981Y3099988D01*
X12049988Y3099988D01*
X4924882Y4999984D02*
G01*
X4924882Y4925054D01*
X5000066Y4850124D01*
X5000066Y4574788D01*
X5099888Y4474966D01*
X5600014Y4474966D01*
X5724982Y4599934D01*
X6874840Y4599934D01*
X7299782Y5024876D01*
X7875092Y5024876D01*
X8924874Y3975094D01*
X12849936Y3975094D01*
X12950012Y4074916D01*
D11*
X749884Y6225026D02*
G01*
X950036Y6024874D01*
X2825064Y6024874D01*
X3475050Y5374888D01*
X4125036Y5374888D01*
X4324934Y5574786D01*
X4324934Y6199880D01*
X4799914Y6674860D01*
X8924874Y6674860D01*
X9149918Y6899904D01*
X9149918Y7549890D01*
X9274886Y7674858D01*
X11175060Y7674858D01*
X11175060Y7674858D02*
G01*
X11324920Y7674858D01*
X11424996Y7774934D01*
X11424996Y7824972D01*
D10*
X17677079Y6849993D02*
G01*
X17025322Y6849993D01*
X17025193Y6849864D01*
X10024864Y6849864D01*
X9774981Y6599981D01*
X18099862Y4199884D02*
G01*
X17649774Y4200138D01*
X17599990Y4249922D01*
X17599990Y4724902D01*
D11*
X15775000Y3975094D02*
G01*
X16074974Y4275068D01*
X16074974Y5199882D01*
X15924860Y5349996D01*
X15924860Y5450072D01*
D10*
X18383834Y4554976D02*
G01*
X18095036Y4554976D01*
X17549952Y5100060D01*
X5825058Y4424928D02*
G01*
X5875096Y4374890D01*
X5875096Y3925056D01*
X6050102Y3750050D01*
X6199962Y3750050D01*
X6499936Y4050024D01*
X6724980Y4050024D01*
X6875094Y4199884D01*
X7024954Y4199884D01*
X8600008Y3899910D02*
G01*
X8600008Y3999986D01*
X7775016Y4824978D01*
X7399858Y4824978D01*
X7175068Y4599934D01*
X7175068Y4050024D01*
X6974916Y3849872D01*
X6600012Y3849872D01*
X6225108Y3474968D01*
X4624908Y3474968D01*
X4274896Y3824980D01*
X4274896Y4398766D01*
X3498672Y5174990D01*
X2499944Y5174990D01*
X2425014Y5249920D01*
X2425014Y5649970D01*
X2199970Y5875014D01*
X449910Y5875014D01*
X99898Y6225026D01*
X99898Y8400028D01*
X9449892Y5599932D02*
G01*
X9449892Y4800086D01*
X1500002Y2399995D02*
G01*
X1499951Y1324858D01*
D11*
X1000074Y2425440D02*
G01*
X400126Y3024880D01*
X400126Y5625078D01*
X499948Y5724900D01*
X549986Y5724900D01*
X1000074Y6274810D02*
G01*
X1000000Y6274884D01*
X1000000Y8674981D01*
X999997Y8674983D01*
D10*
X8775014Y3675120D02*
G01*
X8600008Y3675120D01*
X8425002Y3849872D01*
X8425002Y4024878D01*
X7724978Y4724902D01*
X7449896Y4724902D01*
X7274890Y4549896D01*
X7274890Y3999986D01*
X7024954Y3750050D01*
X6650050Y3750050D01*
X6274892Y3374892D01*
X4574870Y3374892D01*
X4175074Y3774688D01*
X4175074Y4349998D01*
X4000068Y4525004D01*
X2475052Y4525004D01*
X2274900Y4725156D01*
X2274900Y5575040D01*
X2125040Y5724900D01*
X824814Y5724900D01*
X574878Y5474964D01*
X574878Y4625080D01*
X749884Y4450074D01*
X749884Y3150102D01*
X1499946Y2400040D01*
D11*
X1799920Y4599934D02*
G01*
X2024964Y4599934D01*
X2149932Y4724902D01*
X2149932Y5474964D01*
X2050110Y5575040D01*
X899998Y5575040D01*
X724992Y5400034D01*
X724992Y4800086D01*
X575132Y4325106D02*
G01*
X575132Y3100064D01*
X1250010Y2424932D01*
X1249997Y2424950D02*
G01*
X1245933Y1329194D01*
X1000074Y2424932D02*
G01*
X999997Y2424856D01*
X999997Y1324996D01*
D10*
X99900Y8400026D02*
G01*
X374858Y8674983D01*
X499999Y8674983D01*
X10574985Y7099980D02*
G01*
X10524992Y7049988D01*
X10274980Y7049988D01*
X9524987Y7049988D01*
X9474979Y6999988D01*
X8949977Y6474985D01*
X8474979Y6474985D01*
X7549987Y6474985D01*
X7449987Y6574985D01*
X7224984Y6574985D01*
X7099980Y6574985D01*
X6849986Y6324983D01*
D13*
X8899982Y8400028D02*
G01*
X8899982Y8474958D01*
X9050096Y8625072D01*
X10399852Y8625072D01*
X10561904Y8463020D01*
X10561904Y8199876D01*
X9149918Y3599936D02*
G01*
X9050096Y3599936D01*
X8749868Y3299962D01*
X7674940Y3299962D01*
X7399858Y3575044D01*
X7324928Y3575044D01*
D10*
X5224856Y3225032D02*
G01*
X6274892Y3225032D01*
X6700088Y3649974D01*
X6950024Y3649974D01*
X7030034Y3569964D01*
X7030034Y3499860D01*
D13*
X7300036Y3324854D02*
G01*
X7300036Y3249924D01*
X7499934Y3050026D01*
X8950020Y3050026D01*
X9149918Y3249924D01*
X9149918Y3374892D01*
X11624894Y1450080D02*
G01*
X11424996Y1249928D01*
X10050094Y1249928D01*
X9799904Y1500118D01*
X9799904Y1800092D01*
X18099862Y2385054D02*
G01*
X18099862Y2500116D01*
X18383834Y2783834D01*
X18383834Y2979922D01*
D10*
X18371210Y6734975D02*
G01*
X18383707Y6747471D01*
X18383707Y7019963D01*
X18371134Y3424930D02*
G01*
X18225084Y3424930D01*
X18149900Y3500114D01*
X18149900Y3750050D01*
X18074970Y3824980D01*
X17972862Y3824980D01*
X17677206Y5750046D02*
G01*
X17599990Y5750046D01*
X17475022Y5875014D01*
X16549954Y5875014D01*
X16024936Y6400032D01*
X14825040Y6400032D01*
D11*
X12000052Y5824976D02*
G01*
X12000052Y5324850D01*
X11050092Y4374890D01*
D10*
X9474987Y4324979D02*
G01*
X10325041Y4324979D01*
X10899973Y4899911D01*
X10899973Y5525002D01*
X10974908Y5599930D01*
D11*
X9274886Y5724900D02*
G01*
X9274886Y5450072D01*
X9000058Y5174990D01*
X8724976Y5174990D01*
D10*
X17677206Y3824980D02*
G01*
X17449876Y3824980D01*
X17349800Y3724904D01*
X14825040Y3724904D01*
X14700072Y3849872D01*
X14700072Y4249922D01*
X14424990Y4525004D01*
X13724966Y4525004D01*
X13374954Y4875016D01*
X13374954Y5700008D01*
X12724968Y6349994D01*
X11275136Y6349994D01*
X10825048Y5899906D01*
X10149916Y5899906D01*
X9875088Y6174988D01*
X6175070Y6174988D01*
X6074994Y6275064D01*
D11*
X8624900Y4999984D02*
G01*
X8700084Y4999984D01*
X8775014Y4925054D01*
X8775014Y4880096D01*
X2575001Y4374992D02*
G01*
X1874987Y4374992D01*
X1800001Y4449978D01*
X1800001Y4599985D01*
D13*
X2624988Y5027112D02*
G01*
X2619966Y5022090D01*
X2619966Y4749990D01*
X3075000Y4700010D02*
G01*
X3025013Y4749998D01*
X2830017Y4749998D01*
X13700074Y3824980D02*
G01*
X13570026Y3694932D01*
X13249986Y3694932D01*
X13499975Y3949997D02*
G01*
X13454994Y3905016D01*
X13249986Y3905016D01*
X12284024Y4484110D02*
G01*
X12300026Y4500112D01*
X13249986Y4500112D01*
X13499922Y4249922D01*
X13499922Y3949948D01*
D10*
X18371210Y3584981D02*
G01*
X18383707Y3597478D01*
X18383707Y3869969D01*
D13*
X18174964Y1450007D02*
G01*
X18099963Y1525008D01*
X18099963Y2215001D01*
D10*
X7030034Y3499860D02*
G01*
X7030034Y3605016D01*
X7199960Y3774942D01*
X7401128Y3774942D01*
X7584008Y3957568D01*
X7585024Y4101840D01*
D12*
X7585024Y4484110D02*
G01*
X7585024Y4101840D01*
D10*
X6899986Y3999986D02*
G01*
X6849440Y3949948D01*
X6549974Y3949948D01*
X6175070Y3575044D01*
X4674946Y3575044D01*
X4374972Y3875018D01*
X4374972Y4774940D01*
X4324934Y4824978D01*
X6624980Y3324981D02*
G01*
X6624980Y3424339D01*
X6700502Y3499860D01*
X6819976Y3499987D01*
X15599994Y3899910D02*
G01*
X15524810Y3824980D01*
X14875078Y3824980D01*
X14799894Y3899910D01*
X14799894Y4300214D01*
X14475028Y4625080D01*
X13849934Y4625080D01*
X13549960Y4925054D01*
X18371134Y3344920D02*
G01*
X18054904Y3344920D01*
X17972862Y3427216D01*
X17972862Y3575044D01*
X17874970Y3099988D02*
G01*
X17674970Y3099988D01*
X17348756Y3426203D01*
X10548762Y3426203D01*
X10249989Y3724976D01*
X10249989Y3824980D01*
D12*
X18374961Y3874993D02*
G01*
X18919791Y3874993D01*
D10*
X18371210Y6414993D02*
G01*
X17159833Y6414993D01*
X16924858Y6649968D01*
X14349945Y6649968D01*
X14150055Y6450068D01*
X13174797Y6450068D01*
X12974909Y6649968D01*
X10525074Y6649968D01*
X10249989Y6374884D01*
X17649774Y4200138D02*
G01*
X17274870Y3824980D01*
X15674924Y3824980D01*
X15599994Y3899910D01*
X15599994Y4225030D01*
X15724962Y4349998D01*
X13724966Y5749996D02*
G01*
X13724966Y4974996D01*
X13974973Y4724989D01*
X14524979Y4724989D01*
X14950008Y4299960D01*
X15449885Y4299960D01*
X15549958Y4400034D01*
X15549958Y4450072D01*
X9174993Y4324982D02*
G01*
X9024985Y4324982D01*
X8774988Y4574979D01*
X8774988Y4669962D01*
X11499926Y6500108D02*
G01*
X11449888Y6450070D01*
X11225098Y6450070D01*
X11099876Y6325102D01*
X18371210Y5159979D02*
G01*
X18383707Y5172476D01*
X18383707Y5444967D01*
D12*
X18928664Y7019886D02*
G01*
X18383834Y7019886D01*
X18383707Y6129972D02*
G01*
X18928715Y6129972D01*
X18383831Y5444995D02*
G01*
X18383831Y6129980D01*
X18383707Y6129980D01*
X18928715Y6129980D02*
G01*
X18928715Y5444995D01*
X18928717Y5444995D01*
X18928715Y4554976D02*
G01*
X18928715Y5444992D01*
X18928715Y3869989D02*
G01*
X18928715Y4554976D01*
X18928717Y4554976D01*
X18383707Y4554976D02*
G01*
X18383707Y3869964D01*
X18383707Y3869964D01*
X18383707Y2979978D02*
G01*
X18928715Y2979978D01*
X18928715Y6129972D02*
G01*
X18928715Y7019988D01*
X18928717Y7019993D02*
G01*
X18925006Y7023704D01*
X18925006Y7424872D01*
X18928715Y2979978D02*
G01*
X18928715Y3869994D01*
D10*
X17677208Y5500110D02*
G01*
X17402373Y5774941D01*
X16499916Y5774941D01*
X16099866Y6174991D01*
X14699968Y6174991D01*
X14624964Y6249995D01*
X17677079Y6599981D02*
G01*
X17124964Y6599981D01*
X16974901Y6750044D01*
X10125024Y6750044D01*
X9825050Y6450068D01*
X9624900Y6450068D01*
X9549965Y6525003D01*
X10824974Y7024984D02*
G01*
X10899973Y6949988D01*
X10974981Y6949988D01*
X12299972Y6949988D01*
X12349967Y6999980D01*
X12374981Y6999980D01*
X13549980Y4924976D02*
G01*
X13475035Y4999931D01*
X13475035Y5799924D01*
X13574979Y5899871D01*
X13574979Y5924976D01*
X10574985Y7099980D02*
G01*
X10649988Y7174984D01*
X10899973Y7174984D01*
X11024976Y7049988D01*
X11099972Y7049988D01*
X12874980Y6399982D02*
G01*
X13024975Y6249987D01*
X13349968Y6249987D01*
X13350067Y6249918D02*
G01*
X14400100Y6249918D01*
X14775035Y5874984D01*
X15124968Y5874984D01*
X15225041Y5975057D01*
X15749912Y5975057D01*
X15874974Y5849995D01*
X13374954Y6100058D02*
G01*
X13424992Y6150096D01*
X13574598Y6150096D01*
X13899972Y5824722D01*
X13899972Y4949946D01*
X14024940Y4824978D01*
X15475026Y4824978D01*
X15624886Y4975092D01*
X15624886Y5824976D01*
D11*
X1099896Y6400032D02*
G01*
X1099896Y6446006D01*
X1000074Y6545828D01*
X250012Y6399982D02*
G01*
X662203Y6399982D01*
X749881Y6487660D01*
D10*
X1724990Y3724981D02*
G01*
X1525089Y3924881D01*
X1525089Y5275064D01*
X1611957Y5361937D01*
X1799915Y5361937D01*
X4575124Y5400034D02*
G01*
X4574870Y4800086D01*
X4674946Y4700010D01*
X4724984Y4700010D01*
D12*
X17549952Y2774944D02*
G01*
X17149902Y3174994D01*
X12700076Y3174994D01*
X12284024Y2759196D01*
X12284024Y2261610D01*
X17849926Y1450080D02*
G01*
X17674920Y1625086D01*
X17674920Y2450078D01*
X18205018Y2979922D01*
X18383834Y2979922D01*
D10*
X11099876Y6325102D02*
G01*
X10774761Y5999987D01*
X10199979Y5999987D01*
X9924981Y6274986D01*
X7349985Y6274986D01*
X7299985Y6324986D01*
X4950028Y5275066D02*
G01*
X5024958Y5275066D01*
X5099888Y5200136D01*
X5099888Y4625080D01*
X5149926Y4575042D01*
X5549976Y4575042D01*
X5674944Y4700010D01*
X6825056Y4700010D01*
X7249998Y5124952D01*
X7924876Y5124952D01*
X8975166Y4074916D01*
X12649784Y4074916D01*
X12874828Y4299960D01*
X13099872Y4299960D01*
D14*
G01*
X6819976Y3499987D03*
G01*
X7030034Y3499987D03*
G01*
X2619959Y4749998D03*
G01*
X2830017Y4749998D03*
D15*
G01*
X13249986Y3694958D03*
G01*
X13249986Y3905016D03*
G01*
X18099989Y2195062D03*
G01*
X18099989Y2405120D03*
G01*
X8774988Y4669962D03*
G01*
X8774988Y4880020D03*
D16*
G01*
X17677086Y3574991D03*
G01*
X17972839Y3574991D03*
G01*
X17677086Y3824991D03*
G01*
X17972839Y3824991D03*
G01*
X17677086Y6599984D03*
G01*
X17972839Y6599984D03*
G01*
X17677086Y6849983D03*
G01*
X17972839Y6849983D03*
D17*
G01*
X2624993Y5322864D03*
D18*
G01*
X2624988Y5027112D03*
D16*
G01*
X17677086Y5499989D03*
G01*
X17972839Y5499989D03*
G01*
X17677086Y5749988D03*
G01*
X17972839Y5749988D03*
D19*
G01*
X18371210Y3264987D03*
G01*
X18371210Y3344971D03*
G01*
X18371210Y3424981D03*
G01*
X18371210Y3504991D03*
G01*
X18371210Y3584976D03*
D20*
G01*
X18383707Y2979973D03*
G01*
X18383707Y3869989D03*
G01*
X18928715Y2979973D03*
G01*
X18928715Y3869989D03*
D19*
G01*
X18371210Y4839990D03*
G01*
X18371210Y4919974D03*
G01*
X18371210Y4999984D03*
G01*
X18371210Y5079969D03*
G01*
X18371210Y5159979D03*
D20*
G01*
X18383707Y4554976D03*
G01*
X18383707Y5444967D03*
G01*
X18928715Y4554976D03*
G01*
X18928715Y5444992D03*
D19*
G01*
X18371210Y6414968D03*
G01*
X18371210Y6494978D03*
G01*
X18371210Y6574988D03*
G01*
X18371210Y6654972D03*
G01*
X18371210Y6734982D03*
D20*
G01*
X18383707Y6129980D03*
G01*
X18383707Y7019970D03*
G01*
X18928715Y6129980D03*
G01*
X18928715Y7019970D03*
D21*
G01*
X10428965Y624961D03*
G01*
X9920965Y624961D03*
D22*
G01*
X13293928Y6625076D03*
D23*
G01*
X13547928Y6625076D03*
G01*
X13801928Y6625076D03*
G01*
X14055928Y6625076D03*
D22*
G01*
X17300016Y4618984D03*
D23*
G01*
X17300016Y4872984D03*
G01*
X17300016Y5126984D03*
G01*
X17300016Y5380984D03*
D22*
G01*
X350088Y2455920D03*
D23*
G01*
X350088Y2201920D03*
G01*
X350088Y1947920D03*
G01*
X350088Y1693920D03*
D22*
G01*
X350088Y8306048D03*
D23*
G01*
X350088Y8052048D03*
G01*
X350088Y7798048D03*
G01*
X350088Y7544048D03*
D22*
G01*
X1796110Y4024878D03*
D23*
G01*
X2050110Y4024878D03*
G01*
X2304110Y4024878D03*
D22*
G01*
X8578926Y8174984D03*
D23*
G01*
X8324926Y8174984D03*
G01*
X8070926Y8174984D03*
D24*
G01*
X2598013Y4037680D03*
G01*
X2852013Y4037680D03*
G01*
X17597958Y1200017D03*
G01*
X17851958Y1200017D03*
D25*
G01*
X18774968Y1574998D03*
G01*
X18774968Y2082998D03*
G01*
X18774968Y2590998D03*
D26*
G01*
X9324975Y1799991D03*
G01*
X9070975Y1799991D03*
G01*
X8816975Y1799991D03*
G01*
X8562975Y1799991D03*
G01*
X8308975Y1799991D03*
G01*
X8054975Y1799991D03*
D27*
G01*
X18925006Y8075112D03*
G01*
X18474918Y8075112D03*
G01*
X18925006Y7424872D03*
G01*
X18474918Y7424872D03*
D24*
G01*
X11168989Y8174984D03*
G01*
X11423015Y8174959D03*
G01*
X11677015Y8174959D03*
G01*
X11931015Y8174959D03*
D28*
G01*
X9799954Y1799991D03*
G01*
X10053954Y1799991D03*
G01*
X10307954Y1799991D03*
G01*
X10561954Y1799991D03*
D29*
G01*
X1799996Y5361985D03*
G01*
X1799996Y5107985D03*
G01*
X1799996Y4853985D03*
G01*
X1799996Y4599985D03*
D28*
G01*
X10561980Y8199978D03*
G01*
X10307980Y8199978D03*
G01*
X10053980Y8199978D03*
G01*
X9799980Y8199978D03*
D24*
G01*
X12626975Y1800016D03*
G01*
X12372975Y1799991D03*
D30*
G01*
X10098379Y2766588D03*
G01*
X10352379Y2766588D03*
G01*
X9844379Y2766588D03*
G01*
X9590379Y2766588D03*
G01*
X9336379Y2766588D03*
G01*
X10606379Y2766588D03*
G01*
X10860379Y2766588D03*
G01*
X11114379Y2766588D03*
D31*
G01*
X7585075Y4484085D03*
D32*
G01*
X7585075Y2261585D03*
G01*
X12284075Y2261585D03*
G01*
X12284075Y4484085D03*
D33*
G01*
X18899962Y496006D03*
G01*
X18899962Y750006D03*
G01*
X18899962Y1004006D03*
G01*
X18899962Y8995989D03*
G01*
X18899962Y9249989D03*
G01*
X18899962Y9503989D03*
D24*
G01*
X238074Y999992D03*
G01*
X1762074Y999992D03*
G01*
X492074Y999992D03*
G01*
X746074Y999992D03*
G01*
X1000074Y999992D03*
G01*
X1254074Y999992D03*
G01*
X1508074Y999992D03*
G01*
X1762074Y8999976D03*
G01*
X238074Y8999976D03*
G01*
X1508074Y8999976D03*
G01*
X1254074Y8999976D03*
G01*
X1000074Y8999976D03*
G01*
X746074Y8999976D03*
G01*
X492074Y8999976D03*
D34*
G01*
X14824963Y6399982D03*
G01*
X14624964Y6249995D03*
G01*
X15074976Y6024976D03*
G01*
X15774974Y3974993D03*
G01*
X15924961Y5449996D03*
G01*
X17549977Y5099984D03*
G01*
X17599964Y4724979D03*
G01*
X13699972Y3824980D03*
G01*
X15549981Y4449998D03*
G01*
X15724962Y4349998D03*
G01*
X13724966Y5749996D03*
G01*
X10249992Y6374988D03*
G01*
X9549993Y6524975D03*
G01*
X9774986Y6599981D03*
G01*
X9174988Y4324979D03*
G01*
X6599986Y5924976D03*
G01*
X5950000Y6074989D03*
G01*
X6074994Y6274988D03*
G01*
X3075000Y4699985D03*
G01*
X5824981Y4424979D03*
G01*
X5724982Y5524977D03*
G01*
X8749995Y5824976D03*
G01*
X9474987Y4324979D03*
G01*
X11849988Y5999982D03*
G01*
X13549985Y4924978D03*
G01*
X13574979Y5924976D03*
G01*
X7024979Y4199986D03*
G01*
X16324910Y6349994D03*
G01*
X4924983Y4999984D03*
G01*
X12949986Y4074993D03*
G01*
X4950002Y5274990D03*
G01*
X13099973Y4299986D03*
G01*
X17849977Y1450004D03*
G01*
X17549977Y2774995D03*
G01*
X13499972Y3949999D03*
G01*
X11499977Y6499981D03*
G01*
X12174981Y5999982D03*
G01*
X11299977Y4249999D03*
G01*
X11999976Y5824976D03*
G01*
X11049990Y4374992D03*
G01*
X10974984Y8474984D03*
G01*
X8899982Y8399978D03*
G01*
X9274987Y5724977D03*
G01*
X8724976Y5174990D03*
G01*
X7299985Y6324975D03*
G01*
X11624970Y1450004D03*
G01*
X18099963Y4199986D03*
G01*
X17499965Y3074995D03*
G01*
X10074986Y3650000D03*
G01*
X17874970Y3099988D03*
G01*
X10249992Y3824980D03*
G01*
X12049988Y3099988D03*
G01*
X6624980Y4199986D03*
G01*
X6624980Y3324981D03*
G01*
X10824972Y7024974D03*
G01*
X7074992Y6324975D03*
G01*
X12374981Y6999980D03*
G01*
X12874980Y6399982D03*
G01*
X15874974Y5849995D03*
G01*
X10574985Y7099980D03*
G01*
X6849999Y6324975D03*
G01*
X12974980Y6999980D03*
G01*
X13374979Y6099982D03*
G01*
X15624962Y5824976D03*
G01*
X8624976Y4999984D03*
G01*
X9449993Y5599983D03*
G01*
X5450001Y4949997D03*
G01*
X5224983Y3224982D03*
G01*
X2575001Y4374992D03*
G01*
X724992Y4799985D03*
G01*
X8774988Y3674993D03*
G01*
X8599982Y3899987D03*
G01*
X11424970Y7824972D03*
G01*
X11174984Y7924972D03*
G01*
X550011Y5724977D03*
G01*
X1099997Y6399982D03*
G01*
X575005Y4324979D03*
G01*
X250012Y6399982D03*
G01*
X4574997Y5399984D03*
G01*
X4724984Y4699985D03*
G01*
X7299985Y3324981D03*
G01*
X9149994Y3374994D03*
G01*
X5374995Y3750000D03*
G01*
X9149994Y3599987D03*
G01*
X7324979Y3574994D03*
G01*
X6899986Y3999986D03*
G01*
X4324984Y4824978D03*
G01*
X1724990Y3724981D03*
G01*
X9199981Y4624979D03*
G01*
X8974988Y4574992D03*
G01*
X8999981Y4849997D03*
G01*
X10599978Y4299986D03*
G01*
X10849990Y4224980D03*
G01*
X9374987Y3374994D03*
G01*
X9574987Y3324981D03*
G01*
X9874986Y3524981D03*
G01*
X14974976Y3974993D03*
G01*
X15424962Y4074993D03*
G01*
X15199969Y3974993D03*
G01*
X5374995Y4749998D03*
G01*
X5774994Y3750000D03*
G01*
X6224981Y4024980D03*
G01*
X6399987Y4149999D03*
G01*
X5274894Y6374886D03*
G01*
X7049998Y5599983D03*
G01*
X1699996Y3450000D03*
G01*
X550011Y7274986D03*
G01*
X14449882Y6385605D03*
G01*
X5274995Y4224980D03*
G01*
X18174970Y1450004D03*
G01*
X750011Y8674983D03*
G01*
X999997Y8674983D03*
G01*
X499999Y8674983D03*
G01*
X999997Y1324985D03*
G01*
X1250010Y1324985D03*
G01*
X1499997Y1324985D03*
G01*
X12074982Y2624983D03*
G01*
X11424970Y1724985D03*
G01*
X10749978Y3674991D03*
G01*
X11174978Y3574991D03*
M02*
