G04 Layer: BottomSilkscreenLayer*
G04 EasyEDA v6.5.34, 2023-09-07 22:36:22*
G04 6936e88fb932453b8581c8861ee1522a,0b3e81c085af431c91bff7fd5324728f,10*
G04 Gerber Generator version 0.2*
G04 Scale: 100 percent, Rotated: No, Reflected: No *
G04 Dimensions in millimeters *
G04 leading zeros omitted , absolute positions ,4 integer and 5 decimal *
%FSLAX45Y45*%
%MOMM*%

%ADD10C,0.3000*%
%ADD11C,0.1524*%
%ADD12C,0.7000*%
%ADD13C,0.1001*%
%ADD14C,0.1270*%
%ADD15C,0.1999*%
%ADD16C,0.2000*%
%ADD17C,0.0164*%

%LPD*%
D10*
X7999984Y6301351D02*
G01*
X7999984Y6158169D01*
X7999984Y6301351D02*
G01*
X7938620Y6301351D01*
X7918165Y6294534D01*
X7911348Y6287714D01*
X7904530Y6274079D01*
X7904530Y6260442D01*
X7911348Y6246804D01*
X7918165Y6239987D01*
X7938620Y6233170D01*
X7999984Y6233170D01*
X7952257Y6233170D02*
G01*
X7904530Y6158169D01*
X16924964Y5826351D02*
G01*
X16924964Y5683168D01*
X16924964Y5826351D02*
G01*
X16863601Y5826351D01*
X16843146Y5819533D01*
X16836329Y5812713D01*
X16829511Y5799079D01*
X16829511Y5785441D01*
X16836329Y5771804D01*
X16843146Y5764987D01*
X16863601Y5758169D01*
X16924964Y5758169D01*
X16877238Y5758169D02*
G01*
X16829511Y5683168D01*
X11024979Y5751352D02*
G01*
X11024979Y5608170D01*
X11024979Y5751352D02*
G01*
X10963615Y5751352D01*
X10943160Y5744535D01*
X10936343Y5737715D01*
X10929526Y5724080D01*
X10929526Y5710443D01*
X10936343Y5696805D01*
X10943160Y5689988D01*
X10963615Y5683171D01*
X11024979Y5683171D01*
X10977252Y5683171D02*
G01*
X10929526Y5608170D01*
D11*
X11877908Y1558229D02*
G01*
X11872711Y1547837D01*
X11862320Y1537446D01*
X11851932Y1532252D01*
X11831149Y1532252D01*
X11820758Y1537446D01*
X11810367Y1547837D01*
X11805170Y1558229D01*
X11799976Y1573817D01*
X11799976Y1599793D01*
X11805170Y1615379D01*
X11810367Y1625770D01*
X11820758Y1636161D01*
X11831149Y1641355D01*
X11851932Y1641355D01*
X11862320Y1636161D01*
X11872711Y1625770D01*
X11877908Y1615379D01*
X11912198Y1553034D02*
G01*
X11922589Y1547837D01*
X11938175Y1532252D01*
X11938175Y1641355D01*
X12003638Y1532252D02*
G01*
X11988050Y1537446D01*
X11977662Y1553034D01*
X11972465Y1579011D01*
X11972465Y1594596D01*
X11977662Y1620575D01*
X11988050Y1636161D01*
X12003638Y1641355D01*
X12014029Y1641355D01*
X12029615Y1636161D01*
X12040006Y1620575D01*
X12045200Y1594596D01*
X12045200Y1579011D01*
X12040006Y1553034D01*
X12029615Y1537446D01*
X12014029Y1532252D01*
X12003638Y1532252D01*
X9002857Y5183240D02*
G01*
X8997660Y5172849D01*
X8987269Y5162458D01*
X8976880Y5157264D01*
X8956098Y5157264D01*
X8945707Y5162458D01*
X8935316Y5172849D01*
X8930119Y5183240D01*
X8924925Y5198828D01*
X8924925Y5224805D01*
X8930119Y5240390D01*
X8935316Y5250781D01*
X8945707Y5261173D01*
X8956098Y5266367D01*
X8976880Y5266367D01*
X8987269Y5261173D01*
X8997660Y5250781D01*
X9002857Y5240390D01*
X9037147Y5178046D02*
G01*
X9047538Y5172849D01*
X9063123Y5157264D01*
X9063123Y5266367D01*
X9097413Y5178046D02*
G01*
X9107804Y5172849D01*
X9123390Y5157264D01*
X9123390Y5266367D01*
X9758243Y6197132D02*
G01*
X9747851Y6202329D01*
X9737460Y6212720D01*
X9732266Y6223109D01*
X9732266Y6243891D01*
X9737460Y6254282D01*
X9747851Y6264673D01*
X9758243Y6269870D01*
X9773831Y6275064D01*
X9799807Y6275064D01*
X9815393Y6269870D01*
X9825784Y6264673D01*
X9836175Y6254282D01*
X9841369Y6243891D01*
X9841369Y6223109D01*
X9836175Y6212720D01*
X9825784Y6202329D01*
X9815393Y6197132D01*
X9753048Y6162842D02*
G01*
X9747851Y6152451D01*
X9732266Y6136866D01*
X9841369Y6136866D01*
X9758243Y6097379D02*
G01*
X9753048Y6097379D01*
X9742657Y6092184D01*
X9737460Y6086990D01*
X9732266Y6076599D01*
X9732266Y6055817D01*
X9737460Y6045426D01*
X9742657Y6040229D01*
X9753048Y6035034D01*
X9763439Y6035034D01*
X9773831Y6040229D01*
X9789416Y6050620D01*
X9841369Y6102576D01*
X9841369Y6029840D01*
X11627845Y5183266D02*
G01*
X11622648Y5172875D01*
X11612257Y5162483D01*
X11601869Y5157289D01*
X11581086Y5157289D01*
X11570695Y5162483D01*
X11560304Y5172875D01*
X11555107Y5183266D01*
X11549913Y5198854D01*
X11549913Y5224830D01*
X11555107Y5240416D01*
X11560304Y5250807D01*
X11570695Y5261198D01*
X11581086Y5266392D01*
X11601869Y5266392D01*
X11612257Y5261198D01*
X11622648Y5250807D01*
X11627845Y5240416D01*
X11662135Y5178071D02*
G01*
X11672526Y5172875D01*
X11688112Y5157289D01*
X11688112Y5266392D01*
X11732793Y5157289D02*
G01*
X11789943Y5157289D01*
X11758769Y5198854D01*
X11774357Y5198854D01*
X11784749Y5204048D01*
X11789943Y5209242D01*
X11795137Y5224830D01*
X11795137Y5235221D01*
X11789943Y5250807D01*
X11779552Y5261198D01*
X11763966Y5266392D01*
X11748378Y5266392D01*
X11732793Y5261198D01*
X11727599Y5256004D01*
X11722402Y5245613D01*
X11627820Y4283242D02*
G01*
X11622623Y4272851D01*
X11612232Y4262460D01*
X11601843Y4257266D01*
X11581061Y4257266D01*
X11570670Y4262460D01*
X11560279Y4272851D01*
X11555082Y4283242D01*
X11549888Y4298830D01*
X11549888Y4324807D01*
X11555082Y4340392D01*
X11560279Y4350783D01*
X11570670Y4361174D01*
X11581061Y4366369D01*
X11601843Y4366369D01*
X11612232Y4361174D01*
X11622623Y4350783D01*
X11627820Y4340392D01*
X11662110Y4278048D02*
G01*
X11672501Y4272851D01*
X11688086Y4257266D01*
X11688086Y4366369D01*
X11774332Y4257266D02*
G01*
X11722376Y4330001D01*
X11800309Y4330001D01*
X11774332Y4257266D02*
G01*
X11774332Y4366369D01*
X800023Y2467703D02*
G01*
X800023Y2358600D01*
X800023Y2467703D02*
G01*
X753264Y2467703D01*
X737679Y2462509D01*
X732482Y2457312D01*
X727288Y2446921D01*
X727288Y2436530D01*
X732482Y2426139D01*
X737679Y2420945D01*
X753264Y2415750D01*
X800023Y2415750D01*
X763656Y2415750D02*
G01*
X727288Y2358600D01*
X687801Y2441727D02*
G01*
X687801Y2446921D01*
X682607Y2457312D01*
X677410Y2462509D01*
X667019Y2467703D01*
X646239Y2467703D01*
X635848Y2462509D01*
X630651Y2457312D01*
X625457Y2446921D01*
X625457Y2436530D01*
X630651Y2426139D01*
X641042Y2410553D01*
X692998Y2358600D01*
X620260Y2358600D01*
X554799Y2467703D02*
G01*
X570384Y2462509D01*
X580776Y2446921D01*
X585970Y2420945D01*
X585970Y2405359D01*
X580776Y2379380D01*
X570384Y2363795D01*
X554799Y2358600D01*
X544408Y2358600D01*
X528820Y2363795D01*
X518429Y2379380D01*
X513234Y2405359D01*
X513234Y2420945D01*
X518429Y2446921D01*
X528820Y2462509D01*
X544408Y2467703D01*
X554799Y2467703D01*
X800023Y8317704D02*
G01*
X800023Y8208601D01*
X800023Y8317704D02*
G01*
X753264Y8317704D01*
X737679Y8312510D01*
X732482Y8307313D01*
X727288Y8296922D01*
X727288Y8286531D01*
X732482Y8276140D01*
X737679Y8270946D01*
X753264Y8265751D01*
X800023Y8265751D01*
X763656Y8265751D02*
G01*
X727288Y8208601D01*
X687801Y8291728D02*
G01*
X687801Y8296922D01*
X682607Y8307313D01*
X677410Y8312510D01*
X667019Y8317704D01*
X646239Y8317704D01*
X635848Y8312510D01*
X630651Y8307313D01*
X625457Y8296922D01*
X625457Y8286531D01*
X630651Y8276140D01*
X641042Y8260554D01*
X692998Y8208601D01*
X620260Y8208601D01*
X585970Y8296922D02*
G01*
X575579Y8302119D01*
X559993Y8317704D01*
X559993Y8208601D01*
X18449975Y482267D02*
G01*
X18449975Y591370D01*
X18449975Y482267D02*
G01*
X18496734Y482267D01*
X18512320Y487461D01*
X18517516Y492658D01*
X18522711Y503049D01*
X18522711Y513440D01*
X18517516Y523831D01*
X18512320Y529026D01*
X18496734Y534220D01*
X18449975Y534220D01*
X18486343Y534220D02*
G01*
X18522711Y591370D01*
X18562198Y508243D02*
G01*
X18562198Y503049D01*
X18567392Y492658D01*
X18572589Y487461D01*
X18582980Y482267D01*
X18603760Y482267D01*
X18614151Y487461D01*
X18619348Y492658D01*
X18624542Y503049D01*
X18624542Y513440D01*
X18619348Y523831D01*
X18608956Y539417D01*
X18557001Y591370D01*
X18629739Y591370D01*
X18669223Y508243D02*
G01*
X18669223Y503049D01*
X18674420Y492658D01*
X18679614Y487461D01*
X18690005Y482267D01*
X18710788Y482267D01*
X18721179Y487461D01*
X18726373Y492658D01*
X18731570Y503049D01*
X18731570Y513440D01*
X18726373Y523831D01*
X18715982Y539417D01*
X18664029Y591370D01*
X18736764Y591370D01*
X18449975Y8982250D02*
G01*
X18449975Y9091353D01*
X18449975Y8982250D02*
G01*
X18496734Y8982250D01*
X18512320Y8987444D01*
X18517516Y8992641D01*
X18522711Y9003032D01*
X18522711Y9013423D01*
X18517516Y9023814D01*
X18512320Y9029009D01*
X18496734Y9034203D01*
X18449975Y9034203D01*
X18486343Y9034203D02*
G01*
X18522711Y9091353D01*
X18562198Y9008226D02*
G01*
X18562198Y9003032D01*
X18567392Y8992641D01*
X18572589Y8987444D01*
X18582980Y8982250D01*
X18603760Y8982250D01*
X18614151Y8987444D01*
X18619348Y8992641D01*
X18624542Y9003032D01*
X18624542Y9013423D01*
X18619348Y9023814D01*
X18608956Y9039400D01*
X18557001Y9091353D01*
X18629739Y9091353D01*
X18674420Y8982250D02*
G01*
X18731570Y8982250D01*
X18700396Y9023814D01*
X18715982Y9023814D01*
X18726373Y9029009D01*
X18731570Y9034203D01*
X18736764Y9049791D01*
X18736764Y9060182D01*
X18731570Y9075767D01*
X18721179Y9086159D01*
X18705591Y9091353D01*
X18690005Y9091353D01*
X18674420Y9086159D01*
X18669223Y9080964D01*
X18664029Y9070573D01*
X10767717Y6274912D02*
G01*
X10658614Y6274912D01*
X10767717Y6274912D02*
G01*
X10767717Y6321671D01*
X10762523Y6337256D01*
X10757326Y6342453D01*
X10746935Y6347647D01*
X10736544Y6347647D01*
X10726153Y6342453D01*
X10720959Y6337256D01*
X10715764Y6321671D01*
X10715764Y6274912D01*
X10715764Y6311280D02*
G01*
X10658614Y6347647D01*
X10746935Y6381937D02*
G01*
X10752132Y6392329D01*
X10767717Y6407917D01*
X10658614Y6407917D01*
X10731350Y6509748D02*
G01*
X10715764Y6504551D01*
X10705373Y6494160D01*
X10700176Y6478574D01*
X10700176Y6473377D01*
X10705373Y6457792D01*
X10715764Y6447401D01*
X10731350Y6442207D01*
X10736544Y6442207D01*
X10752132Y6447401D01*
X10762523Y6457792D01*
X10767717Y6473377D01*
X10767717Y6478574D01*
X10762523Y6494160D01*
X10752132Y6504551D01*
X10731350Y6509748D01*
X10705373Y6509748D01*
X10679394Y6504551D01*
X10663809Y6494160D01*
X10658614Y6478574D01*
X10658614Y6468183D01*
X10663809Y6452598D01*
X10674200Y6447401D01*
X15482242Y6275064D02*
G01*
X15591345Y6275064D01*
X15482242Y6275064D02*
G01*
X15482242Y6228306D01*
X15487436Y6212720D01*
X15492633Y6207523D01*
X15503024Y6202329D01*
X15513415Y6202329D01*
X15523806Y6207523D01*
X15529001Y6212720D01*
X15534195Y6228306D01*
X15534195Y6275064D01*
X15534195Y6238697D02*
G01*
X15591345Y6202329D01*
X15503024Y6168039D02*
G01*
X15497827Y6157648D01*
X15482242Y6142060D01*
X15591345Y6142060D01*
X15508218Y6102576D02*
G01*
X15503024Y6102576D01*
X15492633Y6097379D01*
X15487436Y6092184D01*
X15482242Y6081793D01*
X15482242Y6061011D01*
X15487436Y6050620D01*
X15492633Y6045426D01*
X15503024Y6040229D01*
X15513415Y6040229D01*
X15523806Y6045426D01*
X15539392Y6055817D01*
X15591345Y6107770D01*
X15591345Y6035034D01*
X6007280Y3600063D02*
G01*
X6116383Y3600063D01*
X6007280Y3600063D02*
G01*
X6007280Y3553305D01*
X6012474Y3537719D01*
X6017671Y3532522D01*
X6028062Y3527328D01*
X6038453Y3527328D01*
X6048844Y3532522D01*
X6054039Y3537719D01*
X6059233Y3553305D01*
X6059233Y3600063D01*
X6059233Y3563696D02*
G01*
X6116383Y3527328D01*
X6043648Y3425497D02*
G01*
X6059233Y3430691D01*
X6069624Y3441082D01*
X6074821Y3456668D01*
X6074821Y3461865D01*
X6069624Y3477450D01*
X6059233Y3487841D01*
X6043648Y3493038D01*
X6038453Y3493038D01*
X6022865Y3487841D01*
X6012474Y3477450D01*
X6007280Y3461865D01*
X6007280Y3456668D01*
X6012474Y3441082D01*
X6022865Y3430691D01*
X6043648Y3425497D01*
X6069624Y3425497D01*
X6095603Y3430691D01*
X6111189Y3441082D01*
X6116383Y3456668D01*
X6116383Y3467059D01*
X6111189Y3482647D01*
X6100798Y3487841D01*
X8274984Y5394705D02*
G01*
X8233328Y5342889D01*
X8233328Y5285739D01*
X8191926Y5394705D02*
G01*
X8233328Y5342889D01*
X8157636Y5373878D02*
G01*
X8147222Y5379212D01*
X8131474Y5394705D01*
X8131474Y5285739D01*
X11499977Y5394705D02*
G01*
X11458575Y5342636D01*
X11458575Y5285486D01*
X11416918Y5394705D02*
G01*
X11458575Y5342636D01*
X11372215Y5394705D02*
G01*
X11315065Y5394705D01*
X11346306Y5353050D01*
X11330559Y5353050D01*
X11320399Y5347970D01*
X11315065Y5342636D01*
X11309984Y5327142D01*
X11309984Y5316728D01*
X11315065Y5301234D01*
X11325479Y5290820D01*
X11340972Y5285486D01*
X11356720Y5285486D01*
X11372215Y5290820D01*
X11377549Y5295900D01*
X11382629Y5306313D01*
X5231472Y3338669D02*
G01*
X5340438Y3338669D01*
X5231472Y3374991D02*
G01*
X5231472Y3302347D01*
X5252300Y3268057D02*
G01*
X5246966Y3257643D01*
X5231472Y3241895D01*
X5340438Y3241895D01*
X16574968Y5394705D02*
G01*
X16533566Y5342636D01*
X16533566Y5285486D01*
X16491910Y5394705D02*
G01*
X16533566Y5342636D01*
X16452540Y5368797D02*
G01*
X16452540Y5373878D01*
X16447206Y5384292D01*
X16442126Y5389626D01*
X16431712Y5394705D01*
X16410884Y5394705D01*
X16400470Y5389626D01*
X16395390Y5384292D01*
X16390056Y5373878D01*
X16390056Y5363463D01*
X16395390Y5353050D01*
X16405804Y5337555D01*
X16457620Y5285486D01*
X16384976Y5285486D01*
X11675376Y1397513D02*
G01*
X11675376Y1319535D01*
X11670296Y1304041D01*
X11659882Y1293627D01*
X11644388Y1288293D01*
X11633974Y1288293D01*
X11618226Y1293627D01*
X11607812Y1304041D01*
X11602732Y1319535D01*
X11602732Y1397513D01*
X11495798Y1397513D02*
G01*
X11547614Y1288293D01*
X11568442Y1397513D02*
G01*
X11495798Y1397513D01*
X5427967Y5158181D02*
G01*
X5422633Y5147767D01*
X5412219Y5137353D01*
X5402059Y5132273D01*
X5381231Y5132273D01*
X5370817Y5137353D01*
X5360403Y5147767D01*
X5355069Y5158181D01*
X5349989Y5173929D01*
X5349989Y5199837D01*
X5355069Y5215331D01*
X5360403Y5225745D01*
X5370817Y5236159D01*
X5381231Y5241239D01*
X5402059Y5241239D01*
X5412219Y5236159D01*
X5422633Y5225745D01*
X5427967Y5215331D01*
X5462257Y5153101D02*
G01*
X5472671Y5147767D01*
X5488165Y5132273D01*
X5488165Y5241239D01*
X6208179Y6197008D02*
G01*
X6197765Y6202342D01*
X6187351Y6212756D01*
X6182271Y6223170D01*
X6182271Y6243998D01*
X6187351Y6254158D01*
X6197765Y6264572D01*
X6208179Y6269906D01*
X6223927Y6274986D01*
X6249835Y6274986D01*
X6265329Y6269906D01*
X6275743Y6264572D01*
X6286157Y6254158D01*
X6291491Y6243998D01*
X6291491Y6223170D01*
X6286157Y6212756D01*
X6275743Y6202342D01*
X6265329Y6197008D01*
X6182271Y6152558D02*
G01*
X6182271Y6095408D01*
X6223927Y6126396D01*
X6223927Y6110902D01*
X6229007Y6100488D01*
X6234341Y6095408D01*
X6249835Y6090074D01*
X6260249Y6090074D01*
X6275743Y6095408D01*
X6286157Y6105568D01*
X6291491Y6121316D01*
X6291491Y6136810D01*
X6286157Y6152558D01*
X6281077Y6157638D01*
X6270663Y6162718D01*
X8402962Y5183179D02*
G01*
X8397628Y5172765D01*
X8387214Y5162351D01*
X8376800Y5157271D01*
X8355972Y5157271D01*
X8345812Y5162351D01*
X8335398Y5172765D01*
X8330064Y5183179D01*
X8324984Y5198927D01*
X8324984Y5224835D01*
X8330064Y5240329D01*
X8335398Y5250743D01*
X8345812Y5261157D01*
X8355972Y5266491D01*
X8376800Y5266491D01*
X8387214Y5261157D01*
X8397628Y5250743D01*
X8402962Y5240329D01*
X8499482Y5157271D02*
G01*
X8447412Y5157271D01*
X8442332Y5204007D01*
X8447412Y5198927D01*
X8463160Y5193593D01*
X8478654Y5193593D01*
X8494402Y5198927D01*
X8504562Y5209341D01*
X8509896Y5224835D01*
X8509896Y5235249D01*
X8504562Y5250743D01*
X8494402Y5261157D01*
X8478654Y5266491D01*
X8463160Y5266491D01*
X8447412Y5261157D01*
X8442332Y5256077D01*
X8437252Y5245663D01*
X8402962Y4283181D02*
G01*
X8397628Y4272767D01*
X8387214Y4262353D01*
X8376800Y4257273D01*
X8355972Y4257273D01*
X8345812Y4262353D01*
X8335398Y4272767D01*
X8330064Y4283181D01*
X8324984Y4298929D01*
X8324984Y4324837D01*
X8330064Y4340331D01*
X8335398Y4350745D01*
X8345812Y4361159D01*
X8355972Y4366493D01*
X8376800Y4366493D01*
X8387214Y4361159D01*
X8397628Y4350745D01*
X8402962Y4340331D01*
X8509896Y4257273D02*
G01*
X8457826Y4366493D01*
X8437252Y4257273D02*
G01*
X8509896Y4257273D01*
X8324984Y5557271D02*
G01*
X8324984Y5666491D01*
X8324984Y5557271D02*
G01*
X8371720Y5557271D01*
X8387214Y5562351D01*
X8392548Y5567685D01*
X8397628Y5578099D01*
X8397628Y5588513D01*
X8392548Y5598927D01*
X8387214Y5604007D01*
X8371720Y5609341D01*
X8324984Y5609341D01*
X8361306Y5609341D02*
G01*
X8397628Y5666491D01*
X8436998Y5583179D02*
G01*
X8436998Y5578099D01*
X8442332Y5567685D01*
X8447412Y5562351D01*
X8457826Y5557271D01*
X8478654Y5557271D01*
X8489068Y5562351D01*
X8494148Y5567685D01*
X8499482Y5578099D01*
X8499482Y5588513D01*
X8494148Y5598927D01*
X8483988Y5614421D01*
X8431918Y5666491D01*
X8504562Y5666491D01*
X5757273Y3599992D02*
G01*
X5866493Y3599992D01*
X5757273Y3599992D02*
G01*
X5757273Y3553256D01*
X5762353Y3537762D01*
X5767687Y3532428D01*
X5778101Y3527348D01*
X5788515Y3527348D01*
X5798929Y3532428D01*
X5804009Y3537762D01*
X5809343Y3553256D01*
X5809343Y3599992D01*
X5809343Y3563670D02*
G01*
X5866493Y3527348D01*
X5757273Y3430828D02*
G01*
X5757273Y3482644D01*
X5804009Y3487978D01*
X5798929Y3482644D01*
X5793595Y3467150D01*
X5793595Y3451402D01*
X5798929Y3435908D01*
X5809343Y3425494D01*
X5824837Y3420414D01*
X5835251Y3420414D01*
X5850745Y3425494D01*
X5861159Y3435908D01*
X5866493Y3451402D01*
X5866493Y3467150D01*
X5861159Y3482644D01*
X5856079Y3487978D01*
X5845665Y3493058D01*
X6925025Y4334654D02*
G01*
X6925025Y4412632D01*
X6930105Y4428126D01*
X6940519Y4438540D01*
X6956013Y4443874D01*
X6966427Y4443874D01*
X6982175Y4438540D01*
X6992589Y4428126D01*
X6997669Y4412632D01*
X6997669Y4334654D01*
X7042373Y4334654D02*
G01*
X7099523Y4334654D01*
X7068281Y4376310D01*
X7084029Y4376310D01*
X7094443Y4381390D01*
X7099523Y4386724D01*
X7104603Y4402218D01*
X7104603Y4412632D01*
X7099523Y4428126D01*
X7089109Y4438540D01*
X7073615Y4443874D01*
X7057867Y4443874D01*
X7042373Y4438540D01*
X7037293Y4433460D01*
X7031959Y4423046D01*
X13877950Y5183179D02*
G01*
X13872616Y5172765D01*
X13862202Y5162351D01*
X13851788Y5157271D01*
X13830960Y5157271D01*
X13820800Y5162351D01*
X13810386Y5172765D01*
X13805052Y5183179D01*
X13799972Y5198927D01*
X13799972Y5224835D01*
X13805052Y5240329D01*
X13810386Y5250743D01*
X13820800Y5261157D01*
X13830960Y5266491D01*
X13851788Y5266491D01*
X13862202Y5261157D01*
X13872616Y5250743D01*
X13877950Y5240329D01*
X13917320Y5183179D02*
G01*
X13917320Y5178099D01*
X13922400Y5167685D01*
X13927734Y5162351D01*
X13938148Y5157271D01*
X13958976Y5157271D01*
X13969390Y5162351D01*
X13974470Y5167685D01*
X13979550Y5178099D01*
X13979550Y5188513D01*
X13974470Y5198927D01*
X13964056Y5214421D01*
X13912240Y5266491D01*
X13984884Y5266491D01*
X15158161Y6197008D02*
G01*
X15147747Y6202342D01*
X15137333Y6212756D01*
X15132253Y6223170D01*
X15132253Y6243998D01*
X15137333Y6254158D01*
X15147747Y6264572D01*
X15158161Y6269906D01*
X15173909Y6274986D01*
X15199817Y6274986D01*
X15215311Y6269906D01*
X15225725Y6264572D01*
X15236139Y6254158D01*
X15241473Y6243998D01*
X15241473Y6223170D01*
X15236139Y6212756D01*
X15225725Y6202342D01*
X15215311Y6197008D01*
X15132253Y6110902D02*
G01*
X15204897Y6162718D01*
X15204897Y6084994D01*
X15132253Y6110902D02*
G01*
X15241473Y6110902D01*
X16628010Y5210558D02*
G01*
X16622676Y5200144D01*
X16612262Y5189730D01*
X16601848Y5184650D01*
X16581020Y5184650D01*
X16570860Y5189730D01*
X16560446Y5200144D01*
X16555112Y5210558D01*
X16550032Y5226306D01*
X16550032Y5252214D01*
X16555112Y5267708D01*
X16560446Y5278122D01*
X16570860Y5288536D01*
X16581020Y5293870D01*
X16601848Y5293870D01*
X16612262Y5288536D01*
X16622676Y5278122D01*
X16628010Y5267708D01*
X16724530Y5200144D02*
G01*
X16719450Y5189730D01*
X16703702Y5184650D01*
X16693288Y5184650D01*
X16677794Y5189730D01*
X16667380Y5205478D01*
X16662300Y5231386D01*
X16662300Y5257294D01*
X16667380Y5278122D01*
X16677794Y5288536D01*
X16693288Y5293870D01*
X16698622Y5293870D01*
X16714116Y5288536D01*
X16724530Y5278122D01*
X16729610Y5262628D01*
X16729610Y5257294D01*
X16724530Y5241800D01*
X16714116Y5231386D01*
X16698622Y5226306D01*
X16693288Y5226306D01*
X16677794Y5231386D01*
X16667380Y5241800D01*
X16662300Y5257294D01*
X16702946Y4308182D02*
G01*
X16697612Y4297768D01*
X16687198Y4287354D01*
X16676784Y4282274D01*
X16655956Y4282274D01*
X16645796Y4287354D01*
X16635382Y4297768D01*
X16630048Y4308182D01*
X16624968Y4323930D01*
X16624968Y4349838D01*
X16630048Y4365332D01*
X16635382Y4375746D01*
X16645796Y4386160D01*
X16655956Y4391494D01*
X16676784Y4391494D01*
X16687198Y4386160D01*
X16697612Y4375746D01*
X16702946Y4365332D01*
X16763144Y4282274D02*
G01*
X16747396Y4287354D01*
X16742316Y4297768D01*
X16742316Y4308182D01*
X16747396Y4318596D01*
X16757810Y4323930D01*
X16778638Y4329010D01*
X16794386Y4334344D01*
X16804546Y4344504D01*
X16809880Y4354918D01*
X16809880Y4370666D01*
X16804546Y4381080D01*
X16799466Y4386160D01*
X16783972Y4391494D01*
X16763144Y4391494D01*
X16747396Y4386160D01*
X16742316Y4381080D01*
X16737236Y4370666D01*
X16737236Y4354918D01*
X16742316Y4344504D01*
X16752730Y4334344D01*
X16768224Y4329010D01*
X16789052Y4323930D01*
X16799466Y4318596D01*
X16804546Y4308182D01*
X16804546Y4297768D01*
X16799466Y4287354D01*
X16783972Y4282274D01*
X16763144Y4282274D01*
X16449967Y5557271D02*
G01*
X16449967Y5666491D01*
X16449967Y5557271D02*
G01*
X16496703Y5557271D01*
X16512197Y5562351D01*
X16517531Y5567685D01*
X16522611Y5578099D01*
X16522611Y5588513D01*
X16517531Y5598927D01*
X16512197Y5604007D01*
X16496703Y5609341D01*
X16449967Y5609341D01*
X16486289Y5609341D02*
G01*
X16522611Y5666491D01*
X16567315Y5557271D02*
G01*
X16624465Y5557271D01*
X16593223Y5598927D01*
X16608971Y5598927D01*
X16619385Y5604007D01*
X16624465Y5609341D01*
X16629545Y5624835D01*
X16629545Y5635249D01*
X16624465Y5650743D01*
X16614051Y5661157D01*
X16598557Y5666491D01*
X16582809Y5666491D01*
X16567315Y5661157D01*
X16562235Y5656077D01*
X16556901Y5645663D01*
X14332254Y3974990D02*
G01*
X14441474Y3974990D01*
X14332254Y3974990D02*
G01*
X14332254Y3928254D01*
X14337334Y3912760D01*
X14342668Y3907426D01*
X14353082Y3902346D01*
X14363496Y3902346D01*
X14373910Y3907426D01*
X14378990Y3912760D01*
X14384324Y3928254D01*
X14384324Y3974990D01*
X14384324Y3938668D02*
G01*
X14441474Y3902346D01*
X14332254Y3795412D02*
G01*
X14441474Y3847228D01*
X14332254Y3868056D02*
G01*
X14332254Y3795412D01*
X16267684Y6274986D02*
G01*
X16158463Y6274986D01*
X16267684Y6274986D02*
G01*
X16267684Y6321722D01*
X16262604Y6337216D01*
X16257270Y6342550D01*
X16246856Y6347630D01*
X16236442Y6347630D01*
X16226027Y6342550D01*
X16220947Y6337216D01*
X16215613Y6321722D01*
X16215613Y6274986D01*
X16215613Y6311308D02*
G01*
X16158463Y6347630D01*
X16246856Y6381920D02*
G01*
X16252190Y6392334D01*
X16267684Y6407828D01*
X16158463Y6407828D01*
X16246856Y6442118D02*
G01*
X16252190Y6452532D01*
X16267684Y6468280D01*
X16158463Y6468280D01*
X14924971Y4173473D02*
G01*
X14924971Y4251452D01*
X14930051Y4266946D01*
X14940465Y4277360D01*
X14955959Y4282694D01*
X14966373Y4282694D01*
X14982121Y4277360D01*
X14992535Y4266946D01*
X14997615Y4251452D01*
X14997615Y4173473D01*
X15083975Y4173473D02*
G01*
X15031905Y4246118D01*
X15109883Y4246118D01*
X15083975Y4173473D02*
G01*
X15083975Y4282694D01*
X11524975Y5557271D02*
G01*
X11524975Y5666491D01*
X11524975Y5557271D02*
G01*
X11571711Y5557271D01*
X11587205Y5562351D01*
X11592539Y5567685D01*
X11597619Y5578099D01*
X11597619Y5588513D01*
X11592539Y5598927D01*
X11587205Y5604007D01*
X11571711Y5609341D01*
X11524975Y5609341D01*
X11561297Y5609341D02*
G01*
X11597619Y5666491D01*
X11631909Y5578099D02*
G01*
X11642323Y5572765D01*
X11657817Y5557271D01*
X11657817Y5666491D01*
X11702521Y5557271D02*
G01*
X11759671Y5557271D01*
X11728683Y5598927D01*
X11744177Y5598927D01*
X11754591Y5604007D01*
X11759671Y5609341D01*
X11765005Y5624835D01*
X11765005Y5635249D01*
X11759671Y5650743D01*
X11749257Y5661157D01*
X11733763Y5666491D01*
X11718269Y5666491D01*
X11702521Y5661157D01*
X11697441Y5656077D01*
X11692107Y5645663D01*
X9424982Y4342706D02*
G01*
X9424982Y4233486D01*
X9424982Y4342706D02*
G01*
X9378246Y4342706D01*
X9362752Y4337626D01*
X9357418Y4332292D01*
X9352338Y4321878D01*
X9352338Y4311464D01*
X9357418Y4301050D01*
X9362752Y4295970D01*
X9378246Y4290636D01*
X9424982Y4290636D01*
X9388660Y4290636D02*
G01*
X9352338Y4233486D01*
X9318048Y4321878D02*
G01*
X9307634Y4327212D01*
X9292140Y4342706D01*
X9292140Y4233486D01*
X9205780Y4342706D02*
G01*
X9257850Y4270062D01*
X9179872Y4270062D01*
X9205780Y4342706D02*
G01*
X9205780Y4233486D01*
X11317693Y6274986D02*
G01*
X11208473Y6274986D01*
X11317693Y6274986D02*
G01*
X11317693Y6321722D01*
X11312613Y6337216D01*
X11307279Y6342550D01*
X11296865Y6347630D01*
X11286451Y6347630D01*
X11276037Y6342550D01*
X11270957Y6337216D01*
X11265623Y6321722D01*
X11265623Y6274986D01*
X11265623Y6311308D02*
G01*
X11208473Y6347630D01*
X11296865Y6381920D02*
G01*
X11302199Y6392334D01*
X11317693Y6407828D01*
X11208473Y6407828D01*
X11317693Y6468280D02*
G01*
X11312613Y6452532D01*
X11302199Y6447452D01*
X11291785Y6447452D01*
X11281371Y6452532D01*
X11276037Y6462946D01*
X11270957Y6483774D01*
X11265623Y6499268D01*
X11255463Y6509682D01*
X11245049Y6515016D01*
X11229301Y6515016D01*
X11218887Y6509682D01*
X11213807Y6504602D01*
X11208473Y6488854D01*
X11208473Y6468280D01*
X11213807Y6452532D01*
X11218887Y6447452D01*
X11229301Y6442118D01*
X11245049Y6442118D01*
X11255463Y6447452D01*
X11265623Y6457866D01*
X11270957Y6473360D01*
X11276037Y6494188D01*
X11281371Y6504602D01*
X11291785Y6509682D01*
X11302199Y6509682D01*
X11312613Y6504602D01*
X11317693Y6488854D01*
X11317693Y6468280D01*
X9575040Y4184655D02*
G01*
X9575040Y4262633D01*
X9580120Y4278127D01*
X9590534Y4288541D01*
X9606028Y4293875D01*
X9616442Y4293875D01*
X9632190Y4288541D01*
X9642604Y4278127D01*
X9647684Y4262633D01*
X9647684Y4184655D01*
X9681974Y4205483D02*
G01*
X9692388Y4200149D01*
X9707882Y4184655D01*
X9707882Y4293875D01*
X9773414Y4184655D02*
G01*
X9757920Y4189735D01*
X9747506Y4205483D01*
X9742172Y4231391D01*
X9742172Y4246885D01*
X9747506Y4273047D01*
X9757920Y4288541D01*
X9773414Y4293875D01*
X9783828Y4293875D01*
X9799322Y4288541D01*
X9809736Y4273047D01*
X9815070Y4246885D01*
X9815070Y4231391D01*
X9809736Y4205483D01*
X9799322Y4189735D01*
X9783828Y4184655D01*
X9773414Y4184655D01*
D12*
X16699966Y6174986D02*
G01*
X16799966Y6174986D01*
X17024964Y5949988D01*
X17024964Y5549988D01*
X11274978Y6049987D02*
G01*
X11124979Y5899988D01*
X11124979Y5374987D01*
X8174984Y6299987D02*
G01*
X8174984Y6224986D01*
D11*
X12041019Y1690832D02*
G01*
X11892521Y1690832D01*
X11892521Y1909353D02*
G01*
X12041019Y1909353D01*
X12056259Y1894113D02*
G01*
X12056259Y1706072D01*
X11558780Y1690832D02*
G01*
X11707279Y1690832D01*
X11707279Y1909353D02*
G01*
X11558780Y1909353D01*
X11543540Y1894113D02*
G01*
X11543540Y1706072D01*
X9165993Y5315666D02*
G01*
X9017495Y5315666D01*
X9017495Y5534187D02*
G01*
X9165993Y5534187D01*
X9181233Y5518947D02*
G01*
X9181233Y5330906D01*
X8683754Y5315666D02*
G01*
X8832253Y5315666D01*
X8832253Y5534187D02*
G01*
X8683754Y5534187D01*
X8668514Y5518947D02*
G01*
X8668514Y5330906D01*
X9890795Y6033945D02*
G01*
X9890795Y6182443D01*
X10109316Y6182443D02*
G01*
X10109316Y6033945D01*
X10094076Y6018705D02*
G01*
X9906035Y6018705D01*
X9890795Y6516184D02*
G01*
X9890795Y6367686D01*
X10109316Y6367686D02*
G01*
X10109316Y6516184D01*
X10094076Y6531424D02*
G01*
X9906035Y6531424D01*
X11791083Y5315666D02*
G01*
X11642585Y5315666D01*
X11642585Y5534187D02*
G01*
X11791083Y5534187D01*
X11806323Y5518947D02*
G01*
X11806323Y5330906D01*
X11308844Y5315666D02*
G01*
X11457343Y5315666D01*
X11457343Y5534187D02*
G01*
X11308844Y5534187D01*
X11293604Y5518947D02*
G01*
X11293604Y5330906D01*
X11791083Y4415744D02*
G01*
X11642585Y4415744D01*
X11642585Y4634265D02*
G01*
X11791083Y4634265D01*
X11806323Y4619025D02*
G01*
X11806323Y4430984D01*
X11308844Y4415744D02*
G01*
X11457343Y4415744D01*
X11457343Y4634265D02*
G01*
X11308844Y4634265D01*
X11293604Y4619025D02*
G01*
X11293604Y4430984D01*
X704801Y2091979D02*
G01*
X568810Y2091979D01*
X568810Y2307798D01*
X704801Y2307798D01*
X895042Y2091979D02*
G01*
X1031034Y2091979D01*
X1031034Y2307798D01*
X895042Y2307798D01*
X704801Y7942107D02*
G01*
X568810Y7942107D01*
X568810Y8157926D01*
X704801Y8157926D01*
X895042Y7942107D02*
G01*
X1031034Y7942107D01*
X1031034Y8157926D01*
X895042Y8157926D01*
X18544994Y857966D02*
G01*
X18680986Y857966D01*
X18680986Y642147D01*
X18544994Y642147D01*
X18354753Y857966D02*
G01*
X18218762Y857966D01*
X18218762Y642147D01*
X18354753Y642147D01*
X18544994Y9357822D02*
G01*
X18680986Y9357822D01*
X18680986Y9142003D01*
X18544994Y9142003D01*
X18354753Y9357822D02*
G01*
X18218762Y9357822D01*
X18218762Y9142003D01*
X18354753Y9142003D01*
X10392018Y6370185D02*
G01*
X10392018Y6506176D01*
X10607837Y6506176D01*
X10607837Y6370185D01*
X10392018Y6179944D02*
G01*
X10392018Y6043952D01*
X10607837Y6043952D01*
X10607837Y6179944D01*
X15857763Y6179944D02*
G01*
X15857763Y6043952D01*
X15641944Y6043952D01*
X15641944Y6179944D01*
X15857763Y6370185D02*
G01*
X15857763Y6506176D01*
X15641944Y6506176D01*
X15641944Y6370185D01*
X18270085Y1957905D02*
G01*
X18406076Y1957905D01*
X18406076Y1742086D01*
X18270085Y1742086D01*
X18079844Y1957905D02*
G01*
X17943852Y1957905D01*
X17943852Y1742086D01*
X18079844Y1742086D01*
X6382801Y3504816D02*
G01*
X6382801Y3368824D01*
X6166982Y3368824D01*
X6166982Y3504816D01*
X6382801Y3695057D02*
G01*
X6382801Y3831048D01*
X6166982Y3831048D01*
X6166982Y3695057D01*
D13*
X8294974Y5124983D02*
G01*
X8254994Y5124983D01*
X8294974Y4874996D02*
G01*
X8254994Y4874996D01*
X11519966Y5124983D02*
G01*
X11479987Y5124983D01*
X11519966Y4874996D02*
G01*
X11479987Y4874996D01*
D11*
X5397367Y3302370D02*
G01*
X5397367Y3447613D01*
X5500530Y3447613D01*
X5702609Y3302370D02*
G01*
X5702609Y3447613D01*
X5599447Y3447613D01*
X5504449Y3302370D02*
G01*
X5595528Y3302370D01*
D13*
X16594957Y5124983D02*
G01*
X16554978Y5124983D01*
X16594957Y4874996D02*
G01*
X16554978Y4874996D01*
D14*
X11534965Y505007D02*
G01*
X11274971Y505007D01*
X11274971Y1144986D01*
X11534965Y1144986D01*
X11764987Y505007D02*
G01*
X12024982Y505007D01*
X12024982Y1144986D01*
X11764987Y1144986D01*
D11*
X5591108Y5290728D02*
G01*
X5442610Y5290728D01*
X5442610Y5509249D02*
G01*
X5591108Y5509249D01*
X5606348Y5494009D02*
G01*
X5606348Y5305968D01*
X5108869Y5290728D02*
G01*
X5257368Y5290728D01*
X5257368Y5509249D02*
G01*
X5108869Y5509249D01*
X5093629Y5494009D02*
G01*
X5093629Y5305968D01*
X6340726Y6033866D02*
G01*
X6340726Y6182365D01*
X6559247Y6182365D02*
G01*
X6559247Y6033866D01*
X6544007Y6018626D02*
G01*
X6355966Y6018626D01*
X6340726Y6516105D02*
G01*
X6340726Y6367607D01*
X6559247Y6367607D02*
G01*
X6559247Y6516105D01*
X6544007Y6531345D02*
G01*
X6355966Y6531345D01*
X8566104Y5315727D02*
G01*
X8417605Y5315727D01*
X8417605Y5534248D02*
G01*
X8566104Y5534248D01*
X8581344Y5519008D02*
G01*
X8581344Y5330967D01*
X8083864Y5315727D02*
G01*
X8232363Y5315727D01*
X8232363Y5534248D02*
G01*
X8083864Y5534248D01*
X8068624Y5519008D02*
G01*
X8068624Y5330967D01*
X8566104Y4415729D02*
G01*
X8417605Y4415729D01*
X8417605Y4634250D02*
G01*
X8566104Y4634250D01*
X8581344Y4619010D02*
G01*
X8581344Y4430969D01*
X8083864Y4415729D02*
G01*
X8232363Y4415729D01*
X8232363Y4634250D02*
G01*
X8083864Y4634250D01*
X8068624Y4619010D02*
G01*
X8068624Y4430969D01*
X8420105Y5932896D02*
G01*
X8556096Y5932896D01*
X8556096Y5717077D01*
X8420105Y5717077D01*
X8229864Y5932896D02*
G01*
X8093872Y5932896D01*
X8093872Y5717077D01*
X8229864Y5717077D01*
X6132898Y3504872D02*
G01*
X6132898Y3368880D01*
X5917079Y3368880D01*
X5917079Y3504872D01*
X6132898Y3695113D02*
G01*
X6132898Y3831104D01*
X5917079Y3831104D01*
X5917079Y3695113D01*
X5916988Y4565192D02*
G01*
X5916988Y4491989D01*
X5990191Y4491989D01*
X6932988Y4565192D02*
G01*
X6932988Y4491989D01*
X6859785Y4491989D01*
X5916988Y5434787D02*
G01*
X5916988Y5507989D01*
X5990191Y5507989D01*
X6932988Y5434787D02*
G01*
X6932988Y5507989D01*
X6859785Y5507989D01*
X5957468Y5467510D02*
G01*
X5957468Y4532469D01*
X6892508Y4532469D01*
X6892508Y5467510D01*
X5957468Y5467510D01*
X14041092Y5315727D02*
G01*
X13892593Y5315727D01*
X13892593Y5534248D02*
G01*
X14041092Y5534248D01*
X14056332Y5519008D02*
G01*
X14056332Y5330967D01*
X13558852Y5315727D02*
G01*
X13707351Y5315727D01*
X13707351Y5534248D02*
G01*
X13558852Y5534248D01*
X13543612Y5519008D02*
G01*
X13543612Y5330967D01*
X15290708Y6033866D02*
G01*
X15290708Y6182365D01*
X15509229Y6182365D02*
G01*
X15509229Y6033866D01*
X15493989Y6018626D02*
G01*
X15305948Y6018626D01*
X15290708Y6516105D02*
G01*
X15290708Y6367607D01*
X15509229Y6367607D02*
G01*
X15509229Y6516105D01*
X15493989Y6531345D02*
G01*
X15305948Y6531345D01*
X16866087Y5315727D02*
G01*
X16717589Y5315727D01*
X16717589Y5534248D02*
G01*
X16866087Y5534248D01*
X16881327Y5519008D02*
G01*
X16881327Y5330967D01*
X16383848Y5315727D02*
G01*
X16532346Y5315727D01*
X16532346Y5534248D02*
G01*
X16383848Y5534248D01*
X16368608Y5519008D02*
G01*
X16368608Y5330967D01*
X16866087Y4440730D02*
G01*
X16717589Y4440730D01*
X16717589Y4659251D02*
G01*
X16866087Y4659251D01*
X16881327Y4644011D02*
G01*
X16881327Y4455970D01*
X16383848Y4440730D02*
G01*
X16532346Y4440730D01*
X16532346Y4659251D02*
G01*
X16383848Y4659251D01*
X16368608Y4644011D02*
G01*
X16368608Y4455970D01*
X16545087Y5932896D02*
G01*
X16681079Y5932896D01*
X16681079Y5717077D01*
X16545087Y5717077D01*
X16354846Y5932896D02*
G01*
X16218855Y5932896D01*
X16218855Y5717077D01*
X16354846Y5717077D01*
X14707880Y3879870D02*
G01*
X14707880Y3743878D01*
X14492061Y3743878D01*
X14492061Y3879870D01*
X14707880Y4070111D02*
G01*
X14707880Y4206102D01*
X14492061Y4206102D01*
X14492061Y4070111D01*
X15892058Y6370106D02*
G01*
X15892058Y6506098D01*
X16107877Y6506098D01*
X16107877Y6370106D01*
X15892058Y6179865D02*
G01*
X15892058Y6043874D01*
X16107877Y6043874D01*
X16107877Y6179865D01*
X14416971Y4565192D02*
G01*
X14416971Y4491989D01*
X14490174Y4491989D01*
X15432971Y4565192D02*
G01*
X15432971Y4491989D01*
X15359768Y4491989D01*
X14416971Y5434787D02*
G01*
X14416971Y5507989D01*
X14490174Y5507989D01*
X15432971Y5434787D02*
G01*
X15432971Y5507989D01*
X15359768Y5507989D01*
X14457451Y5467510D02*
G01*
X14457451Y4532469D01*
X15392491Y4532469D01*
X15392491Y5467510D01*
X14457451Y5467510D01*
X11620096Y5932896D02*
G01*
X11756087Y5932896D01*
X11756087Y5717077D01*
X11620096Y5717077D01*
X11429855Y5932896D02*
G01*
X11293863Y5932896D01*
X11293863Y5717077D01*
X11429855Y5717077D01*
X9329861Y3967081D02*
G01*
X9193870Y3967081D01*
X9193870Y4182899D01*
X9329861Y4182899D01*
X9520102Y3967081D02*
G01*
X9656094Y3967081D01*
X9656094Y4182899D01*
X9520102Y4182899D01*
X10942068Y6370106D02*
G01*
X10942068Y6506098D01*
X11157887Y6506098D01*
X11157887Y6370106D01*
X10942068Y6179865D02*
G01*
X10942068Y6043874D01*
X11157887Y6043874D01*
X11157887Y6179865D01*
X9516981Y4565192D02*
G01*
X9516981Y4491989D01*
X9590184Y4491989D01*
X10532981Y4565192D02*
G01*
X10532981Y4491989D01*
X10459778Y4491989D01*
X9516981Y5434787D02*
G01*
X9516981Y5507989D01*
X9590184Y5507989D01*
X10532981Y5434787D02*
G01*
X10532981Y5507989D01*
X10459778Y5507989D01*
X9557461Y5467510D02*
G01*
X9557461Y4532469D01*
X10492501Y4532469D01*
X10492501Y5467510D01*
X9557461Y5467510D01*
G75*
G01*
X12041020Y1909354D02*
G02*
X12056260Y1894114I0J-15240D01*
G75*
G01*
X12056260Y1706072D02*
G02*
X12041020Y1690832I-15240J0D01*
G75*
G01*
X11558781Y1909354D02*
G03*
X11543541Y1894114I0J-15240D01*
G75*
G01*
X11543541Y1706072D02*
G03*
X11558781Y1690832I15240J0D01*
G75*
G01*
X9165994Y5534188D02*
G02*
X9181234Y5518948I0J-15240D01*
G75*
G01*
X9181234Y5330906D02*
G02*
X9165994Y5315666I-15240J0D01*
G75*
G01*
X8683755Y5534188D02*
G03*
X8668515Y5518948I0J-15240D01*
G75*
G01*
X8668515Y5330906D02*
G03*
X8683755Y5315666I15240J0D01*
G75*
G01*
X10109317Y6033945D02*
G02*
X10094077Y6018705I-15240J0D01*
G75*
G01*
X9906036Y6018705D02*
G02*
X9890796Y6033945I0J15240D01*
G75*
G01*
X10109317Y6516185D02*
G03*
X10094077Y6531425I-15240J0D01*
G75*
G01*
X9906036Y6531425D02*
G03*
X9890796Y6516185I0J-15240D01*
G75*
G01*
X11791084Y5534188D02*
G02*
X11806324Y5518948I0J-15240D01*
G75*
G01*
X11806324Y5330906D02*
G02*
X11791084Y5315666I-15240J0D01*
G75*
G01*
X11308845Y5534188D02*
G03*
X11293605Y5518948I0J-15240D01*
G75*
G01*
X11293605Y5330906D02*
G03*
X11308845Y5315666I15240J0D01*
G75*
G01*
X11791084Y4634266D02*
G02*
X11806324Y4619026I0J-15240D01*
G75*
G01*
X11806324Y4430984D02*
G02*
X11791084Y4415744I-15240J0D01*
G75*
G01*
X11308845Y4634266D02*
G03*
X11293605Y4619026I0J-15240D01*
G75*
G01*
X11293605Y4430984D02*
G03*
X11308845Y4415744I15240J0D01*
D15*
G75*
G01*
X8374985Y4809998D02*
G02*
X8394974Y4809998I9994J-504D01*
G75*
G01*
X8394974Y4809998D02*
G02*
X8374985Y4809998I-9995J504D01*
G75*
G01*
X11599977Y4809998D02*
G02*
X11619967Y4809998I9995J-504D01*
G75*
G01*
X11619967Y4809998D02*
G02*
X11599977Y4809998I-9995J504D01*
G75*
G01*
X16674968Y4809998D02*
G02*
X16694958Y4809998I9995J-504D01*
G75*
G01*
X16694958Y4809998D02*
G02*
X16674968Y4809998I-9995J504D01*
G75*
G01*
X12259983Y1074984D02*
G02*
X12259983Y1074552I10005J-216D01*
D11*
G75*
G01*
X5591109Y5509250D02*
G02*
X5606349Y5494010I0J-15240D01*
G75*
G01*
X5606349Y5305969D02*
G02*
X5591109Y5290729I-15240J0D01*
G75*
G01*
X5108870Y5509250D02*
G03*
X5093630Y5494010I0J-15240D01*
G75*
G01*
X5093630Y5305969D02*
G03*
X5108870Y5290729I15240J0D01*
G75*
G01*
X6559248Y6033867D02*
G02*
X6544008Y6018627I-15240J0D01*
G75*
G01*
X6355966Y6018627D02*
G02*
X6340726Y6033867I0J15240D01*
G75*
G01*
X6559248Y6516106D02*
G03*
X6544008Y6531346I-15240J0D01*
G75*
G01*
X6355966Y6531346D02*
G03*
X6340726Y6516106I0J-15240D01*
G75*
G01*
X8566104Y5534249D02*
G02*
X8581344Y5519009I0J-15240D01*
G75*
G01*
X8581344Y5330967D02*
G02*
X8566104Y5315727I-15240J0D01*
G75*
G01*
X8083865Y5534249D02*
G03*
X8068625Y5519009I0J-15240D01*
G75*
G01*
X8068625Y5330967D02*
G03*
X8083865Y5315727I15240J0D01*
G75*
G01*
X8566104Y4634250D02*
G02*
X8581344Y4619010I0J-15240D01*
G75*
G01*
X8581344Y4430969D02*
G02*
X8566104Y4415729I-15240J0D01*
G75*
G01*
X8083865Y4634250D02*
G03*
X8068625Y4619010I0J-15240D01*
G75*
G01*
X8068625Y4430969D02*
G03*
X8083865Y4415729I15240J0D01*
G75*
G01*
X14041092Y5534249D02*
G02*
X14056332Y5519009I0J-15240D01*
G75*
G01*
X14056332Y5330967D02*
G02*
X14041092Y5315727I-15240J0D01*
G75*
G01*
X13558853Y5534249D02*
G03*
X13543613Y5519009I0J-15240D01*
G75*
G01*
X13543613Y5330967D02*
G03*
X13558853Y5315727I15240J0D01*
G75*
G01*
X15509230Y6033867D02*
G02*
X15493990Y6018627I-15240J0D01*
G75*
G01*
X15305949Y6018627D02*
G02*
X15290709Y6033867I0J15240D01*
G75*
G01*
X15509230Y6516106D02*
G03*
X15493990Y6531346I-15240J0D01*
G75*
G01*
X15305949Y6531346D02*
G03*
X15290709Y6516106I0J-15240D01*
G75*
G01*
X16866088Y5534249D02*
G02*
X16881328Y5519009I0J-15240D01*
G75*
G01*
X16881328Y5330967D02*
G02*
X16866088Y5315727I-15240J0D01*
G75*
G01*
X16383848Y5534249D02*
G03*
X16368608Y5519009I0J-15240D01*
G75*
G01*
X16368608Y5330967D02*
G03*
X16383848Y5315727I15240J0D01*
G75*
G01*
X16866088Y4659252D02*
G02*
X16881328Y4644012I0J-15240D01*
G75*
G01*
X16881328Y4455970D02*
G02*
X16866088Y4440730I-15240J0D01*
G75*
G01*
X16383848Y4659252D02*
G03*
X16368608Y4644012I0J-15240D01*
G75*
G01*
X16368608Y4455970D02*
G03*
X16383848Y4440730I15240J0D01*
D16*
G75*
G01
X6041314Y5709890D02*
G03X6041314Y5709890I-10008J0D01*
D10*
G75*
G01
X6046318Y5417510D02*
G03X6046318Y5417510I-15011J0D01*
D16*
G75*
G01
X14541297Y5709890D02*
G03X14541297Y5709890I-10008J0D01*
D10*
G75*
G01
X14546301Y5417510D02*
G03X14546301Y5417510I-15011J0D01*
D16*
G75*
G01
X9641307Y5709890D02*
G03X9641307Y5709890I-10008J0D01*
D10*
G75*
G01
X9646310Y5417510D02*
G03X9646310Y5417510I-15011J0D01*
M02*
